<svg width="20" height="20" viewBox="0 0 20 20" fill="none" xmlns="http://www.w3.org/2000/svg">
<path d="M9.82135 18.8571C14.8116 18.8571 18.8571 14.8117 18.8571 9.82141C18.8571 4.83113 14.8116 0.785706 9.82135 0.785706C4.83107 0.785706 0.785645 4.83113 0.785645 9.82141C0.785645 14.8117 4.83107 18.8571 9.82135 18.8571Z" stroke="#00DFD8" stroke-width="1.57143"/>
<path d="M13.5193 8.3862H10.5519L11.1365 4.0345C11.1392 4.0139 11.135 3.9931 11.1246 3.9751C11.1143 3.9571 11.0983 3.9431 11.0792 3.9351C11.06 3.9271 11.0388 3.9256 11.0187 3.9308C10.9987 3.9361 10.9809 3.9478 10.9681 3.9641L5.94063 10.4728C5.91433 10.5069 5.89803 10.5476 5.89373 10.5905C5.88943 10.6333 5.89723 10.6765 5.91623 10.7152C5.93523 10.7538 5.96463 10.7864 6.00123 10.8091C6.03773 10.8319 6.07993 10.844 6.12303 10.844H9.09043L8.50583 15.1957C8.50313 15.2163 8.50733 15.2371 8.51773 15.2551C8.52803 15.2731 8.54403 15.2871 8.56313 15.2951C8.58233 15.3031 8.60353 15.3046 8.62363 15.2994C8.64363 15.2941 8.66143 15.2824 8.67423 15.2661L13.7017 8.7574C13.728 8.7233 13.7443 8.6826 13.7486 8.6397C13.7529 8.5969 13.7451 8.5537 13.7261 8.515C13.7071 8.4764 13.6777 8.4438 13.6411 8.4211C13.6046 8.3983 13.5624 8.3862 13.5193 8.3862Z" fill="#00DFD8"/>
</svg>
