<svg width="76" height="75" viewBox="0 0 76 75" fill="none" xmlns="http://www.w3.org/2000/svg">
<g id="BRA" clip-path="url(#clip0_746_3756)">
<path id="Vector" d="M38 75C58.7107 75 75.5 58.2107 75.5 37.5C75.5 16.7893 58.7107 0 38 0C17.2893 0 0.5 16.7893 0.5 37.5C0.5 58.2107 17.2893 75 38 75Z" fill="#6DA544"/>
<path id="Vector_2" d="M37.9997 14.6738L68.9779 37.4999L37.9997 60.326L7.02148 37.4999L37.9997 14.6738Z" fill="#FFDA44"/>
<path id="Vector_3" d="M38.0004 50.5434C45.2041 50.5434 51.0438 44.7036 51.0438 37.5C51.0438 30.2963 45.2041 24.4565 38.0004 24.4565C30.7968 24.4565 24.957 30.2963 24.957 37.5C24.957 44.7036 30.7968 50.5434 38.0004 50.5434Z" fill="#F0F0F0"/>
<path id="Vector_4" d="M31.4785 36.6848C29.2103 36.6848 27.0214 37.0297 24.9609 37.6699C25.0522 44.7949 30.8536 50.5435 38.0002 50.5435C42.4194 50.5435 46.3223 48.3437 48.6819 44.9818C44.6452 39.9285 38.4341 36.6849 31.4788 36.6849L31.4785 36.6848ZM50.802 39.999C50.9624 39.1756 51.0434 38.3388 51.0438 37.5C51.0438 30.2961 45.2041 24.4565 38.0004 24.4565C32.6253 24.4565 28.011 27.7085 26.0142 32.352C27.7793 31.9863 29.6068 31.7937 31.4788 31.7937C39.0545 31.7935 45.9079 34.9426 50.802 39.9991V39.999Z" fill="#0052B4"/>
</g>
<defs>
<clipPath id="clip0_746_3756">
<rect width="75" height="75" fill="white" transform="translate(0.5)"/>
</clipPath>
</defs>
</svg>
