<svg width="76" height="75" viewBox="0 0 76 75" fill="none" xmlns="http://www.w3.org/2000/svg">
<g clip-path="url(#clip0_4_769)">
<path d="M38 75C58.7107 75 75.5 58.2107 75.5 37.5C75.5 16.7893 58.7107 0 38 0C17.2893 0 0.5 16.7893 0.5 37.5C0.5 58.2107 17.2893 75 38 75Z" fill="#F0F0F0"/>
<path d="M56.3576 5V70C67.8352 63.5755 75.4869 51.4826 75.4869 37.5C75.8695 23.5175 67.8352 11.4245 56.3576 5.00008V5ZM52.1491 31.8315C47.1755 32.5873 46.793 33.3431 46.793 29.9419C45.2626 31.4535 43.3497 34.4767 42.2019 35.2326C41.4367 35.9884 41.0541 35.2326 41.4367 34.8547C41.4367 34.4767 44.1149 29.1861 44.1149 26.5407C41.4367 28.4303 40.2889 27.2966 37.6108 21.25C35.3153 26.9187 33.785 28.0524 31.1069 26.5407C31.4895 29.564 33.785 34.4767 33.785 34.8547C33.785 35.2326 33.785 35.9884 33.0197 35.2326C31.872 34.4767 29.9592 31.0757 28.4288 29.9419C28.8114 33.343 28.0462 32.5873 23.0726 31.8315C23.4551 35.6105 24.9855 37.1221 21.9248 37.8779C29.1939 44.3024 29.5765 44.6802 26.8985 47.7035C32.6372 46.9476 36.0805 45.436 36.0805 45.436C36.4631 45.436 36.4631 45.814 36.4631 45.814V54.5058H38.7586V45.814C38.7586 45.436 38.7586 45.0581 39.1412 45.436C39.1412 45.436 42.2019 46.9476 48.3233 47.7035C45.6452 45.0582 46.0277 44.3024 53.2969 37.8779C50.6188 37.1221 51.7666 35.6105 52.1491 31.8315ZM19.6293 5V69.9999C8.15166 63.5755 0.5 51.4826 0.5 37.5C0.5 23.5175 8.15166 11.4245 19.6293 5.00008" fill="#EB0000"/>
</g>
<defs>
<clipPath id="clip0_4_769">
<rect width="76" height="75" fill="white"/>
</clipPath>
</defs>
</svg>
