<svg width="45" height="45" viewBox="0 0 45 45" fill="none" xmlns="http://www.w3.org/2000/svg">
<path d="M30.7934 27.9176C30.9251 28.0485 31.1033 28.1221 31.2891 28.1221C31.4748 28.1221 31.653 28.0485 31.7848 27.9176L41.6285 18.0738C41.7437 17.9393 41.8039 17.7663 41.7971 17.5893C41.7902 17.4124 41.7169 17.2445 41.5916 17.1193C41.4664 16.9941 41.2986 16.9207 41.1216 16.9139C40.9446 16.907 40.7716 16.9672 40.6371 17.0824L30.7934 26.9262C30.6624 27.0579 30.5889 27.2361 30.5889 27.4219C30.5889 27.6076 30.6624 27.7859 30.7934 27.9176Z" fill="#00DFD8"/>
<path d="M35.5078 18.9844C35.5078 18.4281 35.3429 17.8843 35.0338 17.4218C34.7248 16.9593 34.2855 16.5988 33.7716 16.386C33.2577 16.1731 32.6922 16.1174 32.1466 16.2259C31.6011 16.3344 31.0999 16.6023 30.7066 16.9956C30.3132 17.389 30.0454 17.8901 29.9369 18.4357C29.8283 18.9813 29.884 19.5468 30.0969 20.0607C30.3098 20.5746 30.6703 21.0138 31.1328 21.3229C31.5953 21.6319 32.1391 21.7969 32.6953 21.7969C33.4412 21.7969 34.1566 21.5006 34.6841 20.9731C35.2115 20.4457 35.5078 19.7303 35.5078 18.9844ZM31.2891 18.9844C31.2891 18.7062 31.3715 18.4344 31.5261 18.2031C31.6806 17.9718 31.9002 17.7916 32.1572 17.6852C32.4141 17.5787 32.6969 17.5509 32.9697 17.6051C33.2424 17.6594 33.493 17.7933 33.6897 17.99C33.8864 18.1867 34.0203 18.4372 34.0745 18.71C34.1288 18.9828 34.101 19.2656 33.9945 19.5225C33.8881 19.7795 33.7078 19.9991 33.4766 20.1536C33.2453 20.3082 32.9734 20.3906 32.6953 20.3906C32.3224 20.3906 31.9647 20.2425 31.7009 19.9787C31.4372 19.715 31.2891 19.3573 31.2891 18.9844Z" fill="#00DFD8"/>
<path d="M39.7266 23.2031C39.1703 23.2031 38.6265 23.3681 38.164 23.6771C37.7015 23.9862 37.341 24.4254 37.1282 24.9393C36.9153 25.4532 36.8596 26.0187 36.9681 26.5643C37.0766 27.1099 37.3445 27.611 37.7378 28.0044C38.1312 28.3977 38.6323 28.6656 39.1779 28.7741C39.7234 28.8826 40.2889 28.8269 40.8029 28.614C41.3168 28.4012 41.756 28.0407 42.0651 27.5782C42.3741 27.1157 42.5391 26.5719 42.5391 26.0156C42.5391 25.2697 42.2427 24.5543 41.7153 24.0269C41.1879 23.4994 40.4725 23.2031 39.7266 23.2031ZM39.7266 27.4219C39.4484 27.4219 39.1765 27.3394 38.9453 27.1849C38.714 27.0304 38.5338 26.8107 38.4274 26.5538C38.3209 26.2968 38.2931 26.0141 38.3473 25.7413C38.4016 25.4685 38.5355 25.2179 38.7322 25.0213C38.9289 24.8246 39.1794 24.6907 39.4522 24.6364C39.725 24.5821 40.0078 24.61 40.2647 24.7164C40.5217 24.8229 40.7413 25.0031 40.8958 25.2344C41.0503 25.4656 41.1328 25.7375 41.1328 26.0156C41.1328 26.3886 40.9847 26.7463 40.7209 27.01C40.4572 27.2737 40.0995 27.4219 39.7266 27.4219Z" fill="#00DFD8"/>
<path d="M21.0938 20.3906V24.6094C21.0938 25.5418 21.4641 26.436 22.1235 27.0953C22.7828 27.7546 23.677 28.125 24.6094 28.125C25.5418 28.125 26.436 27.7546 27.0953 27.0953C27.7546 26.436 28.125 25.5418 28.125 24.6094V20.3906C28.125 19.4582 27.7546 18.564 27.0953 17.9047C26.436 17.2454 25.5418 16.875 24.6094 16.875C23.677 16.875 22.7828 17.2454 22.1235 17.9047C21.4641 18.564 21.0938 19.4582 21.0938 20.3906ZM26.7188 20.3906V24.6094C26.7188 25.1688 26.4965 25.7053 26.1009 26.1009C25.7053 26.4965 25.1688 26.7188 24.6094 26.7188C24.0499 26.7188 23.5134 26.4965 23.1178 26.1009C22.7222 25.7053 22.5 25.1688 22.5 24.6094V20.3906C22.5 19.8312 22.7222 19.2947 23.1178 18.8991C23.5134 18.5035 24.0499 18.2812 24.6094 18.2812C25.1688 18.2812 25.7053 18.5035 26.1009 18.8991C26.4965 19.2947 26.7188 19.8312 26.7188 20.3906Z" fill="#00DFD8"/>
<path d="M9.84375 17.5781V27.4219C9.84375 27.6084 9.91783 27.7872 10.0497 27.9191C10.1816 28.0509 10.3604 28.125 10.5469 28.125C10.7334 28.125 10.9122 28.0509 11.0441 27.9191C11.1759 27.7872 11.25 27.6084 11.25 27.4219V17.5781C11.25 17.3916 11.1759 17.2128 11.0441 17.0809C10.9122 16.9491 10.7334 16.875 10.5469 16.875C10.3604 16.875 10.1816 16.9491 10.0497 17.0809C9.91783 17.2128 9.84375 17.3916 9.84375 17.5781Z" fill="#00DFD8"/>
<path d="M12.6562 20.3906V24.6094C12.6563 25.5418 13.0266 26.436 13.686 27.0953C14.3453 27.7546 15.2395 28.125 16.1719 28.125C17.1043 28.125 17.9985 27.7546 18.6578 27.0953C19.3171 26.436 19.6875 25.5418 19.6875 24.6094V20.3906C19.6875 19.4582 19.3171 18.564 18.6578 17.9047C17.9985 17.2454 17.1043 16.875 16.1719 16.875C15.2395 16.875 14.3453 17.2454 13.686 17.9047C13.0266 18.564 12.6562 19.4582 12.6562 20.3906ZM18.2812 20.3906V24.6094C18.2812 25.1688 18.059 25.7053 17.6634 26.1009C17.2678 26.4965 16.7313 26.7188 16.1719 26.7188C15.6124 26.7188 15.0759 26.4965 14.6803 26.1009C14.2847 25.7053 14.0625 25.1688 14.0625 24.6094V20.3906C14.0625 19.8312 14.2847 19.2947 14.6803 18.8991C15.0759 18.5035 15.6124 18.2812 16.1719 18.2812C16.7313 18.2812 17.2678 18.5035 17.6634 18.8991C18.059 19.2947 18.2812 19.8312 18.2812 20.3906Z" fill="#00DFD8"/>
<path d="M37.4555 32.4211C37.3044 32.3122 37.1162 32.2676 36.9323 32.2973C36.7484 32.327 36.5838 32.4284 36.4746 32.5793C34.8883 34.7782 32.8053 36.5715 30.3951 37.8135C27.9849 39.0555 25.3157 39.711 22.6044 39.7267C19.893 39.7425 17.2163 39.118 14.7919 37.9042C12.3674 36.6903 10.2637 34.9213 8.65195 32.741C6.03231 29.1563 4.8979 24.6986 5.48535 20.2977C6.07279 15.8969 8.33673 11.8927 11.8049 9.12066C15.2731 6.34858 19.6776 5.0226 24.0998 5.41933C28.5219 5.81606 32.6201 7.90486 35.5394 11.25H31.6406C31.4541 11.25 31.2753 11.3241 31.1434 11.4559C31.0116 11.5878 30.9375 11.7667 30.9375 11.9531C30.9375 12.1396 31.0116 12.3185 31.1434 12.4503C31.2753 12.5822 31.4541 12.6563 31.6406 12.6563H37.2656C37.4521 12.6563 37.6309 12.5822 37.7628 12.4503C37.8947 12.3185 37.9687 12.1396 37.9687 11.9531V6.32813C37.9687 6.14165 37.8947 5.96281 37.7628 5.83095C37.6309 5.69909 37.4521 5.62501 37.2656 5.62501C37.0791 5.62501 36.9003 5.69909 36.7684 5.83095C36.6366 5.96281 36.5625 6.14165 36.5625 6.32813V10.2832C33.3983 6.67163 28.9621 4.42096 24.1789 4.00058C19.3958 3.58019 14.635 5.02254 10.8893 8.02683C7.14372 11.0311 4.70248 15.3654 4.07473 20.1258C3.44697 24.8862 4.68116 29.7052 7.51991 33.5777C8.97002 35.5495 10.7967 37.2141 12.8943 38.4753C14.9919 39.7365 17.3187 40.5693 19.7402 40.9254C20.6711 41.066 21.6113 41.1365 22.5527 41.1363C25.4958 41.1246 28.3944 40.4175 31.0123 39.0728C33.6302 37.7281 35.8933 35.7838 37.6172 33.3984C37.7246 33.2472 37.768 33.0595 37.7377 32.8765C37.7074 32.6934 37.6059 32.5297 37.4555 32.4211Z" fill="#00DFD8"/>
</svg>
