<svg width="45" height="45" viewBox="0 0 45 45" fill="none" xmlns="http://www.w3.org/2000/svg">
<g clip-path="url(#clip0_4_141)">
<path d="M31.5 18C29.966 18.0035 28.444 18.2698 27 18.7875V14.25C27 13.6372 26.5635 13.146 25.65 12.7358C26.4818 12.348 27 11.8612 27 11.25V3C27 0.14475 15.7545 0 13.5 0C11.2455 0 0 0.14475 0 3V11.25C0 11.8612 0.51825 12.348 1.35 12.7358C0.4365 13.146 0 13.6372 0 14.25V22.5C0 23.112 0.51825 23.598 1.35 23.9865C0.4365 24.396 0 24.8873 0 25.5V33.75C0 36.606 11.2455 36.75 13.5 36.75C15.375 36.75 17.25 36.675 18.9818 36.5295C19.8955 38.803 21.411 40.7848 23.3656 42.2624C25.3201 43.7399 27.6401 44.6576 30.0766 44.9168C32.513 45.176 34.9741 44.767 37.1958 43.7337C39.4175 42.7005 41.316 41.0818 42.6877 39.0515C44.0593 37.0212 44.8524 34.6558 44.9818 32.209C45.1112 29.7622 44.572 27.3263 43.4221 25.1626C42.2723 22.999 40.5551 21.1892 38.4548 19.9273C36.3544 18.6655 33.9502 17.9992 31.5 18ZM20.568 23.6108C18.2217 23.8798 15.8616 24.0098 13.5 24C6.14475 24 2.08575 22.962 1.5 22.3927V15.8018C4.638 17.1623 11.7563 17.25 13.5 17.25C15.2438 17.25 22.362 17.1623 25.5 15.8018V19.425C23.5427 20.4024 21.8507 21.8385 20.568 23.6108ZM1.5 4.55175C4.638 5.91225 11.7563 6 13.5 6C15.2438 6 22.362 5.91225 25.5 4.55175V11.142C24.9128 11.7113 20.85 12.75 13.5 12.75C6.15 12.75 2.08725 11.7113 1.5 11.142V4.55175ZM13.5 1.5C20.4075 1.5 24.4095 2.41725 25.356 3C24.4095 3.58275 20.4075 4.5 13.5 4.5C6.5925 4.5 2.5905 3.58275 1.644 3C2.5905 2.41725 6.5925 1.5 13.5 1.5ZM13.5 14.25C16.6836 14.2703 19.8634 14.0249 23.0063 13.5165C23.8202 13.6398 24.6099 13.8893 25.347 14.256C24.387 14.8395 20.3895 15.75 13.5 15.75C6.6105 15.75 2.613 14.8395 1.65 14.256C2.38707 13.8893 3.1768 13.6398 3.99075 13.5165C7.13458 14.0251 10.3154 14.2704 13.5 14.25ZM13.5 25.5C15.6428 25.5 17.7 25.4055 19.5548 25.2292C19.2928 25.7327 19.0631 26.2522 18.867 26.7848C17.2035 26.925 15.405 27 13.5 27C6.6105 27 2.613 26.0895 1.65 25.5067C2.38711 25.1395 3.17718 24.89 3.9915 24.7673C7.13509 25.2757 10.3156 25.5208 13.5 25.5ZM13.5 35.25C6.144 35.25 2.085 34.2113 1.5 33.642V27.0525C4.638 28.4123 11.7563 28.5 13.5 28.5C15.2198 28.5 16.857 28.44 18.3923 28.3275C17.8371 30.543 17.8718 32.8653 18.4928 35.0632C16.9073 35.1833 15.2048 35.25 13.5 35.25ZM31.5 43.5C29.1266 43.5 26.8066 42.7962 24.8332 41.4776C22.8598 40.1591 21.3217 38.2849 20.4134 36.0922C19.5052 33.8995 19.2676 31.4867 19.7306 29.1589C20.1936 26.8311 21.3365 24.6929 23.0147 23.0147C24.6929 21.3365 26.8311 20.1936 29.1589 19.7306C31.4867 19.2676 33.8995 19.5052 36.0922 20.4134C38.2849 21.3217 40.1591 22.8598 41.4776 24.8332C42.7962 26.8065 43.5 29.1266 43.5 31.5C43.4962 34.6814 42.2307 37.7315 39.9811 39.9811C37.7315 42.2307 34.6814 43.4962 31.5 43.5Z" fill="#00DFD8"/>
<path d="M32.25 29.388V25.5C32.25 25.3011 32.171 25.1103 32.0303 24.9697C31.8897 24.829 31.6989 24.75 31.5 24.75C31.3011 24.75 31.1103 24.829 30.9697 24.9697C30.829 25.1103 30.75 25.3011 30.75 25.5V29.388C30.3128 29.5426 29.9341 29.8284 29.6656 30.2065C29.3971 30.5845 29.2519 31.0363 29.25 31.5C29.2513 31.8341 29.3282 32.1636 29.475 32.4637L26.469 35.4697C26.3974 35.5389 26.3402 35.6217 26.3009 35.7132C26.2616 35.8047 26.2409 35.9031 26.2401 36.0027C26.2392 36.1023 26.2582 36.201 26.2959 36.2932C26.3336 36.3854 26.3893 36.4691 26.4597 36.5395C26.5301 36.61 26.6139 36.6657 26.706 36.7034C26.7982 36.7411 26.897 36.7601 26.9966 36.7592C27.0961 36.7583 27.1946 36.7376 27.2861 36.6983C27.3776 36.659 27.4603 36.6019 27.5295 36.5303L30.5363 33.525C30.8364 33.6718 31.1659 33.7487 31.5 33.75C32.0301 33.751 32.5435 33.5644 32.9492 33.2231C33.3549 32.8819 33.6267 32.4081 33.7165 31.8856C33.8064 31.3632 33.7084 30.8258 33.44 30.3687C33.1716 29.9115 32.75 29.5641 32.25 29.388ZM31.5 32.25C31.3037 32.2507 31.115 32.1738 30.975 32.0363V32.025L30.966 32.019C30.8462 31.894 30.7733 31.7314 30.7598 31.5588C30.7462 31.3861 30.7928 31.2141 30.8916 31.072C30.9905 30.9298 31.1354 30.8262 31.302 30.7787C31.4685 30.7313 31.6463 30.7429 31.8052 30.8117C31.9642 30.8804 32.0944 31.002 32.1738 31.1559C32.2533 31.3097 32.2771 31.4863 32.2411 31.6557C32.2052 31.8251 32.1117 31.9768 31.9766 32.0852C31.8416 32.1935 31.6731 32.2517 31.5 32.25Z" fill="#00DFD8"/>
<path d="M31.5 23.25C31.6989 23.25 31.8897 23.171 32.0303 23.0303C32.171 22.8897 32.25 22.6989 32.25 22.5V21.75C32.25 21.5511 32.171 21.3603 32.0303 21.2197C31.8897 21.079 31.6989 21 31.5 21C31.3011 21 31.1103 21.079 30.9697 21.2197C30.829 21.3603 30.75 21.5511 30.75 21.75V22.5C30.75 22.6989 30.829 22.8897 30.9697 23.0303C31.1103 23.171 31.3011 23.25 31.5 23.25Z" fill="#00DFD8"/>
<path d="M25.1363 24.075C24.9955 23.9343 24.8046 23.8552 24.6056 23.8552C24.4066 23.8552 24.2157 23.9343 24.075 24.075C23.9343 24.2157 23.8552 24.4066 23.8552 24.6056C23.8552 24.8047 23.9343 24.9955 24.075 25.1363L24.6053 25.6665C24.7467 25.8031 24.9362 25.8787 25.1328 25.877C25.3295 25.8753 25.5176 25.7964 25.6566 25.6574C25.7957 25.5183 25.8745 25.3302 25.8763 25.1336C25.878 24.9369 25.8024 24.7475 25.6658 24.606L25.1363 24.075Z" fill="#00DFD8"/>
<path d="M22.5 30.75H21.75C21.5511 30.75 21.3603 30.829 21.2197 30.9697C21.079 31.1103 21 31.3011 21 31.5C21 31.6989 21.079 31.8897 21.2197 32.0303C21.3603 32.171 21.5511 32.25 21.75 32.25H22.5C22.6989 32.25 22.8897 32.171 23.0303 32.0303C23.171 31.8897 23.25 31.6989 23.25 31.5C23.25 31.3011 23.171 31.1103 23.0303 30.9697C22.8897 30.829 22.6989 30.75 22.5 30.75Z" fill="#00DFD8"/>
<path d="M24.606 37.3335L24.0758 37.8638C24.0061 37.9334 23.9508 38.0161 23.9131 38.1071C23.8753 38.1981 23.8559 38.2956 23.8559 38.3941C23.8558 38.4926 23.8752 38.5902 23.9129 38.6812C23.9505 38.7722 24.0057 38.8549 24.0754 38.9246C24.145 38.9943 24.2277 39.0496 24.3187 39.0873C24.4097 39.1251 24.5072 39.1445 24.6057 39.1445C24.7042 39.1446 24.8018 39.1252 24.8928 39.0875C24.9839 39.0499 25.0666 38.9946 25.1363 38.925L25.6665 38.3948C25.8031 38.2533 25.8787 38.0638 25.877 37.8672C25.8753 37.6706 25.7964 37.4824 25.6574 37.3434C25.5183 37.2043 25.3302 37.1255 25.1336 37.1237C24.9369 37.122 24.7475 37.1976 24.606 37.3343V37.3335Z" fill="#00DFD8"/>
<path d="M31.5 39.75C31.3011 39.75 31.1103 39.829 30.9697 39.9697C30.829 40.1103 30.75 40.3011 30.75 40.5V41.25C30.75 41.4489 30.829 41.6397 30.9697 41.7803C31.1103 41.921 31.3011 42 31.5 42C31.6989 42 31.8897 41.921 32.0303 41.7803C32.171 41.6397 32.25 41.4489 32.25 41.25V40.5C32.25 40.3011 32.171 40.1103 32.0303 39.9697C31.8897 39.829 31.6989 39.75 31.5 39.75Z" fill="#00DFD8"/>
<path d="M38.394 37.3335C38.2526 37.1969 38.0631 37.1213 37.8665 37.123C37.6698 37.1247 37.4817 37.2036 37.3426 37.3426C37.2036 37.4817 37.1247 37.6698 37.123 37.8664C37.1213 38.0631 37.1969 38.2525 37.3335 38.394L37.8638 38.9242C38.0044 39.065 38.1952 39.1441 38.3941 39.1441C38.5931 39.1442 38.7839 39.0652 38.9246 38.9246C39.0654 38.784 39.1445 38.5932 39.1445 38.3943C39.1446 38.1953 39.0656 38.0045 38.925 37.8637L38.394 37.3335Z" fill="#00DFD8"/>
<path d="M39.75 31.5C39.75 31.6989 39.829 31.8897 39.9697 32.0303C40.1103 32.171 40.3011 32.25 40.5 32.25H41.25C41.4489 32.25 41.6397 32.171 41.7803 32.0303C41.921 31.8897 42 31.6989 42 31.5C42 31.3011 41.921 31.1103 41.7803 30.9697C41.6397 30.829 41.4489 30.75 41.25 30.75H40.5C40.3011 30.75 40.1103 30.829 39.9697 30.9697C39.829 31.1103 39.75 31.3011 39.75 31.5Z" fill="#00DFD8"/>
<path d="M37.8638 24.075L37.3335 24.6053C37.2619 24.6744 37.2047 24.7572 37.1654 24.8487C37.1261 24.9402 37.1054 25.0386 37.1046 25.1382C37.1037 25.2378 37.1227 25.3365 37.1604 25.4287C37.1981 25.5209 37.2538 25.6046 37.3242 25.6751C37.3946 25.7455 37.4784 25.8012 37.5705 25.8389C37.6627 25.8766 37.7615 25.8956 37.8611 25.8947C37.9606 25.8938 38.0591 25.8731 38.1506 25.8338C38.2421 25.7945 38.3248 25.7374 38.394 25.6658L38.9243 25.1355C39.0609 24.9941 39.1365 24.8046 39.1348 24.608C39.1331 24.4113 39.0542 24.2232 38.9151 24.0841C38.7761 23.9451 38.588 23.8662 38.3913 23.8645C38.1947 23.8628 38.0052 23.9384 37.8638 24.075Z" fill="#00DFD8"/>
</g>
<defs>
<clipPath id="clip0_4_141">
<rect width="45" height="45" fill="white"/>
</clipPath>
</defs>
</svg>
