<svg width="76" height="75" viewBox="0 0 76 75" fill="none" xmlns="http://www.w3.org/2000/svg">
<g id="DEU" clip-path="url(#clip0_746_3791)">
<path id="Vector" d="M2.83203 50.5435C8.13052 64.8233 21.876 75.0001 37.9996 75.0001C54.1231 75.0001 67.8686 64.8233 73.1671 50.5435L37.9996 47.2827L2.83203 50.5435V50.5435Z" fill="#FFDA44"/>
<path id="Vector_2" d="M37.9996 0C21.876 0 8.13052 10.1766 2.83203 24.4566L37.9996 27.7173L73.1671 24.4566C67.8686 10.1766 54.1231 0 37.9996 0Z" fill="black"/>
<path id="Vector_3" d="M2.83247 24.4565C1.32515 28.5205 0.5 32.9129 0.5 37.5C0.5 42.087 1.32515 46.4794 2.83247 50.5434H73.1677C74.675 46.4794 75.5 42.087 75.5 37.5C75.5 32.9129 74.675 28.5205 73.1675 24.4565H2.83247Z" fill="#D80027"/>
</g>
<defs>
<clipPath id="clip0_746_3791">
<rect width="75" height="75" fill="white" transform="translate(0.5)"/>
</clipPath>
</defs>
</svg>
