<svg width="543" height="384" viewBox="0 0 543 384" fill="none" xmlns="http://www.w3.org/2000/svg">
<path d="M187.746 251.883C205.696 251.883 225.9 256.881 225.9 263.044C225.9 269.208 193.28 280.027 179.266 280.027C165.252 280.027 155.241 269.208 155.241 263.044C155.241 256.881 169.794 251.883 187.746 251.883Z" fill="url(#paint0_linear_37_350)"/>
<path d="M210.346 230.37C210.346 248.478 181.5 267.77 177.075 284.989C172.631 267.77 143.802 248.478 143.802 230.37C143.802 212.263 158.699 197.584 177.075 197.584C195.45 197.584 210.346 212.263 210.346 230.37Z" fill="white"/>
<path d="M176.639 254.619C190.242 254.619 201.269 243.623 201.269 230.059C201.269 216.496 190.242 205.501 176.639 205.501C163.037 205.501 152.01 216.496 152.01 230.059C152.01 243.623 163.037 254.619 176.639 254.619Z" fill="#00DFD8"/>
<path d="M150.84 230.022C150.84 236.949 153.599 243.593 158.512 248.491C163.424 253.389 170.086 256.141 177.033 256.141C183.98 256.141 190.642 253.389 195.555 248.491C200.467 243.593 203.226 236.949 203.226 230.022C203.226 223.095 200.467 216.451 195.555 211.553C190.642 206.656 183.98 203.904 177.033 203.904C170.086 203.904 163.424 206.656 158.512 211.553C153.599 216.451 150.84 223.095 150.84 230.022Z" fill="white"/>
<path d="M157.901 220.233L162.174 213.916L163.078 214.525L158.806 220.84L157.901 220.231V220.233ZM159.71 221.449L163.983 215.134L164.887 215.742L160.615 222.058L159.71 221.449ZM161.519 222.665L165.792 216.35L166.698 216.96L162.425 223.275L161.519 222.665ZM162.425 236.77L166.698 243.085L165.792 243.694L161.519 237.379L162.425 236.77ZM160.615 237.989L162.446 240.695L161.54 241.304L159.71 238.596L160.616 237.988L160.615 237.989ZM163.056 241.597L164.887 244.304L163.981 244.913L162.152 242.206L163.058 241.596L163.056 241.597ZM158.807 239.204L163.08 245.519L162.174 246.129L157.901 239.812L158.807 239.204ZM191.892 213.916L193.723 216.622L192.818 217.232L190.987 214.525L191.893 213.916H191.892ZM194.333 217.526L196.164 220.233L195.258 220.84L193.428 218.134L194.334 217.524L194.333 217.526ZM190.083 215.134L194.355 221.449L193.449 222.058L189.178 215.742L190.084 215.132L190.083 215.134ZM188.274 216.35L190.105 219.057L189.199 219.666L187.369 216.958L188.275 216.35H188.274ZM190.715 219.959L192.546 222.665L191.642 223.275L189.81 220.568L190.715 219.959ZM187.368 243.085L189.199 240.38L190.105 240.988L188.274 243.694L187.368 243.085ZM189.809 239.476L191.642 236.77L192.546 237.379L190.715 240.086L189.809 239.476ZM189.178 244.303L191.009 241.596L191.914 242.206L190.083 244.912L189.178 244.303ZM191.619 240.694L193.451 237.988L194.355 238.596L192.524 241.302L191.619 240.694ZM190.987 245.519L192.818 242.813L193.723 243.422L191.892 246.129L190.987 245.519ZM193.428 241.911L195.26 239.204L196.164 239.814L194.333 242.52L193.428 241.911Z" fill="black"/>
<path d="M168.302 230.022C168.302 231.165 168.528 232.298 168.967 233.354C169.406 234.41 170.048 235.37 170.859 236.178C171.67 236.986 172.632 237.627 173.692 238.065C174.751 238.503 175.886 238.729 177.033 238.729C178.18 238.729 179.315 238.503 180.374 238.065C181.433 237.627 182.396 236.986 183.207 236.178C184.018 235.37 184.66 234.41 185.099 233.354C185.538 232.298 185.764 231.165 185.764 230.022C185.764 227.713 184.845 225.499 183.207 223.866C181.569 222.233 179.348 221.316 177.033 221.316C174.717 221.316 172.497 222.233 170.859 223.866C169.221 225.499 168.302 227.713 168.302 230.022Z" fill="#D80027"/>
<path d="M185.764 230.022C185.764 232.33 184.845 234.545 183.207 236.178C181.569 237.811 179.348 238.729 177.033 238.729C174.717 238.729 172.497 237.811 170.859 236.178C169.221 234.545 168.302 232.33 168.302 230.022C168.302 231.177 168.761 232.284 169.58 233.1C170.399 233.917 171.509 234.375 172.667 234.375C173.825 234.375 174.935 233.917 175.754 233.1C176.573 232.284 177.033 231.177 177.033 230.022C177.033 228.868 177.493 227.761 178.311 226.944C179.131 226.128 180.24 225.67 181.398 225.67C182.557 225.67 183.666 226.128 184.485 226.944C185.304 227.761 185.764 228.867 185.764 230.022Z" fill="#0052B4"/>
<path d="M337.718 204.66C339.014 203.526 340.68 202.901 342.404 202.901H498.556C505.115 202.901 508.175 211.005 503.244 215.317L360.4 340.248C359.103 341.382 357.438 342.007 355.713 342.007H199.562C193.002 342.007 189.943 333.903 194.875 329.59L337.718 204.66Z" fill="url(#paint1_linear_37_350)"/>
<path d="M354.224 25.6948C358.15 25.6948 361.332 28.8683 361.332 32.783V334.918C361.332 338.834 358.15 342.007 354.224 342.007H190.007C186.081 342.007 182.899 338.834 182.899 334.918V32.783C182.899 28.8683 186.081 25.6948 190.007 25.6948H354.224Z" fill="#E2E8F0"/>
<path d="M343.209 36.6774C347.135 36.6774 350.317 39.8509 350.317 43.7656V323.935C350.317 327.85 347.135 331.023 343.209 331.023H201.022C197.096 331.023 193.912 327.85 193.912 323.935V43.7656C193.912 39.8509 197.096 36.6774 201.022 36.6774H343.209Z" fill="white"/>
<path d="M257.797 46.563C257.797 44.7433 259.276 43.268 261.101 43.268H280.927C282.751 43.268 284.232 44.7433 284.232 46.563C284.232 48.3826 282.751 49.8579 280.927 49.8579H261.101C259.276 49.8579 257.797 48.3826 257.797 46.563Z" fill="#E2E8F0"/>
<path d="M204.927 68.5288C204.927 65.4958 207.393 63.0372 210.434 63.0372H331.593C334.634 63.0372 337.1 65.4958 337.1 68.5288C337.1 71.5617 334.634 74.0203 331.593 74.0203H210.434C207.393 74.0203 204.927 71.5617 204.927 68.5288Z" fill="#E2E8F0"/>
<path d="M204.927 189.343C204.927 186.31 207.393 183.851 210.434 183.851H241.275C244.316 183.851 246.782 186.31 246.782 189.343C246.782 192.375 244.316 194.834 241.275 194.834H210.434C207.393 194.834 204.927 192.375 204.927 189.343Z" fill="#E2E8F0"/>
<path d="M204.927 239.865C204.927 236.833 207.393 234.374 210.434 234.374H241.275C244.316 234.374 246.782 236.833 246.782 239.865C246.782 242.898 244.316 245.357 241.275 245.357H210.434C207.393 245.357 204.927 242.898 204.927 239.865Z" fill="#E2E8F0"/>
<path d="M204.927 290.386C204.927 287.353 207.393 284.894 210.434 284.894H241.275C244.316 284.894 246.782 287.353 246.782 290.386C246.782 293.419 244.316 295.878 241.275 295.878H210.434C207.393 295.878 204.927 293.419 204.927 290.386Z" fill="#E2E8F0"/>
<path d="M204.927 206.916C204.927 203.883 207.393 201.424 210.434 201.424H269.913C272.953 201.424 275.419 203.883 275.419 206.916C275.419 209.948 272.953 212.407 269.913 212.407H210.434C207.393 212.407 204.927 209.948 204.927 206.916Z" fill="#E2E8F0"/>
<path d="M204.927 257.436C204.927 254.404 207.393 251.946 210.434 251.946H269.913C272.953 251.946 275.419 254.404 275.419 257.436C275.419 260.47 272.953 262.928 269.913 262.928H210.434C207.393 262.928 204.927 260.47 204.927 257.436Z" fill="#E2E8F0"/>
<path d="M204.927 307.959C204.927 304.926 207.393 302.467 210.434 302.467H269.913C272.953 302.467 275.419 304.926 275.419 307.959C275.419 310.992 272.953 313.451 269.913 313.451H210.434C207.393 313.451 204.927 310.992 204.927 307.959Z" fill="#E2E8F0"/>
<path d="M204.927 222.291C204.927 219.26 207.393 216.801 210.434 216.801H239.072C242.113 216.801 244.579 219.26 244.579 222.291C244.579 225.325 242.113 227.783 239.072 227.783H210.434C207.393 227.783 204.927 225.325 204.927 222.291Z" fill="#E2E8F0"/>
<path d="M204.927 272.814C204.927 269.781 207.393 267.322 210.434 267.322H239.072C242.113 267.322 244.579 269.781 244.579 272.814C244.579 275.847 242.113 278.306 239.072 278.306H210.434C207.393 278.306 204.927 275.847 204.927 272.814Z" fill="#E2E8F0"/>
<path d="M204.927 323.335C204.927 320.302 207.393 317.843 210.434 317.843H239.072C242.113 317.843 244.579 320.302 244.579 323.335C244.579 326.367 242.113 328.826 239.072 328.826H210.434C207.393 328.826 204.927 326.367 204.927 323.335Z" fill="#E2E8F0"/>
<path d="M204.927 82.3826C204.927 81.4038 205.723 80.6105 206.705 80.6105H335.323C336.304 80.6105 337.1 81.4038 337.1 82.3826V142.54C337.1 143.519 336.304 144.312 335.323 144.312H206.705C205.723 144.312 204.927 143.519 204.927 142.54V82.3826Z" fill="#E2E8F0"/>
<path d="M204.927 152.674C204.927 151.695 205.723 150.902 206.705 150.902H227.382C228.364 150.902 229.158 151.695 229.158 152.674V173.293C229.158 174.272 228.364 175.065 227.382 175.065H206.705C205.723 175.065 204.927 174.272 204.927 173.293V152.674Z" fill="#E2E8F0"/>
<path d="M286.433 185.624C286.433 184.645 287.229 183.851 288.211 183.851H335.323C336.305 183.851 337.1 184.645 337.1 185.624V226.011C337.1 226.99 336.305 227.783 335.323 227.783H288.211C287.229 227.783 286.433 226.99 286.433 226.011V185.624Z" fill="#E2E8F0"/>
<path d="M286.433 236.145C286.433 235.167 287.229 234.374 288.211 234.374H335.323C336.305 234.374 337.1 235.167 337.1 236.145V276.534C337.1 277.513 336.305 278.306 335.323 278.306H288.211C287.229 278.306 286.433 277.513 286.433 276.534V236.145Z" fill="#E2E8F0"/>
<path d="M286.433 286.666C286.433 285.687 287.229 284.894 288.211 284.894H335.323C336.305 284.894 337.1 285.687 337.1 286.666V327.055C337.1 328.033 336.305 328.826 335.323 328.826H288.211C287.229 328.826 286.433 328.033 286.433 327.055V286.666Z" fill="#E2E8F0"/>
<path d="M275.418 152.674C275.418 151.695 276.214 150.902 277.196 150.902H297.873C298.855 150.902 299.651 151.695 299.651 152.674V173.293C299.651 174.272 298.855 175.065 297.873 175.065H277.196C276.214 175.065 275.418 174.272 275.418 173.293V152.674Z" fill="#E2E8F0"/>
<path d="M312.868 152.674C312.868 151.695 313.664 150.902 314.645 150.902H335.323C336.304 150.902 337.1 151.695 337.1 152.674V173.293C337.1 174.272 336.304 175.065 335.323 175.065H314.645C313.664 175.065 312.868 174.272 312.868 173.293V152.674Z" fill="#E2E8F0"/>
<path d="M237.971 152.674C237.971 151.695 238.765 150.902 239.747 150.902H260.424C261.406 150.902 262.202 151.695 262.202 152.674V173.293C262.202 174.272 261.406 175.065 260.424 175.065H239.747C238.765 175.065 237.971 174.272 237.971 173.293V152.674Z" fill="#E2E8F0"/>
<path d="M204.927 109.664C204.927 105.749 208.109 102.576 212.035 102.576H329.992C333.917 102.576 337.1 105.749 337.1 109.664V262.43C337.1 266.344 333.917 269.517 329.992 269.517H212.035C208.109 269.517 204.927 266.344 204.927 262.43V109.664Z" fill="white"/>
<path d="M301.854 166.278C301.854 183.262 288.046 197.029 271.014 197.029C253.981 197.029 240.173 183.262 240.173 166.278C240.173 149.293 253.981 135.525 271.014 135.525C288.046 135.525 301.854 149.293 301.854 166.278Z" fill="url(#paint2_linear_37_350)"/>
<path d="M262.732 153.098V179.457H255.594V153.098H262.732Z" fill="white"/>
<path d="M269.731 179.457V153.098H281.082C283.034 153.098 284.74 153.484 286.204 154.256C287.668 155.029 288.806 156.114 289.62 157.513C290.434 158.91 290.84 160.546 290.84 162.417C290.84 164.304 290.42 165.939 289.581 167.32C288.751 168.701 287.583 169.765 286.076 170.512C284.578 171.258 282.827 171.632 280.825 171.632H274.045V166.071H279.386C280.225 166.071 280.941 165.925 281.531 165.633C282.129 165.334 282.588 164.909 282.905 164.359C283.23 163.81 283.392 163.163 283.392 162.417C283.392 161.661 283.23 161.018 282.905 160.485C282.588 159.945 282.129 159.533 281.531 159.25C280.941 158.958 280.225 158.812 279.386 158.812H276.871V179.457H269.731Z" fill="white"/>
<path d="M246.782 215.701C246.782 212.668 249.248 210.21 252.29 210.21H283.129C286.172 210.21 288.637 212.668 288.637 215.701C288.637 218.734 286.172 221.193 283.129 221.193H252.29C249.248 221.193 246.782 218.734 246.782 215.701Z" fill="#E2E8F0"/>
<path d="M277.622 215.702C277.622 211.456 281.075 208.013 285.332 208.013C289.59 208.013 293.043 211.456 293.043 215.702C293.043 219.947 289.59 223.39 285.332 223.39C281.075 223.39 277.622 219.947 277.622 215.702Z" fill="#00DFD8"/>
<path d="M376.411 92.7615C394.481 92.7615 414.819 97.7923 414.819 103.997C414.819 110.202 381.984 121.093 367.876 121.093C353.768 121.093 343.692 110.202 343.692 103.997C343.692 97.7923 358.341 92.7615 376.411 92.7615Z" fill="url(#paint3_linear_37_350)"/>
<path d="M399.163 71.1035C399.163 89.3304 370.125 108.751 365.67 126.085C361.196 108.751 332.176 89.3304 332.176 71.1035C332.176 52.8756 347.172 38.0992 365.67 38.0992C384.169 38.0992 399.163 52.8756 399.163 71.1035Z" fill="white"/>
<path d="M365.231 95.5127C378.925 95.5127 390.024 84.4443 390.024 70.7905C390.024 57.1368 378.925 46.0682 365.231 46.0682C351.538 46.0682 340.439 57.1368 340.439 70.7905C340.439 84.4443 351.538 95.5127 365.231 95.5127Z" fill="#00DFD8"/>
<path fill-rule="evenodd" clip-rule="evenodd" d="M332.176 46.2319H398.293V95.6765H332.176V46.2319Z" fill="white"/>
<path fill-rule="evenodd" clip-rule="evenodd" d="M332.176 46.2319H354.216V95.6765H332.176V46.2319Z" fill="#009246"/>
<path fill-rule="evenodd" clip-rule="evenodd" d="M376.253 46.2319H398.291V95.6765H376.253V46.2319Z" fill="#CE2B37"/>
<path d="M235.607 352.996C252.419 352.996 271.344 357.677 271.344 363.449C271.344 369.222 240.792 379.355 227.666 379.355C214.539 379.355 205.163 369.222 205.163 363.449C205.163 357.677 218.793 352.996 235.607 352.996Z" fill="url(#paint4_linear_37_350)"/>
<path d="M256.777 332.843C256.777 349.803 229.759 367.872 225.613 384C221.452 367.872 194.449 349.803 194.449 332.843C194.449 315.885 208.402 302.135 225.613 302.135C242.825 302.135 256.777 315.885 256.777 332.843Z" fill="white"/>
<path d="M225.205 355.554C237.946 355.554 248.273 345.256 248.273 332.553C248.273 319.848 237.946 309.55 225.205 309.55C212.465 309.55 202.137 319.848 202.137 332.553C202.137 345.256 212.465 355.554 225.205 355.554Z" fill="#00DFD8"/>
<path d="M224.942 356.714C238.33 356.714 249.181 345.893 249.181 332.544C249.181 319.196 238.33 308.374 224.942 308.374C211.556 308.374 200.703 319.196 200.703 332.544C200.703 345.893 211.556 356.714 224.942 356.714Z" fill="white"/>
<path d="M249.18 332.544C249.18 322.962 243.59 314.682 235.482 310.774V354.316C243.59 350.407 249.18 342.126 249.18 332.544Z" fill="#D80027"/>
<path d="M200.703 332.544C200.703 342.126 206.297 350.407 214.403 354.316V310.774C206.297 314.682 200.703 322.962 200.703 332.544ZM218.619 332.544C218.619 336.027 221.45 338.849 224.942 338.849C228.435 338.849 231.266 336.027 231.266 332.544V330.442H218.619V332.544Z" fill="#6DA544"/>
<path d="M233.372 328.341H227.05C227.05 327.18 226.107 326.239 224.942 326.239C223.778 326.239 222.835 327.18 222.835 328.341H216.511C216.511 329.502 217.526 330.442 218.689 330.442H218.619C218.619 331.603 219.562 332.544 220.727 332.544C220.727 333.705 221.67 334.646 222.835 334.646H227.05C228.215 334.646 229.158 333.705 229.158 332.544C230.321 332.544 231.266 331.603 231.266 330.442H231.195C232.359 330.442 233.372 329.502 233.372 328.341Z" fill="#FF9811"/>
<path d="M361.025 269.695C376.076 269.695 393.018 273.886 393.018 279.053C393.018 284.223 365.667 293.294 353.916 293.294C342.164 293.294 333.771 284.223 333.771 279.053C333.771 273.886 345.973 269.695 361.025 269.695Z" fill="url(#paint5_linear_37_350)"/>
<path d="M379.977 251.657C379.977 266.838 355.789 283.015 352.078 297.453C348.352 283.015 324.178 266.838 324.178 251.657C324.178 236.473 336.67 224.165 352.078 224.165C367.486 224.165 379.977 236.473 379.977 251.657Z" fill="white"/>
<path d="M351.712 271.988C363.118 271.988 372.364 262.768 372.364 251.395C372.364 240.022 363.118 230.803 351.712 230.803C340.308 230.803 331.062 240.022 331.062 251.395C331.062 262.768 340.308 271.988 351.712 271.988Z" fill="#00DFD8"/>
<path d="M351.935 273.283C364.243 273.283 374.219 263.335 374.219 251.063C374.219 238.791 364.243 228.843 351.935 228.843C339.628 228.843 329.652 238.791 329.652 251.063C329.652 263.335 339.628 273.283 351.935 273.283Z" fill="#6DA544"/>
<path d="M351.936 237.538L370.344 251.063L351.936 264.588L333.527 251.063L351.936 237.538Z" fill="#FFDA44"/>
<path d="M351.935 258.792C356.217 258.792 359.686 255.332 359.686 251.063C359.686 246.794 356.217 243.334 351.935 243.334C347.655 243.334 344.185 246.794 344.185 251.063C344.185 255.332 347.655 258.792 351.935 258.792Z" fill="#F0F0F0"/>
<path d="M348.06 250.579C346.712 250.579 345.412 250.785 344.188 251.164C344.241 255.385 347.69 258.792 351.936 258.792C354.563 258.792 356.881 257.488 358.283 255.495C355.884 252.502 352.193 250.579 348.06 250.579ZM359.543 252.544C359.639 252.056 359.686 251.56 359.686 251.063C359.686 246.794 356.217 243.334 351.936 243.334C348.741 243.334 346 245.261 344.814 248.012C345.863 247.796 346.949 247.682 348.06 247.682C352.562 247.682 356.635 249.548 359.543 252.544Z" fill="#0052B4"/>
<path d="M502.436 300.328C521.17 300.328 542.256 305.545 542.256 311.978C542.256 318.41 508.212 329.701 493.587 329.701C478.96 329.701 468.514 318.41 468.514 311.978C468.514 305.545 483.702 300.328 502.436 300.328Z" fill="url(#paint6_linear_37_350)"/>
<path d="M526.024 277.876C526.024 296.773 495.918 316.907 491.3 334.878C486.662 316.907 456.574 296.773 456.574 277.876C456.574 258.977 472.121 243.658 491.3 243.658C510.478 243.658 526.024 258.977 526.024 277.876Z" fill="white"/>
<path d="M490.845 303.18C505.041 303.18 516.549 291.705 516.549 277.549C516.549 263.394 505.041 251.917 490.845 251.917C476.648 251.917 465.141 263.394 465.141 277.549C465.141 291.705 476.648 303.18 490.845 303.18Z" fill="#00DFD8"/>
<path d="M464.555 287.199C468.477 297.738 478.651 305.25 490.585 305.25C502.521 305.25 512.695 297.738 516.616 287.199L490.585 284.793L464.555 287.199Z" fill="#FFDA44"/>
<path d="M490.585 249.893C478.651 249.893 468.477 257.405 464.555 267.944L490.585 270.351L516.616 267.944C512.695 257.405 502.521 249.893 490.585 249.893Z" fill="black"/>
<path d="M464.555 267.944C463.439 270.945 462.829 274.186 462.829 277.573C462.829 280.957 463.439 284.2 464.555 287.199H516.616C517.732 284.2 518.343 280.957 518.343 277.573C518.343 274.186 517.732 270.945 516.616 267.944H464.555Z" fill="#D80027"/>
<path d="M182.216 47.4679C197.908 47.4679 215.57 51.8367 215.57 57.2249C215.57 62.613 187.054 72.0707 174.803 72.0707C162.552 72.0707 153.802 62.613 153.802 57.2249C153.802 51.8367 166.524 47.4679 182.216 47.4679Z" fill="url(#paint7_linear_37_350)"/>
<path d="M201.974 28.661C201.974 44.4891 176.756 61.3544 172.888 76.4068C169.004 61.3544 143.802 44.4891 143.802 28.661C143.802 12.8318 156.824 0 172.888 0C188.952 0 201.974 12.8318 201.974 28.661Z" fill="white"/>
<path d="M172.507 49.8573C184.398 49.8573 194.037 40.2454 194.037 28.3886C194.037 16.5318 184.398 6.9198 172.507 6.9198C160.616 6.9198 150.978 16.5318 150.978 28.3886C150.978 40.2454 160.616 49.8573 172.507 49.8573Z" fill="#00DFD8"/>
<path d="M172.732 49.8984C184.822 49.8984 194.625 40.1246 194.625 28.0679C194.625 16.0112 184.822 6.23737 172.732 6.23737C160.64 6.23737 150.84 16.0112 150.84 28.0679C150.84 40.1246 160.64 49.8984 172.732 49.8984Z" fill="white"/>
<path d="M172.732 42.6213C180.792 42.6213 187.326 36.1054 187.326 28.0676C187.326 20.0299 180.792 13.514 172.732 13.514C164.67 13.514 158.136 20.0299 158.136 28.0676C158.136 36.1054 164.67 42.6213 172.732 42.6213Z" fill="#D80027"/>
<path d="M424.009 190.921C439.379 190.921 456.681 195.201 456.681 200.479C456.681 205.757 428.748 215.022 416.747 215.022C404.746 215.022 396.174 205.757 396.174 200.479C396.174 195.201 408.637 190.921 424.009 190.921Z" fill="url(#paint8_linear_37_350)"/>
<path d="M443.363 172.498C443.363 188.004 418.66 204.525 414.871 219.27C411.066 204.525 386.378 188.004 386.378 172.498C386.378 156.992 399.135 144.423 414.871 144.423C430.606 144.423 443.363 156.992 443.363 172.498Z" fill="white"/>
<path d="M414.498 193.262C426.145 193.262 435.587 183.847 435.587 172.231C435.587 160.618 426.145 151.201 414.498 151.201C402.849 151.201 393.407 160.618 393.407 172.231C393.407 183.847 402.849 193.262 414.498 193.262Z" fill="#00DFD8"/>
<path d="M414.916 193.542C426.792 193.542 436.419 183.942 436.419 172.1C436.419 160.259 426.792 150.66 414.916 150.66C403.042 150.66 393.415 160.259 393.415 172.1C393.415 183.942 403.042 193.542 414.916 193.542Z" fill="#F0F0F0"/>
<path d="M397.858 159.047C396.171 161.238 394.896 163.764 394.156 166.509H405.341L397.858 159.047ZM435.676 166.509C434.936 163.764 433.662 161.238 431.974 159.047L424.492 166.509H435.676ZM394.156 177.694C394.896 180.438 396.17 182.964 397.858 185.155L405.34 177.694H394.156ZM428.007 155.093C425.809 153.408 423.277 152.138 420.524 151.399V162.553L428.007 155.093ZM401.826 189.11C404.023 190.793 406.555 192.064 409.307 192.804V181.65L401.826 189.11ZM409.307 151.399C406.555 152.138 404.023 153.408 401.826 155.093L409.307 162.553V151.399ZM420.524 192.804C423.277 192.064 425.809 190.794 428.007 189.11L420.524 181.65V192.804ZM424.492 177.694L431.974 185.155C433.662 182.964 434.936 180.438 435.676 177.694H424.492Z" fill="#0052B4"/>
<path d="M436.236 169.304H417.722V150.842C416.802 150.723 415.867 150.66 414.916 150.66C413.965 150.66 413.03 150.723 412.112 150.842V169.304H393.596C393.477 170.219 393.415 171.154 393.415 172.1C393.415 173.049 393.477 173.982 393.596 174.899H412.112V193.36C413.042 193.481 413.979 193.542 414.916 193.542C415.855 193.542 416.791 193.481 417.722 193.36V174.897H436.236C436.358 173.97 436.419 173.037 436.419 172.1C436.419 171.166 436.358 170.231 436.236 169.304ZM420.526 177.694L430.122 187.263C430.562 186.822 430.983 186.362 431.385 185.886L423.17 177.694H420.526ZM409.308 177.694L399.712 187.263C400.154 187.702 400.615 188.121 401.093 188.522L409.308 180.331V177.694ZM409.308 166.507L399.712 156.94C399.272 157.38 398.851 157.84 398.449 158.317L406.663 166.507H409.308ZM420.526 166.507L430.122 156.94C429.68 156.499 429.219 156.08 428.741 155.679L420.526 163.871V166.507Z" fill="#D80027"/>
<path d="M498.676 137.874C511.156 137.874 525.203 141.349 525.203 145.634C525.203 149.919 502.525 157.441 492.782 157.441C483.038 157.441 476.079 149.919 476.079 145.634C476.079 141.349 486.196 137.874 498.676 137.874Z" fill="url(#paint9_linear_37_350)"/>
<path d="M514.391 122.916C514.391 135.504 494.335 148.918 491.259 160.889C488.169 148.918 468.125 135.504 468.125 122.916C468.125 110.326 478.483 100.121 491.259 100.121C504.033 100.121 514.391 110.326 514.391 122.916Z" fill="white"/>
<path d="M490.955 139.774C500.412 139.774 508.078 132.13 508.078 122.7C508.078 113.27 500.412 105.626 490.955 105.626C481.498 105.626 473.832 113.27 473.832 122.7C473.832 132.13 481.498 139.774 490.955 139.774Z" fill="#00DFD8"/>
<path d="M490.801 140.665C500.734 140.665 508.785 132.637 508.785 122.733C508.785 112.829 500.734 104.801 490.801 104.801C480.869 104.801 472.818 112.829 472.818 122.733C472.818 132.637 480.869 140.665 490.801 140.665Z" fill="white"/>
<path d="M508.785 122.733C508.785 115.023 503.904 108.45 497.056 105.916V139.55C503.904 137.016 508.785 130.443 508.785 122.733Z" fill="#D80027"/>
<path d="M472.818 122.733C472.818 130.443 477.699 137.016 484.546 139.55V105.916C477.699 108.45 472.818 115.023 472.818 122.733Z" fill="#0052B4"/>
<path d="M75.8284 87.5389C86.8998 87.5389 99.3614 90.6213 99.3614 94.4229C99.3614 98.2245 79.2424 104.897 70.5989 104.897C61.9549 104.897 55.7812 98.2245 55.7812 94.4229C55.7812 90.6213 64.757 87.5389 75.8284 87.5389Z" fill="url(#paint10_linear_37_350)"/>
<path d="M89.7688 74.2693C89.7688 85.4369 71.9773 97.3361 69.2478 107.956C66.5069 97.3361 48.7261 85.4369 48.7261 74.2693C48.7261 63.1012 57.9141 54.0477 69.2478 54.0477C80.5816 54.0477 89.7688 63.1012 89.7688 74.2693Z" fill="white"/>
<path d="M68.9788 89.224C77.3684 89.224 84.1694 82.4424 84.1694 74.0767C84.1694 65.7112 77.3684 58.9296 68.9788 58.9296C60.5894 58.9296 53.7883 65.7112 53.7883 74.0767C53.7883 82.4424 60.5894 89.224 68.9788 89.224Z" fill="#00DFD8"/>
<path d="M69.0546 90.0709C78.123 90.0709 85.4743 82.7405 85.4743 73.6979C85.4743 64.6555 78.123 57.3251 69.0546 57.3251C59.9863 57.3251 52.635 64.6555 52.635 73.6979C52.635 82.7405 59.9863 90.0709 69.0546 90.0709Z" fill="white"/>
<path d="M77.0925 59.5081V87.8878C82.118 85.0828 85.4684 79.803 85.4684 73.698C85.6359 67.5931 82.118 62.3131 77.0925 59.5081ZM75.2497 71.2231C73.072 71.5531 72.9045 71.883 72.9045 70.3981C72.2345 71.058 71.3968 72.3781 70.8942 72.708C70.5592 73.038 70.3917 72.708 70.5592 72.543C70.5592 72.3781 71.7319 70.0681 71.7319 68.913C70.5592 69.738 70.0567 69.2431 68.8841 66.603C67.8789 69.0781 67.2088 69.5731 66.0363 68.913C66.2038 70.233 67.2088 72.3781 67.2088 72.543C67.2088 72.708 67.2088 73.038 66.8738 72.708C66.3713 72.3781 65.5337 70.8931 64.8637 70.3981C65.0312 71.883 64.6962 71.5531 62.5184 71.2231C62.6859 72.873 63.3559 73.5331 62.0158 73.863C65.1987 76.668 65.3662 76.8329 64.1936 78.153C66.7063 77.823 68.214 77.1629 68.214 77.1629C68.3816 77.1629 68.3816 77.328 68.3816 77.328V81.1229H69.3866V77.328C69.3866 77.1629 69.3866 76.998 69.5541 77.1629C69.5541 77.1629 70.8942 77.823 73.5746 78.153C72.402 76.998 72.5695 76.668 75.7524 73.863C74.5796 73.5331 75.0822 72.873 75.2497 71.2231ZM61.0107 59.5081V87.8878C55.9851 85.0828 52.635 79.803 52.635 73.698C52.635 67.5931 55.9851 62.3131 61.0107 59.5081Z" fill="#EB0000"/>
<path d="M134.023 188.145C155.799 188.145 180.31 194.209 180.31 201.686C180.31 209.162 140.738 222.288 123.737 222.288C106.735 222.288 94.5918 209.162 94.5918 201.686C94.5918 194.209 112.246 188.145 134.023 188.145Z" fill="url(#paint11_linear_37_350)"/>
<path d="M161.442 162.047C161.442 184.012 126.448 207.417 121.079 228.306C115.688 207.417 80.7141 184.012 80.7141 162.047C80.7141 140.079 98.7862 122.272 121.079 122.272C143.371 122.272 161.442 140.079 161.442 162.047Z" fill="white"/>
<path d="M120.549 191.461C137.051 191.461 150.428 178.122 150.428 161.668C150.428 145.214 137.051 131.875 120.549 131.875C104.048 131.875 90.6709 145.214 90.6709 161.668C90.6709 178.122 104.048 191.461 120.549 191.461Z" fill="#00DFD8"/>
<path d="M120.98 192.441C138.038 192.441 151.865 178.652 151.865 161.645C151.865 144.636 138.038 130.848 120.98 130.848C103.923 130.848 90.0959 144.636 90.0959 161.645C90.0959 178.652 103.923 192.441 120.98 192.441Z" fill="white"/>
<path d="M119.637 161.645H151.865C151.866 158.931 151.508 156.23 150.801 153.61H119.637V161.645ZM119.637 145.576H147.332C145.443 142.506 143.031 139.787 140.205 137.543H119.637V145.576ZM120.981 192.441C128.249 192.441 134.929 189.936 140.205 185.746H101.755C107.03 189.936 113.712 192.441 120.981 192.441ZM94.6284 177.712H147.332C148.849 175.242 150.026 172.543 150.801 169.679H91.1594C91.9336 172.543 93.1105 175.242 94.6284 177.712Z" fill="#D80027"/>
<path d="M104.402 135.657H107.217L104.599 137.553L105.599 140.622L102.981 138.726L100.363 140.622L101.227 137.971C98.922 139.886 96.9016 142.129 95.2368 144.628H96.1386L94.4721 145.835C94.2123 146.268 93.9631 146.707 93.7248 147.151L94.5206 149.593L93.036 148.518C92.6668 149.297 92.3294 150.095 92.0261 150.909L92.9027 153.6H96.1386L93.5207 155.496L94.5207 158.565L91.9029 156.668L90.3349 157.805C90.1758 159.079 90.0959 160.36 90.0959 161.645H120.98V130.848C114.879 130.848 109.192 132.612 104.402 135.657ZM105.599 158.565L102.981 156.668L100.363 158.565L101.363 155.496L98.7451 153.598H101.981L102.981 150.531L103.981 153.598H107.217L104.599 155.496L105.599 158.565ZM104.599 146.525L105.599 149.593L102.981 147.697L100.363 149.593L101.363 146.525L98.7451 144.628H101.981L102.981 141.559L103.981 144.628H107.217L104.599 146.525ZM116.677 158.565L114.059 156.668L111.441 158.565L112.441 155.496L109.823 153.598H113.059L114.059 150.531L115.059 153.598H118.295L115.677 155.496L116.677 158.565ZM115.677 146.525L116.677 149.593L114.059 147.697L111.441 149.593L112.441 146.525L109.823 144.628H113.059L114.059 141.559L115.059 144.628H118.295L115.677 146.525ZM115.677 137.553L116.677 140.622L114.059 138.726L111.441 140.622L112.441 137.553L109.823 135.657H113.059L114.059 132.588L115.059 135.657H118.295L115.677 137.553Z" fill="#0052B4"/>
<path d="M37.1534 303.711C52.0268 303.711 68.7676 307.852 68.7676 312.96C68.7676 318.067 41.7399 327.031 30.1283 327.031C18.5159 327.031 10.2222 318.067 10.2222 312.96C10.2222 307.852 22.2801 303.711 37.1534 303.711Z" fill="url(#paint12_linear_37_350)"/>
<path d="M55.8809 285.886C55.8809 300.888 31.9798 316.874 28.3128 331.14C24.6307 316.874 0.743896 300.888 0.743896 285.886C0.743896 270.882 13.0871 258.721 28.3128 258.721C43.5385 258.721 55.8809 270.882 55.8809 285.886Z" fill="white"/>
<path d="M27.9511 305.977C39.2216 305.977 48.3581 296.866 48.3581 285.628C48.3581 274.39 39.2216 265.279 27.9511 265.279C16.6807 265.279 7.54419 274.39 7.54419 285.628C7.54419 296.866 16.6807 305.977 27.9511 305.977Z" fill="#00DFD8"/>
<path d="M28.075 306.32C39.5423 306.32 48.8384 297.051 48.8384 285.617C48.8384 274.182 39.5423 264.912 28.075 264.912C16.6079 264.912 7.31177 274.182 7.31177 285.617C7.31177 297.051 16.6079 306.32 28.075 306.32Z" fill="white"/>
<path d="M28.0751 264.912C19.8433 264.912 12.7295 269.689 9.37183 276.615H46.7778C43.4203 269.689 36.307 264.912 28.0751 264.912Z" fill="#FF9811"/>
<path d="M28.0751 306.32C36.307 306.32 43.4203 301.543 46.7778 294.617H9.37183C12.7295 301.543 19.8433 306.32 28.0751 306.32Z" fill="#6DA544"/>
<path d="M28.0749 292.818C32.0635 292.818 35.297 289.594 35.297 285.617C35.297 281.64 32.0635 278.416 28.0749 278.416C24.0863 278.416 20.853 281.64 20.853 285.617C20.853 289.594 24.0863 292.818 28.0749 292.818Z" fill="#0052B4"/>
<path d="M28.0743 290.118C30.5672 290.118 32.588 288.103 32.588 285.617C32.588 283.131 30.5672 281.116 28.0743 281.116C25.5814 281.116 23.5605 283.131 23.5605 285.617C23.5605 288.103 25.5814 290.118 28.0743 290.118Z" fill="#F0F0F0"/>
<path d="M28.0746 280.062L29.4672 283.212L32.8984 282.84L30.8595 285.617L32.8982 288.393L29.4672 288.022L28.0746 291.17L26.682 288.021L23.251 288.393L25.2897 285.617L23.251 282.84L26.6821 283.212L28.0746 280.062Z" fill="#0052B4"/>
<path d="M318.362 227.721H224.638C218.887 227.721 214.225 232.386 214.225 238.14C214.225 243.894 218.887 248.558 224.638 248.558H318.362C324.113 248.558 328.775 243.894 328.775 238.14C328.775 232.386 324.113 227.721 318.362 227.721Z" fill="#00DFD8"/>
<path d="M224.192 235.922C224.479 235.803 224.777 235.669 225.085 235.52C225.401 235.361 225.709 235.193 226.007 235.014C226.304 234.825 226.587 234.631 226.855 234.434C227.133 234.225 227.38 234.006 227.599 233.779H229.146V244.093H226.929V236.666C226.632 236.864 226.3 237.049 225.932 237.217C225.565 237.376 225.208 237.514 224.861 237.634L224.192 235.922ZM239.491 241.221C239.491 241.667 239.411 242.079 239.253 242.456C239.104 242.823 238.875 243.145 238.569 243.423C238.261 243.702 237.874 243.919 237.408 244.078C236.952 244.227 236.421 244.301 235.817 244.301C235.122 244.301 234.542 244.208 234.076 244.019C233.619 243.821 233.247 243.577 232.96 243.289C232.682 243.002 232.484 242.69 232.365 242.352C232.246 242.005 232.187 241.686 232.187 241.399C232.187 241.101 232.225 240.829 232.306 240.581C232.385 240.332 232.493 240.109 232.633 239.911C232.771 239.702 232.925 239.513 233.094 239.345C233.273 239.177 233.46 239.018 233.659 238.869C233.232 238.522 232.916 238.18 232.707 237.842C232.508 237.504 232.41 237.072 232.41 236.547C232.41 236.15 232.489 235.769 232.648 235.401C232.816 235.033 233.049 234.716 233.347 234.448C233.645 234.17 234.002 233.953 234.418 233.794C234.844 233.625 235.315 233.541 235.831 233.541C236.435 233.541 236.952 233.63 237.379 233.808C237.814 233.977 238.172 234.195 238.45 234.463C238.726 234.731 238.926 235.033 239.045 235.371C239.173 235.699 239.238 236.026 239.238 236.354C239.238 236.83 239.109 237.276 238.851 237.693C238.603 238.099 238.291 238.422 237.914 238.661C238.479 239.028 238.881 239.415 239.119 239.821C239.366 240.219 239.491 240.685 239.491 241.221ZM234.344 241.31C234.344 241.429 234.368 241.563 234.418 241.712C234.478 241.85 234.567 241.98 234.686 242.099C234.805 242.218 234.958 242.317 235.147 242.396C235.335 242.475 235.564 242.515 235.831 242.515C236.346 242.515 236.724 242.392 236.962 242.143C237.2 241.895 237.319 241.618 237.319 241.31C237.319 241.082 237.264 240.878 237.155 240.7C237.056 240.521 236.917 240.368 236.739 240.238C236.56 240.1 236.346 239.981 236.099 239.881C235.861 239.772 235.602 239.673 235.326 239.583C235.047 239.792 234.814 240.034 234.626 240.313C234.437 240.591 234.344 240.923 234.344 241.31ZM237.096 236.413C237.096 236.304 237.071 236.19 237.022 236.071C236.981 235.941 236.907 235.822 236.798 235.714C236.699 235.605 236.569 235.516 236.412 235.446C236.252 235.367 236.059 235.327 235.831 235.327C235.613 235.327 235.424 235.361 235.266 235.431C235.107 235.501 234.973 235.594 234.864 235.714C234.765 235.822 234.69 235.941 234.641 236.071C234.591 236.2 234.567 236.324 234.567 236.443C234.567 236.76 234.68 237.058 234.909 237.336C235.147 237.614 235.549 237.852 236.114 238.05C236.431 237.852 236.673 237.623 236.843 237.366C237.011 237.108 237.096 236.79 237.096 236.413ZM248.005 238.914C248.005 240.65 247.673 241.984 247.008 242.917C246.354 243.84 245.446 244.301 244.286 244.301C243.125 244.301 242.214 243.84 241.549 242.917C240.894 241.984 240.567 240.65 240.567 238.914C240.567 238.05 240.651 237.287 240.82 236.621C240.998 235.956 241.251 235.397 241.578 234.94C241.906 234.483 242.298 234.136 242.754 233.898C243.21 233.66 243.721 233.541 244.286 233.541C245.446 233.541 246.354 234.006 247.008 234.94C247.673 235.862 248.005 237.187 248.005 238.914ZM245.744 238.914C245.744 238.397 245.72 237.931 245.669 237.514C245.62 237.087 245.541 236.721 245.431 236.413C245.323 236.105 245.174 235.867 244.985 235.699C244.798 235.53 244.564 235.446 244.286 235.446C244.009 235.446 243.776 235.53 243.587 235.699C243.408 235.867 243.259 236.105 243.14 236.413C243.032 236.721 242.953 237.087 242.902 237.514C242.853 237.931 242.828 238.397 242.828 238.914C242.828 239.43 242.853 239.9 242.902 240.327C242.953 240.755 243.032 241.121 243.14 241.429C243.259 241.737 243.408 241.975 243.587 242.143C243.776 242.311 244.009 242.396 244.286 242.396C244.564 242.396 244.798 242.311 244.985 242.143C245.174 241.975 245.323 241.737 245.431 241.429C245.541 241.121 245.62 240.755 245.669 240.327C245.72 239.9 245.744 239.43 245.744 238.914ZM252.76 240.179C252.76 239.613 252.849 239.082 253.027 238.586C253.216 238.08 253.484 237.644 253.831 237.276C254.177 236.9 254.6 236.602 255.095 236.383C255.591 236.165 256.156 236.056 256.791 236.056C257.208 236.056 257.59 236.096 257.937 236.175C258.283 236.245 258.621 236.349 258.948 236.487L258.487 238.259C258.279 238.18 258.051 238.11 257.803 238.05C257.554 237.991 257.278 237.961 256.97 237.961C256.315 237.961 255.824 238.165 255.497 238.571C255.18 238.978 255.021 239.513 255.021 240.179C255.021 240.883 255.17 241.429 255.467 241.816C255.775 242.203 256.305 242.396 257.059 242.396C257.327 242.396 257.614 242.371 257.922 242.322C258.23 242.273 258.512 242.192 258.77 242.084L259.082 243.9C258.825 244.008 258.502 244.103 258.115 244.182C257.728 244.261 257.302 244.301 256.836 244.301C256.122 244.301 255.507 244.197 254.991 243.989C254.475 243.77 254.049 243.478 253.712 243.111C253.384 242.743 253.142 242.311 252.983 241.816C252.834 241.31 252.76 240.764 252.76 240.179ZM267.511 240.164C267.511 240.778 267.422 241.344 267.244 241.861C267.065 242.367 266.808 242.803 266.47 243.17C266.134 243.528 265.726 243.806 265.25 244.004C264.784 244.202 264.259 244.301 263.673 244.301C263.099 244.301 262.572 244.202 262.096 244.004C261.631 243.806 261.229 243.528 260.891 243.17C260.555 242.803 260.292 242.367 260.103 241.861C259.915 241.344 259.82 240.778 259.82 240.164C259.82 239.549 259.915 238.988 260.103 238.482C260.302 237.976 260.57 237.544 260.906 237.187C261.254 236.83 261.66 236.551 262.126 236.354C262.602 236.156 263.118 236.056 263.673 236.056C264.239 236.056 264.755 236.156 265.22 236.354C265.696 236.551 266.104 236.83 266.44 237.187C266.778 237.544 267.041 237.976 267.229 238.482C267.418 238.988 267.511 239.549 267.511 240.164ZM265.25 240.164C265.25 239.479 265.112 238.943 264.834 238.556C264.566 238.159 264.179 237.961 263.673 237.961C263.167 237.961 262.776 238.159 262.498 238.556C262.221 238.943 262.081 239.479 262.081 240.164C262.081 240.848 262.221 241.395 262.498 241.801C262.776 242.198 263.167 242.396 263.673 242.396C264.179 242.396 264.566 242.198 264.834 241.801C265.112 241.395 265.25 240.848 265.25 240.164ZM275.908 243.825C275.531 243.934 275.045 244.034 274.45 244.123C273.855 244.223 273.23 244.272 272.575 244.272C271.912 244.272 271.356 244.182 270.909 244.004C270.473 243.825 270.127 243.577 269.868 243.26C269.611 242.932 269.428 242.545 269.317 242.099C269.209 241.652 269.154 241.161 269.154 240.625V236.264H271.37V240.357C271.37 241.072 271.466 241.588 271.653 241.905C271.842 242.222 272.195 242.381 272.709 242.381C272.869 242.381 273.037 242.377 273.215 242.367C273.394 242.347 273.553 242.326 273.691 242.307V236.264H275.908V243.825ZM277.989 236.532C278.365 236.423 278.852 236.324 279.447 236.234C280.042 236.135 280.667 236.086 281.321 236.086C281.986 236.086 282.537 236.175 282.973 236.354C283.419 236.522 283.772 236.766 284.029 237.083C284.286 237.4 284.471 237.778 284.579 238.214C284.688 238.65 284.743 239.137 284.743 239.673V244.093H282.526V239.941C282.526 239.226 282.433 238.72 282.244 238.422C282.055 238.125 281.704 237.976 281.188 237.976C281.028 237.976 280.86 237.986 280.682 238.006C280.503 238.016 280.344 238.031 280.206 238.05V244.093H277.989V236.532ZM286.676 234.314L288.892 233.957V236.264H291.555V238.11H288.892V240.863C288.892 241.329 288.971 241.701 289.13 241.98C289.298 242.258 289.63 242.396 290.127 242.396C290.365 242.396 290.607 242.377 290.856 242.337C291.113 242.288 291.347 242.222 291.555 242.143L291.868 243.87C291.6 243.978 291.302 244.074 290.975 244.153C290.648 244.231 290.246 244.272 289.77 244.272C289.164 244.272 288.663 244.193 288.267 244.034C287.87 243.865 287.553 243.636 287.315 243.349C287.077 243.051 286.908 242.694 286.809 242.277C286.72 241.861 286.676 241.399 286.676 240.893V234.314ZM298.076 238.229C297.878 238.18 297.644 238.129 297.376 238.08C297.109 238.021 296.821 237.991 296.514 237.991C296.375 237.991 296.206 238.006 296.008 238.035C295.819 238.055 295.676 238.08 295.576 238.11V244.093H293.36V236.681C293.757 236.543 294.223 236.413 294.758 236.294C295.304 236.165 295.908 236.101 296.573 236.101C296.692 236.101 296.836 236.111 297.004 236.13C297.173 236.141 297.342 236.16 297.51 236.19C297.678 236.209 297.848 236.239 298.016 236.279C298.184 236.309 298.329 236.349 298.448 236.398L298.076 238.229ZM301.853 244.093H299.636V236.264H301.853V244.093ZM302.061 234.002C302.061 234.408 301.927 234.731 301.659 234.969C301.402 235.197 301.094 235.312 300.737 235.312C300.38 235.312 300.068 235.197 299.8 234.969C299.542 234.731 299.413 234.408 299.413 234.002C299.413 233.596 299.542 233.277 299.8 233.049C300.068 232.811 300.38 232.692 300.737 232.692C301.094 232.692 301.402 232.811 301.659 233.049C301.927 233.277 302.061 233.596 302.061 234.002ZM303.565 240.238C303.565 239.543 303.669 238.939 303.878 238.422C304.095 237.897 304.377 237.459 304.725 237.113C305.072 236.766 305.469 236.502 305.916 236.324C306.371 236.145 306.838 236.056 307.314 236.056C308.424 236.056 309.302 236.398 309.947 237.083C310.591 237.757 310.914 238.754 310.914 240.074C310.914 240.204 310.908 240.347 310.899 240.506C310.889 240.655 310.879 240.789 310.87 240.908H305.841C305.89 241.365 306.103 241.727 306.481 241.994C306.857 242.262 307.363 242.396 307.998 242.396C308.405 242.396 308.802 242.362 309.189 242.292C309.584 242.213 309.907 242.118 310.155 242.009L310.453 243.81C310.334 243.87 310.175 243.929 309.977 243.989C309.778 244.048 309.554 244.098 309.308 244.138C309.069 244.187 308.811 244.227 308.534 244.257C308.256 244.287 307.978 244.301 307.701 244.301C306.996 244.301 306.381 244.197 305.856 243.989C305.34 243.781 304.908 243.498 304.562 243.141C304.224 242.773 303.971 242.341 303.803 241.846C303.644 241.35 303.565 240.814 303.565 240.238ZM308.772 239.39C308.762 239.201 308.727 239.018 308.668 238.839C308.617 238.661 308.534 238.501 308.415 238.363C308.305 238.224 308.162 238.11 307.983 238.021C307.814 237.931 307.601 237.887 307.344 237.887C307.095 237.887 306.883 237.931 306.704 238.021C306.526 238.099 306.377 238.21 306.258 238.348C306.139 238.486 306.044 238.65 305.975 238.839C305.916 239.018 305.871 239.201 305.841 239.39H308.772ZM314.87 242.501C315.278 242.501 315.565 242.46 315.733 242.381C315.902 242.303 315.986 242.148 315.986 241.92C315.986 241.741 315.877 241.588 315.658 241.459C315.441 241.32 315.108 241.165 314.662 240.997C314.315 240.868 313.998 240.734 313.71 240.595C313.433 240.457 313.195 240.293 312.995 240.104C312.798 239.906 312.644 239.673 312.534 239.405C312.426 239.137 312.371 238.814 312.371 238.437C312.371 237.703 312.644 237.123 313.189 236.696C313.735 236.269 314.483 236.056 315.435 236.056C315.911 236.056 316.368 236.101 316.804 236.19C317.241 236.269 317.588 236.358 317.845 236.458L317.458 238.184C317.201 238.095 316.918 238.016 316.61 237.946C316.313 237.876 315.977 237.842 315.599 237.842C314.906 237.842 314.558 238.035 314.558 238.422C314.558 238.512 314.572 238.591 314.602 238.661C314.632 238.73 314.691 238.799 314.781 238.869C314.87 238.928 314.989 238.998 315.138 239.077C315.297 239.147 315.495 239.226 315.733 239.315C316.219 239.494 316.621 239.673 316.938 239.851C317.256 240.019 317.503 240.208 317.682 240.417C317.871 240.615 318 240.838 318.068 241.087C318.149 241.335 318.187 241.622 318.187 241.95C318.187 242.724 317.896 243.309 317.31 243.706C316.735 244.104 315.917 244.301 314.855 244.301C314.162 244.301 313.582 244.242 313.114 244.123C312.659 244.004 312.341 243.904 312.162 243.825L312.534 242.024C312.912 242.173 313.299 242.292 313.695 242.381C314.092 242.46 314.483 242.501 314.87 242.501Z" fill="white"/>
<defs>
<linearGradient id="paint0_linear_37_350" x1="542.256" y1="384" x2="542.256" y2="-0.000150727" gradientUnits="userSpaceOnUse">
<stop stop-color="#004D74" stop-opacity="0.22"/>
<stop offset="1" stop-color="#004D74" stop-opacity="0"/>
</linearGradient>
<linearGradient id="paint1_linear_37_350" x1="358.657" y1="122.293" x2="185.326" y2="299.903" gradientUnits="userSpaceOnUse">
<stop stop-color="white" stop-opacity="0"/>
<stop offset="1" stop-color="#E8EFF6"/>
</linearGradient>
<linearGradient id="paint2_linear_37_350" x1="271.5" y1="1.16437e-06" x2="271.5" y2="384" gradientUnits="userSpaceOnUse">
<stop stop-color="#00DFD8"/>
<stop offset="1" stop-color="#1AFFF8"/>
</linearGradient>
<linearGradient id="paint3_linear_37_350" x1="542.256" y1="384" x2="542.256" y2="1.83813e-05" gradientUnits="userSpaceOnUse">
<stop stop-color="#004D74" stop-opacity="0.22"/>
<stop offset="1" stop-color="#004D74" stop-opacity="0"/>
</linearGradient>
<linearGradient id="paint4_linear_37_350" x1="542.256" y1="384" x2="542.256" y2="0.000198247" gradientUnits="userSpaceOnUse">
<stop stop-color="#004D74" stop-opacity="0.22"/>
<stop offset="1" stop-color="#004D74" stop-opacity="0"/>
</linearGradient>
<linearGradient id="paint5_linear_37_350" x1="542.256" y1="384" x2="542.256" y2="2.50705e-05" gradientUnits="userSpaceOnUse">
<stop stop-color="#004D74" stop-opacity="0.22"/>
<stop offset="1" stop-color="#004D74" stop-opacity="0"/>
</linearGradient>
<linearGradient id="paint6_linear_37_350" x1="542.256" y1="384" x2="542.256" y2="-6.29425e-05" gradientUnits="userSpaceOnUse">
<stop stop-color="#004D74" stop-opacity="0.22"/>
<stop offset="1" stop-color="#004D74" stop-opacity="0"/>
</linearGradient>
<linearGradient id="paint7_linear_37_350" x1="542.256" y1="384" x2="542.256" y2="-2.10482e-05" gradientUnits="userSpaceOnUse">
<stop stop-color="#004D74" stop-opacity="0.22"/>
<stop offset="1" stop-color="#004D74" stop-opacity="0"/>
</linearGradient>
<linearGradient id="paint8_linear_37_350" x1="542.256" y1="384" x2="542.256" y2="-0.000136358" gradientUnits="userSpaceOnUse">
<stop stop-color="#004D74" stop-opacity="0.22"/>
<stop offset="1" stop-color="#004D74" stop-opacity="0"/>
</linearGradient>
<linearGradient id="paint9_linear_37_350" x1="542.256" y1="384" x2="542.256" y2="9.17021e-06" gradientUnits="userSpaceOnUse">
<stop stop-color="#004D74" stop-opacity="0.22"/>
<stop offset="1" stop-color="#004D74" stop-opacity="0"/>
</linearGradient>
<linearGradient id="paint10_linear_37_350" x1="542.256" y1="384" x2="542.256" y2="-1.2459e-06" gradientUnits="userSpaceOnUse">
<stop stop-color="#004D74" stop-opacity="0.22"/>
<stop offset="1" stop-color="#004D74" stop-opacity="0"/>
</linearGradient>
<linearGradient id="paint11_linear_37_350" x1="542.256" y1="384" x2="542.256" y2="-1.10171e-05" gradientUnits="userSpaceOnUse">
<stop stop-color="#004D74" stop-opacity="0.22"/>
<stop offset="1" stop-color="#004D74" stop-opacity="0"/>
</linearGradient>
<linearGradient id="paint12_linear_37_350" x1="542.256" y1="384" x2="542.256" y2="-6.81764e-05" gradientUnits="userSpaceOnUse">
<stop stop-color="#004D74" stop-opacity="0.22"/>
<stop offset="1" stop-color="#004D74" stop-opacity="0"/>
</linearGradient>
</defs>
</svg>
