<svg width="13" height="15" viewBox="0 0 13 15" fill="none" xmlns="http://www.w3.org/2000/svg">
<path fill-rule="evenodd" clip-rule="evenodd" d="M12.3782 10.0031C12.3782 8.10313 11.2782 5.76875 10.5376 4.4125L9.87821 3.29688C9.93997 3.72552 9.91553 4.16218 9.80633 4.58125C9.66298 4.94897 9.44362 5.28228 9.16258 5.55938C9.13057 4.59213 8.84499 3.65028 8.33446 2.82813C8.23758 2.68438 7.99071 2.29281 7.71571 1.94375C7.17322 1.25245 6.50268 0.672087 5.74071 0.234375C6.0074 0.78588 6.1675 1.38281 6.21258 1.99375C6.19071 2.7125 5.96258 3.14375 4.88446 4.55C3.80633 5.95625 4.07196 8.05313 4.07196 8.05313C3.98583 7.76016 3.86849 7.47728 3.72196 7.20938C3.44071 6.6625 2.29383 6.01875 2.22196 5.98125C2.25321 6.05938 2.76883 7.34375 2.06571 8.21563C1.17196 9.33125 0.456331 10.1625 0.653206 11.8313C0.903206 13.9531 3.31883 14.5469 4.42821 14.7063H4.43133C4.76571 14.7563 4.97821 14.7656 4.97821 14.7656C4.24789 14.5156 3.83164 13.5969 3.77414 13.0916C3.72947 12.8037 3.74768 12.5096 3.82752 12.2295C3.90736 11.9493 4.04694 11.6898 4.23664 11.4688C4.38539 11.265 4.93508 10.7188 5.12008 10.5313C5.60517 10.1171 5.94307 9.55695 6.08321 8.93469C6.15869 8.49962 6.17226 8.05606 6.12352 7.61719C6.63783 7.94347 7.07356 8.37952 7.39946 8.89406C7.65361 9.29726 7.79468 9.76138 7.80789 10.2378C7.94627 10.1007 8.05433 9.93615 8.12508 9.75469C8.17887 9.54691 8.19045 9.33046 8.15914 9.11813C8.15914 9.11813 9.42664 10.8681 9.39102 12.4231C9.34633 14.3719 8.14102 14.7647 8.13914 14.7669C8.15196 14.7638 12.3782 14.2369 12.3782 10.0031Z" fill="#00DFD8"/>
</svg>
