<svg width="76" height="75" viewBox="0 0 76 75" fill="none" xmlns="http://www.w3.org/2000/svg">
<g id="FRA" clip-path="url(#clip0_746_3695)">
<path id="Vector" d="M38 75C58.7107 75 75.5 58.2107 75.5 37.5C75.5 16.7893 58.7107 0 38 0C17.2893 0 0.5 16.7893 0.5 37.5C0.5 58.2107 17.2893 75 38 75Z" fill="#F0F0F0"/>
<path id="Vector_2" d="M75.4996 37.5C75.4996 21.3765 65.323 7.631 51.043 2.33252V72.6677C65.323 67.3691 75.4996 53.6236 75.4996 37.5Z" fill="#D80027"/>
<path id="Vector_3" d="M0.5 37.5C0.5 53.6236 10.6767 67.3691 24.9566 72.6676V2.33252C10.6767 7.631 0.5 21.3765 0.5 37.5Z" fill="#0052B4"/>
</g>
<defs>
<clipPath id="clip0_746_3695">
<rect width="75" height="75" fill="white" transform="translate(0.5)"/>
</clipPath>
</defs>
</svg>
