<svg width="76" height="75" viewBox="0 0 76 75" fill="none" xmlns="http://www.w3.org/2000/svg">
<g id="GBR" clip-path="url(#clip0_746_3809)">
<path id="Vector" d="M38 75C58.7107 75 75.5 58.2107 75.5 37.5C75.5 16.7893 58.7107 0 38 0C17.2893 0 0.5 16.7893 0.5 37.5C0.5 58.2107 17.2893 75 38 75Z" fill="#F0F0F0"/>
<path id="Vector_2" d="M8.25098 14.6692C5.30664 18.5017 3.08418 22.9189 1.79102 27.7176H21.2995L8.25098 14.6692ZM74.207 27.7178C72.9136 22.9192 70.6924 18.502 67.7471 14.6695L54.699 27.7178H74.207ZM1.79102 47.2828C3.08447 52.0813 5.30561 56.4986 8.25098 60.3309L21.2989 47.2828H1.79102ZM60.8298 7.75195C56.9973 4.80644 52.5801 2.58545 47.7815 1.29199V20.8003L60.8298 7.75224V7.75195ZM15.1683 67.248C19.0007 70.1924 23.418 72.4148 28.2165 73.7083V54.1999L15.1683 67.2479V67.248ZM28.2164 1.29199C23.4178 2.58545 19.0006 4.80659 15.1683 7.75195L28.2164 20.8V1.29199ZM47.7817 73.708C52.5802 72.4145 56.9974 70.1934 60.8298 67.248L47.7817 54.1999V73.708ZM54.699 47.2828L67.7471 60.331C70.6926 56.4987 72.9139 52.0813 74.207 47.2828H54.699Z" fill="#0052B4"/>
<path id="Vector_3" d="M75.1826 32.6074H42.8916V0.317432C41.29 0.108984 39.6578 0 38 0C36.3422 0 34.71 0.108984 33.1074 0.317432V32.6084H0.817432C0.608984 34.21 0.5 35.8422 0.5 37.5C0.5 39.1578 0.608984 40.79 0.817432 42.3926H33.1084V74.6839C34.7304 74.8948 36.3644 75.0004 38 75C39.6356 75 41.2694 74.894 42.8913 74.6826V42.3916H75.1826C75.3939 40.7696 75.4999 39.1357 75.5 37.5C75.4999 35.8644 75.3939 34.2306 75.1826 32.6087V32.6074ZM47.7827 47.2813L64.5166 64.0166C65.2862 63.2473 66.0204 62.4429 66.7209 61.6091L52.3944 47.2827L47.7828 47.2828L47.7827 47.2813ZM28.2173 47.2813H28.217L11.4834 64.0166C12.2527 64.7862 13.0571 65.5204 13.8909 66.2209L28.2173 51.8941V47.2828V47.2813ZM28.2173 27.7163V27.716L11.4834 10.9834C10.7138 11.7527 9.97959 12.5571 9.2791 13.3909L23.6057 27.7175H28.217L28.2173 27.7163ZM47.7827 27.7163L64.5166 10.9834C63.7473 10.2138 62.9429 9.47959 62.1091 8.77925L47.7827 23.1059V27.7175V27.7163Z" fill="#D80027"/>
</g>
<defs>
<clipPath id="clip0_746_3809">
<rect width="75" height="75" fill="white" transform="translate(0.5)"/>
</clipPath>
</defs>
</svg>
