<svg width="22" height="22" viewBox="0 0 22 22" fill="none" xmlns="http://www.w3.org/2000/svg">
<mask id="mask0_37_1703" style="mask-type:alpha" maskUnits="userSpaceOnUse" x="0" y="0" width="22" height="22">
<path d="M22 0H0V22H22V0Z" fill="white"/>
<path d="M20.2136 7.1072C19.7098 5.9177 18.9897 4.8462 18.0705 3.9295C17.1514 3.0103 16.0823 2.2902 14.8928 1.7864C13.6591 1.2654 12.3492 1 11 1C9.6508 1 8.3409 1.2654 7.1072 1.7864C5.9177 2.2902 4.8462 3.0103 3.9295 3.9295C3.0103 4.8486 2.2902 5.9177 1.7864 7.1072C1.2654 8.3409 1 9.6508 1 11C1 12.3492 1.2654 13.6591 1.7864 14.8928C2.2902 16.0823 3.0103 17.1538 3.9295 18.0705C4.8486 18.9897 5.9177 19.7098 7.1072 20.2136C8.3409 20.7346 9.6508 21 11 21C12.3492 21 13.6591 20.7346 14.8928 20.2136C16.0823 19.7098 17.1538 18.9897 18.0705 18.0705C18.9897 17.1514 19.7098 16.0823 20.2136 14.8928C20.7346 13.6591 21 12.3492 21 11C21 9.6508 20.737 8.3409 20.2136 7.1072ZM15.9644 11.7692L16.4854 12.8457L15.5294 13.6714L15.5982 13.9958C15.6768 14.3743 15.7604 14.8191 15.7997 15.0821C15.726 15.1484 15.6301 15.2369 15.5023 15.3524C15.318 15.5195 14.9961 15.812 14.7208 16.0553C14.6717 15.8538 14.6151 15.581 14.5488 15.2123C14.4406 14.5979 14.3669 14.0376 14.3669 14.0302L14.3571 13.9467L14.3399 13.9098L13.868 12.1698L12.6613 12.3861L11.983 11.8135L12.5385 10.9115L12.423 9.7122C12.6392 9.5009 12.858 9.2969 12.9415 9.233C13.2315 9.0782 13.2807 8.7439 13.3052 8.5793C13.3249 8.4465 13.3421 8.2696 13.3544 8.0533C13.3667 7.8739 13.3716 7.6994 13.3765 7.5667L14.3129 6.5714L17.8469 5.3598C18.8987 6.6353 19.6016 8.2057 19.8105 9.9285L16.9228 10.017L15.9644 11.7692ZM16.6967 15.7972C16.6918 15.8022 16.6844 15.8046 16.682 15.8071C16.6869 15.8046 16.6918 15.8022 16.6967 15.7972ZM4.1359 5.3967C4.1679 5.4802 4.2023 5.5711 4.2342 5.6547C4.4529 6.2445 4.6594 6.8024 5.0796 7.0261C5.3254 7.1563 6.2101 7.5127 6.8835 7.7781C6.6795 7.9968 6.4411 8.2573 6.2028 8.5326C5.1239 9.7786 4.883 10.3266 4.9248 10.7272C4.829 10.8058 4.6127 10.9042 4.3743 10.9853L3.3446 9.3387L2.5286 8.3925C2.8678 7.2841 3.4207 6.2716 4.1359 5.3967ZM7.0113 18.9184L6.945 17.2448L7.4389 15.3278L6.8663 13.9934L6.9843 13.7058L7.9526 14.0597L9.7171 15.318L8.4146 16.2249L7.4266 19.1126C7.2841 19.0511 7.1465 18.9872 7.0113 18.9184ZM11.0025 19.867C10.1276 19.867 9.2846 19.7392 8.4859 19.5033L9.3632 16.9425L11.6783 15.3303L8.4834 13.0521L6.3551 12.2755L5.6375 14.0032L6.2445 15.4212L5.8046 17.1244L5.8489 18.2155C3.6026 16.6058 2.1354 13.9712 2.1354 11C2.1354 10.5822 2.1649 10.1693 2.2214 9.7663L2.4303 10.0096L3.8459 12.273L4.2318 12.1919C4.244 12.1895 4.539 12.128 4.8707 12.0052C5.3917 11.8135 5.7334 11.5825 5.9177 11.2925C6.043 11.0934 6.0922 10.8722 6.0578 10.651C6.0946 10.5503 6.2789 10.1521 7.1686 9.142C7.724 8.5104 8.2721 7.9624 8.277 7.9575L8.8914 7.3431L8.0804 7.031C7.2841 6.7238 5.9496 6.1954 5.64 6.0406C5.5392 5.9201 5.3819 5.4925 5.2959 5.259C5.1902 4.9764 5.0919 4.7061 4.9739 4.5021C6.5566 3.03 8.6776 2.128 11.0074 2.128C13.3126 2.128 15.4139 3.0103 16.9916 4.4579L13.6837 5.5908L12.2583 7.1047L12.2534 7.3234C12.246 7.6896 12.2214 8.1565 12.1919 8.3851C12.0445 8.5055 11.8159 8.7169 11.4375 9.0954L11.2482 9.2846L11.3785 10.6387L10.5085 12.0469L12.3369 13.5879L13.0472 13.4601L13.2512 14.2121C13.2708 14.3645 13.347 14.915 13.4551 15.5048C13.7107 16.9056 13.9 17.1907 14.0597 17.3505C14.1531 17.4438 14.2981 17.52 14.4677 17.52C14.5635 17.52 14.6692 17.4955 14.7798 17.4389C14.8339 17.4094 14.8928 17.3726 14.9666 17.3185C15.0649 17.2448 15.1927 17.1416 15.3598 16.999C15.6473 16.7533 15.9914 16.4387 16.2691 16.1855C16.4485 16.0209 16.6525 15.8366 16.7115 15.7899C16.8368 15.7014 16.972 15.5367 16.9597 15.232C16.9572 15.173 16.9499 15.1017 16.9376 15.0108C16.9204 14.8806 16.8909 14.7036 16.8516 14.4873C16.827 14.3473 16.8 14.2096 16.7754 14.0917L17.8862 13.1307L17.2423 11.7987L17.611 11.1253L19.8769 11.059C19.8376 15.9226 15.871 19.867 11.0025 19.867Z" fill="black"/>
</mask>
<g mask="url(#mask0_37_1703)">
<path d="M20.2136 7.1072C19.7098 5.9177 18.9897 4.8462 18.0705 3.9295C17.1514 3.0103 16.0823 2.2902 14.8928 1.7864C13.6591 1.2654 12.3492 1 11 1C9.6508 1 8.3409 1.2654 7.1072 1.7864C5.9177 2.2902 4.8462 3.0103 3.9295 3.9295C3.0103 4.8486 2.2902 5.9177 1.7864 7.1072C1.2654 8.3409 1 9.6508 1 11C1 12.3492 1.2654 13.6591 1.7864 14.8928C2.2902 16.0823 3.0103 17.1538 3.9295 18.0705C4.8486 18.9897 5.9177 19.7098 7.1072 20.2136C8.3409 20.7346 9.6508 21 11 21C12.3492 21 13.6591 20.7346 14.8928 20.2136C16.0823 19.7098 17.1538 18.9897 18.0705 18.0705C18.9897 17.1514 19.7098 16.0823 20.2136 14.8928C20.7346 13.6591 21 12.3492 21 11C21 9.6508 20.737 8.3409 20.2136 7.1072ZM15.9644 11.7692L16.4854 12.8457L15.5294 13.6714L15.5982 13.9958C15.6768 14.3743 15.7604 14.8191 15.7997 15.0821C15.726 15.1484 15.6301 15.2369 15.5023 15.3524C15.318 15.5195 14.9961 15.812 14.7208 16.0553C14.6717 15.8538 14.6151 15.581 14.5488 15.2123C14.4406 14.5979 14.3669 14.0376 14.3669 14.0302L14.3571 13.9467L14.3399 13.9098L13.868 12.1698L12.6613 12.3861L11.983 11.8135L12.5385 10.9115L12.423 9.7122C12.6392 9.5009 12.858 9.2969 12.9415 9.233C13.2315 9.0782 13.2807 8.7439 13.3052 8.5793C13.3249 8.4465 13.3421 8.2696 13.3544 8.0533C13.3667 7.8739 13.3716 7.6994 13.3765 7.5667L14.3129 6.5714L17.8469 5.3598C18.8987 6.6353 19.6016 8.2057 19.8105 9.9285L16.9228 10.017L15.9644 11.7692ZM16.6967 15.7972C16.6918 15.8022 16.6844 15.8046 16.682 15.8071C16.6869 15.8046 16.6918 15.8022 16.6967 15.7972ZM4.1359 5.3967C4.1679 5.4802 4.2023 5.5711 4.2342 5.6547C4.4529 6.2445 4.6594 6.8024 5.0796 7.0261C5.3254 7.1563 6.2101 7.5127 6.8835 7.7781C6.6795 7.9968 6.4411 8.2573 6.2028 8.5326C5.1239 9.7786 4.883 10.3266 4.9248 10.7272C4.829 10.8058 4.6127 10.9042 4.3743 10.9853L3.3446 9.3387L2.5286 8.3925C2.8678 7.2841 3.4207 6.2716 4.1359 5.3967ZM7.0113 18.9184L6.945 17.2448L7.4389 15.3278L6.8663 13.9934L6.9843 13.7058L7.9526 14.0597L9.7171 15.318L8.4146 16.2249L7.4266 19.1126C7.2841 19.0511 7.1465 18.9872 7.0113 18.9184ZM11.0025 19.867C10.1276 19.867 9.2846 19.7392 8.4859 19.5033L9.3632 16.9425L11.6783 15.3303L8.4834 13.0521L6.3551 12.2755L5.6375 14.0032L6.2445 15.4212L5.8046 17.1244L5.8489 18.2155C3.6026 16.6058 2.1354 13.9712 2.1354 11C2.1354 10.5822 2.1649 10.1693 2.2214 9.7663L2.4303 10.0096L3.8459 12.273L4.2318 12.1919C4.244 12.1895 4.539 12.128 4.8707 12.0052C5.3917 11.8135 5.7334 11.5825 5.9177 11.2925C6.043 11.0934 6.0922 10.8722 6.0578 10.651C6.0946 10.5503 6.2789 10.1521 7.1686 9.142C7.724 8.5104 8.2721 7.9624 8.277 7.9575L8.8914 7.3431L8.0804 7.031C7.2841 6.7238 5.9496 6.1954 5.64 6.0406C5.5392 5.9201 5.3819 5.4925 5.2959 5.259C5.1902 4.9764 5.0919 4.7061 4.9739 4.5021C6.5566 3.03 8.6776 2.128 11.0074 2.128C13.3126 2.128 15.4139 3.0103 16.9916 4.4579L13.6837 5.5908L12.2583 7.1047L12.2534 7.3234C12.246 7.6896 12.2214 8.1565 12.1919 8.3851C12.0445 8.5055 11.8159 8.7169 11.4375 9.0954L11.2482 9.2846L11.3785 10.6387L10.5085 12.0469L12.3369 13.5879L13.0472 13.4601L13.2512 14.2121C13.2708 14.3645 13.347 14.915 13.4551 15.5048C13.7107 16.9056 13.9 17.1907 14.0597 17.3505C14.1531 17.4438 14.2981 17.52 14.4677 17.52C14.5635 17.52 14.6692 17.4955 14.7798 17.4389C14.8339 17.4094 14.8928 17.3726 14.9666 17.3185C15.0649 17.2448 15.1927 17.1416 15.3598 16.999C15.6473 16.7533 15.9914 16.4387 16.2691 16.1855C16.4485 16.0209 16.6525 15.8366 16.7115 15.7899C16.8368 15.7014 16.972 15.5367 16.9597 15.232C16.9572 15.173 16.9499 15.1017 16.9376 15.0108C16.9204 14.8806 16.8909 14.7036 16.8516 14.4873C16.827 14.3473 16.8 14.2096 16.7754 14.0917L17.8862 13.1307L17.2423 11.7987L17.611 11.1253L19.8769 11.059C19.8376 15.9226 15.871 19.867 11.0025 19.867Z" fill="#00DFD8"/>
<path d="M4.19854 5.45531L5.03654 4.56071L4.91144 4.44351L4.07344 5.33811L4.19854 5.45531ZM16.9294 4.51681L17.7847 5.41881L17.9091 5.30081L17.0538 4.39891L16.9294 4.51681ZM19.725 9.93351L19.7913 11.064L19.9624 11.054L19.8961 9.92351L19.725 9.93351ZM8.51554 19.4229L7.45634 19.0321L7.39704 19.193L8.45624 19.5837L8.51554 19.4229ZM7.05574 18.8451L5.89324 18.1422L5.80454 18.2889L6.96704 18.9918L7.05574 18.8451ZM2.30514 9.78501L2.61234 8.41121L2.44504 8.37381L2.13784 9.74761L2.30514 9.78501ZM20.2136 7.10721L20.0557 7.17401L20.0558 7.17411L20.2136 7.10721ZM18.0705 3.92951L17.9493 4.05071L17.9495 4.05081L18.0705 3.92951ZM14.8928 1.78641L14.9597 1.62861L14.9595 1.62851L14.8928 1.78641ZM7.10724 1.78641L7.04054 1.62851L7.04034 1.62861L7.10724 1.78641ZM3.92954 3.92951L4.05074 4.05071L4.05084 4.05051L3.92954 3.92951ZM1.78644 7.10721L1.62864 7.04031L1.62854 7.04051L1.78644 7.10721ZM1.78644 14.8928L1.62854 14.9595L1.62864 14.9597L1.78644 14.8928ZM3.92954 18.0705L4.05074 17.9493L4.05054 17.9492L3.92954 18.0705ZM7.10724 20.2136L7.04034 20.3714L7.04054 20.3715L7.10724 20.2136ZM14.8928 20.2136L14.9595 20.3715L14.9597 20.3714L14.8928 20.2136ZM18.0705 18.0705L17.9493 17.9493L17.9492 17.9495L18.0705 18.0705ZM20.2136 14.8928L20.3714 14.9597L20.3715 14.9595L20.2136 14.8928ZM15.9644 11.7692L15.814 11.687L15.7716 11.7644L15.8101 11.8439L15.9644 11.7692ZM16.4854 12.8457L16.5974 12.9754L16.697 12.8894L16.6397 12.771L16.4854 12.8457ZM15.5294 13.6714L15.4173 13.5417L15.3407 13.6079L15.3617 13.707L15.5294 13.6714ZM15.5982 13.9958L15.766 13.9609L15.7659 13.9603L15.5982 13.9958ZM15.7997 15.0821L15.9144 15.2095L15.9829 15.1479L15.9693 15.0567L15.7997 15.0821ZM15.5023 15.3524L15.3874 15.2252L15.3872 15.2254L15.5023 15.3524ZM14.7208 16.0553L14.5543 16.0959L14.6216 16.3718L14.8344 16.1837L14.7208 16.0553ZM14.5488 15.2123L14.3799 15.2421L14.3801 15.2427L14.5488 15.2123ZM14.3669 14.0302H14.5384V14.0202L14.5372 14.0102L14.3669 14.0302ZM14.3571 13.9467L14.5273 13.9266L14.5241 13.8992L14.5124 13.8742L14.3571 13.9467ZM14.3399 13.9098L14.1744 13.9547L14.1783 13.9689L14.1845 13.9823L14.3399 13.9098ZM13.868 12.1698L14.0335 12.125L13.9924 11.9734L13.8378 12.0011L13.868 12.1698ZM12.6613 12.3861L12.5508 12.5171L12.6123 12.569L12.6916 12.5548L12.6613 12.3861ZM11.983 11.8135L11.8371 11.7236L11.7597 11.8493L11.8725 11.9445L11.983 11.8135ZM12.5385 10.9115L12.6844 11.0014L12.7146 10.9524L12.7091 10.8951L12.5385 10.9115ZM12.423 9.71221L12.3031 9.58961L12.2444 9.64701L12.2523 9.72861L12.423 9.71221ZM12.9415 9.23301L12.8608 9.08181L12.8485 9.08831L12.8374 9.09681L12.9415 9.23301ZM13.3052 8.57931L13.4748 8.60461V8.60441L13.3052 8.57931ZM13.3544 8.05331L13.1833 8.04161L13.1832 8.04361L13.3544 8.05331ZM13.3765 7.56671L13.2516 7.44931L13.2076 7.49611L13.2052 7.56041L13.3765 7.56671ZM14.3129 6.57141L14.2573 6.40921L14.2171 6.42301L14.188 6.45391L14.3129 6.57141ZM17.8469 5.35981L17.9791 5.25071L17.9036 5.15911L17.7913 5.19761L17.8469 5.35981ZM19.8105 9.92851L19.8158 10.0998L20.0033 10.0941L19.9807 9.90781L19.8105 9.92851ZM16.9228 10.017L16.9176 9.84561L16.8195 9.84861L16.7724 9.93471L16.9228 10.017ZM16.682 15.8071L16.5608 15.6859L16.7587 15.9604L16.682 15.8071ZM4.13594 5.39671L4.29604 5.33541L4.19044 5.05911L4.00324 5.28821L4.13594 5.39671ZM4.23424 5.65471L4.39504 5.59511L4.39434 5.59351L4.23424 5.65471ZM5.07964 7.02611L4.99914 7.17741L4.99934 7.17751L5.07964 7.02611ZM6.88354 7.77811L7.00894 7.89501L7.18064 7.71091L6.94644 7.61861L6.88354 7.77811ZM6.20284 8.53261L6.07324 8.42031L6.20284 8.53261ZM4.92484 10.7272L5.03354 10.8597L5.10494 10.8012L5.09534 10.7094L4.92484 10.7272ZM4.37434 10.9853L4.22894 11.0761L4.30094 11.1913L4.42954 11.1475L4.37434 10.9853ZM3.34464 9.33871L3.48994 9.24781L3.48294 9.23661L3.47444 9.22671L3.34464 9.33871ZM2.52864 8.39251L2.36474 8.34231L2.33704 8.43281L2.39884 8.50441L2.52864 8.39251ZM7.01134 18.9184L6.84004 18.9252L6.84404 19.0256L6.93354 19.0712L7.01134 18.9184ZM6.94504 17.2448L6.77894 17.202L6.77274 17.2264L6.77374 17.2516L6.94504 17.2448ZM7.43894 15.3278L7.60494 15.3706L7.61954 15.314L7.59654 15.2602L7.43894 15.3278ZM6.86634 13.9934L6.70774 13.9283L6.68044 13.9949L6.70884 14.061L6.86634 13.9934ZM6.98434 13.7058L7.04314 13.5448L6.88834 13.4882L6.82574 13.6408L6.98434 13.7058ZM7.95264 14.0597L8.05214 13.9201L8.03324 13.9067L8.01144 13.8987L7.95264 14.0597ZM9.71714 15.318L9.81514 15.4587L10.0147 15.3197L9.81674 15.1784L9.71714 15.318ZM8.41464 16.2249L8.31664 16.0842L8.27064 16.1163L8.25244 16.1694L8.41464 16.2249ZM7.42664 19.1126L7.35884 19.27L7.52894 19.3433L7.58884 19.1681L7.42664 19.1126ZM8.48594 19.5033L8.32374 19.4478L8.26574 19.617L8.43734 19.6677L8.48594 19.5033ZM9.36324 16.9425L9.26534 16.8018L9.21924 16.8339L9.20114 16.8869L9.36324 16.9425ZM11.6783 15.3303L11.7763 15.471L11.9759 15.332L11.7778 15.1907L11.6783 15.3303ZM8.48344 13.0521L8.58294 12.9125L8.56404 12.899L8.54224 12.8911L8.48344 13.0521ZM6.35514 12.2755L6.41394 12.1145L6.25974 12.0582L6.19684 12.2097L6.35514 12.2755ZM5.63754 14.0032L5.47924 13.9374L5.45154 14.0042L5.47994 14.0707L5.63754 14.0032ZM6.24454 15.4212L6.41054 15.4641L6.42514 15.4075L6.40214 15.3538L6.24454 15.4212ZM5.80464 17.1244L5.63864 17.0815L5.63234 17.106L5.63334 17.1313L5.80464 17.1244ZM5.84894 18.2155L5.74904 18.3549L6.03444 18.5594L6.02014 18.2086L5.84894 18.2155ZM2.22144 9.76631L2.35154 9.65461L2.10444 9.36681L2.05174 9.74251L2.22144 9.76631ZM2.43034 10.0096L2.57574 9.91871L2.56884 9.90771L2.56044 9.89791L2.43034 10.0096ZM3.84594 12.273L3.70064 12.3639L3.76404 12.4654L3.88124 12.4408L3.84594 12.273ZM4.23184 12.1919L4.19814 12.0238L4.19654 12.0242L4.23184 12.1919ZM4.87074 12.0052L4.81154 11.8443L4.81124 11.8444L4.87074 12.0052ZM5.91774 11.2925L6.06244 11.3844L6.06274 11.3838L5.91774 11.2925ZM6.05784 10.651L5.89684 10.5921L5.88164 10.6337L5.88844 10.6774L6.05784 10.651ZM7.16864 9.14201L7.29724 9.25541L7.29734 9.25531L7.16864 9.14201ZM8.27704 7.95751L8.39824 8.07871L8.27704 7.95751ZM8.89144 7.34311L9.01264 7.46431L9.19914 7.27781L8.95294 7.18311L8.89144 7.34311ZM8.08044 7.03101L8.01874 7.19091L8.01884 7.19101L8.08044 7.03101ZM5.64004 6.04061L5.50854 6.15061L5.53144 6.17791L5.56334 6.19391L5.64004 6.04061ZM5.29594 5.25901L5.45684 5.19981L5.45654 5.19901L5.29594 5.25901ZM4.97394 4.50211L4.85724 4.37661L4.75714 4.46961L4.82564 4.58791L4.97394 4.50211ZM16.9916 4.45791L17.0472 4.62001L17.3201 4.52661L17.1075 4.33151L16.9916 4.45791ZM13.6837 5.59081L13.6282 5.42861L13.588 5.44241L13.5589 5.47331L13.6837 5.59081ZM12.2583 7.10471L12.1335 6.98721L12.0884 7.03511L12.0869 7.10081L12.2583 7.10471ZM12.2534 7.32341L12.082 7.31961V7.32001L12.2534 7.32341ZM12.1919 8.38511L12.3004 8.51791L12.3532 8.47471L12.362 8.40701L12.1919 8.38511ZM11.4375 9.09541L11.3162 8.97411L11.4375 9.09541ZM11.2482 9.28461L11.127 9.16341L11.0698 9.22051L11.0776 9.30101L11.2482 9.28461ZM11.3785 10.6387L11.5243 10.7288L11.5546 10.6797L11.5491 10.6223L11.3785 10.6387ZM10.5085 12.0469L10.3626 11.9568L10.2849 12.0827L10.398 12.178L10.5085 12.0469ZM12.3369 13.5879L12.2265 13.7189L12.288 13.7708L12.3673 13.7566L12.3369 13.5879ZM13.0472 13.4601L13.2126 13.4152L13.1715 13.2635L13.0168 13.2913L13.0472 13.4601ZM13.2512 14.2121L13.4212 14.1902L13.4197 14.1785L13.4166 14.1672L13.2512 14.2121ZM13.4551 15.5048L13.6238 15.474V15.4739L13.4551 15.5048ZM14.0597 17.3505L14.1809 17.2292L14.0597 17.3505ZM14.7798 17.4389L14.8578 17.5916L14.8619 17.5894L14.7798 17.4389ZM14.9666 17.3185L15.068 17.4568L15.0694 17.4556L14.9666 17.3185ZM15.3598 16.999L15.471 17.1294L15.4712 17.1293L15.3598 16.999ZM16.2691 16.1855L16.3846 16.3122L16.385 16.3118L16.2691 16.1855ZM16.7115 15.7899L16.6125 15.6496L16.6051 15.6555L16.7115 15.7899ZM16.9597 15.232L17.131 15.2251V15.2249L16.9597 15.232ZM16.9376 15.0108L16.7676 15.0333L16.7677 15.0338L16.9376 15.0108ZM16.8516 14.4873L16.6827 14.517L16.6829 14.518L16.8516 14.4873ZM16.7754 14.0917L16.6632 13.962L16.587 14.028L16.6076 14.1266L16.7754 14.0917ZM17.8862 13.1307L17.9984 13.2604L18.0977 13.1744L18.0406 13.0561L17.8862 13.1307ZM17.2423 11.7987L17.092 11.7164L17.0496 11.7938L17.088 11.8733L17.2423 11.7987ZM17.611 11.1253L17.6059 10.954L17.5078 10.9569L17.4606 11.043L17.611 11.1253ZM19.8769 11.059L20.0483 11.0604L20.0497 10.8824L19.8719 10.8876L19.8769 11.059ZM20.3714 7.04031C19.8591 5.83061 19.1265 4.74051 18.1916 3.80811L17.9495 4.05081C18.8528 4.95181 19.5605 6.00471 20.0557 7.17401L20.3714 7.04031ZM18.1918 3.80821C17.257 2.87351 16.1695 2.14101 14.9597 1.62861L14.826 1.94431C15.9951 2.43951 17.0457 3.14711 17.9493 4.05071L18.1918 3.80821ZM14.9595 1.62851C13.7047 1.09861 12.3721 0.828583 11 0.828583V1.17141C12.3264 1.17141 13.6136 1.43231 14.8262 1.94441L14.9595 1.62851ZM11 0.828583C9.62794 0.828583 8.29534 1.09861 7.04054 1.62851L7.17384 1.94441C8.38644 1.43231 9.67364 1.17141 11 1.17141V0.828583ZM7.04034 1.62861C5.83064 2.14101 4.74054 2.87351 3.80814 3.80841L4.05084 4.05051C4.95184 3.14721 6.00474 2.43951 7.17404 1.94431L7.04034 1.62861ZM3.80824 3.80821C2.87354 4.74301 2.14104 5.83051 1.62864 7.04031L1.94434 7.17401C2.43954 6.00491 3.14714 4.95431 4.05074 4.05071L3.80824 3.80821ZM1.62854 7.04051C1.09864 8.29531 0.828613 9.62791 0.828613 11H1.17144C1.17144 9.67361 1.43234 8.38641 1.94444 7.17381L1.62854 7.04051ZM0.828613 11C0.828613 12.3721 1.09864 13.7047 1.62854 14.9595L1.94444 14.8262C1.43234 13.6136 1.17144 12.3264 1.17144 11H0.828613ZM1.62864 14.9597C2.14104 16.1694 2.87354 17.2595 3.80844 18.1919L4.05054 17.9492C3.14724 17.0482 2.43954 15.9953 1.94434 14.826L1.62864 14.9597ZM3.80824 18.1918C4.74304 19.1265 5.83054 19.859 7.04034 20.3714L7.17404 20.0557C6.00494 19.5605 4.95434 18.8529 4.05074 17.9493L3.80824 18.1918ZM7.04054 20.3715C8.29534 20.9014 9.62794 21.1714 11 21.1714V20.8286C9.67364 20.8286 8.38644 20.5677 7.17384 20.0556L7.04054 20.3715ZM11 21.1714C12.3721 21.1714 13.7047 20.9014 14.9595 20.3715L14.8262 20.0556C13.6136 20.5677 12.3264 20.8286 11 20.8286V21.1714ZM14.9597 20.3714C16.1694 19.859 17.2595 19.1265 18.1919 18.1916L17.9492 17.9495C17.0482 18.8528 15.9953 19.5605 14.826 20.0557L14.9597 20.3714ZM18.1918 18.1918C19.1265 17.257 19.859 16.1695 20.3714 14.9597L20.0557 14.826C19.5605 15.9951 18.8529 17.0457 17.9493 17.9493L18.1918 18.1918ZM20.3715 14.9595C20.9014 13.7047 21.1714 12.3721 21.1714 11H20.8286C20.8286 12.3264 20.5677 13.6136 20.0556 14.8262L20.3715 14.9595ZM21.1714 11C21.1714 9.62811 20.904 8.29541 20.3714 7.04021L20.0558 7.17411C20.5701 8.38631 20.8286 9.67341 20.8286 11H21.1714ZM15.8101 11.8439L16.3311 12.9203L16.6397 12.771L16.1187 11.6945L15.8101 11.8439ZM16.3733 12.7159L15.4173 13.5417L15.6414 13.8012L16.5974 12.9754L16.3733 12.7159ZM15.3617 13.707L15.4305 14.0314L15.7659 13.9603L15.6971 13.6358L15.3617 13.707ZM15.4303 14.0307C15.5087 14.4079 15.5915 14.8491 15.6302 15.1074L15.9693 15.0567C15.9292 14.7891 15.8449 14.3407 15.766 13.9609L15.4303 14.0307ZM15.685 14.9547C15.6129 15.0196 15.5116 15.113 15.3874 15.2252L15.6173 15.4796C15.7487 15.3609 15.839 15.2773 15.9144 15.2095L15.685 14.9547ZM15.3872 15.2254C15.2026 15.3928 14.8815 15.6844 14.6073 15.9269L14.8344 16.1837C15.1106 15.9396 15.4335 15.6463 15.6175 15.4794L15.3872 15.2254ZM14.8874 16.0147C14.8394 15.8179 14.7835 15.5488 14.7175 15.182L14.3801 15.2427C14.4467 15.6131 14.504 15.8897 14.5543 16.0959L14.8874 16.0147ZM14.7176 15.1826C14.6639 14.8775 14.6187 14.5855 14.5869 14.3688C14.571 14.2605 14.5585 14.1711 14.55 14.1085C14.5457 14.0772 14.5425 14.0527 14.5403 14.036C14.5392 14.0275 14.5384 14.0213 14.538 14.0173C14.5377 14.0152 14.5376 14.0141 14.5375 14.0137C14.5368 14.0069 14.5384 14.0185 14.5384 14.0302H14.1955C14.1955 14.0369 14.1959 14.0422 14.1959 14.0428C14.1961 14.0446 14.1962 14.0461 14.1963 14.0469C14.1965 14.0487 14.1966 14.0503 14.1967 14.0513C14.197 14.0535 14.1973 14.0561 14.1976 14.0587C14.1982 14.0639 14.1991 14.0711 14.2003 14.0799C14.2026 14.0976 14.2059 14.1229 14.2103 14.1548C14.219 14.2185 14.2316 14.309 14.2477 14.4185C14.2798 14.6374 14.3255 14.9328 14.38 15.2421L14.7176 15.1826ZM14.5372 14.0102L14.5273 13.9266L14.1868 13.9667L14.1967 14.0503L14.5372 14.0102ZM14.5124 13.8742L14.4952 13.8373L14.1845 13.9823L14.2017 14.0192L14.5124 13.8742ZM14.5053 13.8649L14.0335 12.125L13.7026 12.2147L14.1744 13.9547L14.5053 13.8649ZM13.8378 12.0011L12.6311 12.2174L12.6916 12.5548L13.8983 12.3386L13.8378 12.0011ZM12.7719 12.2551L12.0936 11.6825L11.8725 11.9445L12.5508 12.5171L12.7719 12.2551ZM12.129 11.9034L12.6844 11.0014L12.3925 10.8216L11.8371 11.7236L12.129 11.9034ZM12.7091 10.8951L12.5936 9.69581L12.2523 9.72861L12.3678 10.928L12.7091 10.8951ZM12.5428 9.83481C12.7612 9.62131 12.972 9.42551 13.0456 9.36921L12.8374 9.09681C12.7439 9.16831 12.5172 9.38041 12.3031 9.58961L12.5428 9.83481ZM13.0222 9.38421C13.3984 9.18341 13.4522 8.75611 13.4748 8.60461L13.1357 8.55401C13.1092 8.73171 13.0647 8.97291 12.8608 9.08181L13.0222 9.38421ZM13.4748 8.60441C13.4955 8.46501 13.5131 8.28251 13.5255 8.06311L13.1832 8.04361C13.1711 8.25671 13.1543 8.42811 13.1357 8.55411L13.4748 8.60441ZM13.5254 8.06501C13.5379 7.88221 13.543 7.70381 13.5478 7.57311L13.2052 7.56041C13.2002 7.69501 13.1954 7.86571 13.1834 8.04161L13.5254 8.06501ZM13.5014 7.68421L14.4377 6.68891L14.188 6.45391L13.2516 7.44931L13.5014 7.68421ZM14.3685 6.73361L17.9025 5.52201L17.7913 5.19761L14.2573 6.40921L14.3685 6.73361ZM17.7146 5.46891C18.7464 6.72001 19.4355 8.25991 19.6403 9.94911L19.9807 9.90781C19.7677 8.15151 19.0511 6.55061 17.9791 5.25071L17.7146 5.46891ZM19.8053 9.75711L16.9176 9.84561L16.9281 10.1883L19.8158 10.0998L19.8053 9.75711ZM16.7724 9.93471L15.814 11.687L16.1148 11.8515L17.0732 10.0992L16.7724 9.93471ZM16.5755 15.676C16.5842 15.6674 16.592 15.6617 16.5967 15.6585C16.6014 15.6553 16.605 15.6533 16.6052 15.6532C16.6053 15.6532 16.6053 15.6532 16.6051 15.6533C16.6051 15.6533 16.6043 15.6537 16.604 15.6539C16.6031 15.6544 16.6007 15.6557 16.598 15.6573C16.5953 15.6589 16.5905 15.6617 16.5849 15.6656C16.582 15.6677 16.5785 15.6703 16.5745 15.6734C16.5706 15.6766 16.5659 15.6807 16.5608 15.6859L16.8032 15.9283C16.7984 15.9331 16.794 15.9369 16.7905 15.9398C16.7869 15.9427 16.7838 15.945 16.7813 15.9467C16.7766 15.9499 16.7729 15.9522 16.7713 15.9531C16.7697 15.9541 16.7685 15.9547 16.7689 15.9545C16.7692 15.9543 16.7691 15.9544 16.7697 15.954C16.7702 15.9538 16.7709 15.9534 16.7717 15.9529C16.7746 15.9513 16.7811 15.9477 16.7887 15.9426C16.7962 15.9374 16.8069 15.9296 16.818 15.9185L16.5755 15.676ZM16.7587 15.9604C16.7636 15.9579 16.7914 15.945 16.818 15.9185L16.5755 15.676C16.5922 15.6593 16.6102 15.6513 16.6053 15.6537L16.7587 15.9604ZM3.97584 5.45791C3.99174 5.49951 4.00824 5.54301 4.02484 5.58661C4.04144 5.63021 4.05804 5.67401 4.07414 5.71591L4.39434 5.59351C4.37844 5.55191 4.36194 5.50841 4.34534 5.46471C4.32874 5.42121 4.31214 5.37741 4.29604 5.33541L3.97584 5.45791ZM4.07354 5.71431C4.18174 6.00621 4.29234 6.30561 4.43084 6.55981C4.56974 6.81441 4.74664 7.04301 4.99914 7.17741L5.16024 6.87471C4.99244 6.78541 4.85604 6.62331 4.73194 6.39561C4.60754 6.16751 4.50544 5.89301 4.39494 5.59511L4.07354 5.71431ZM4.99934 7.17751C5.25604 7.31351 6.15304 7.67441 6.82064 7.93761L6.94644 7.61861C6.26724 7.35091 5.39484 6.99911 5.15994 6.87461L4.99934 7.17751ZM6.75814 7.66121C6.55344 7.88071 6.31344 8.14291 6.07324 8.42031L6.33234 8.64481C6.56884 8.37171 6.80574 8.11291 7.00894 7.89501L6.75814 7.66121ZM6.07324 8.42031C5.53134 9.04611 5.19214 9.50531 4.99364 9.86391C4.79394 10.2244 4.72854 10.4974 4.75434 10.745L5.09534 10.7094C5.07934 10.5564 5.11344 10.3551 5.29354 10.03C5.47464 9.70281 5.79534 9.26501 6.33244 8.64481L6.07324 8.42031ZM4.81614 10.5947C4.78524 10.62 4.72304 10.657 4.63074 10.6998C4.54154 10.7413 4.43374 10.784 4.31914 10.823L4.42954 11.1475C4.55334 11.1054 4.67284 11.0584 4.77524 11.0108C4.87474 10.9646 4.96854 10.9131 5.03354 10.8597L4.81614 10.5947ZM4.51964 10.8944L3.48994 9.24781L3.19924 9.42961L4.22894 11.0761L4.51964 10.8944ZM3.47444 9.22671L2.65854 8.28051L2.39884 8.50441L3.21474 9.45061L3.47444 9.22671ZM2.69264 8.44261C3.02504 7.35631 3.56714 6.36341 4.26864 5.50521L4.00324 5.28821C3.27444 6.17971 2.71064 7.21191 2.36474 8.34231L2.69264 8.44261ZM7.18264 18.9116L7.11624 17.238L6.77374 17.2516L6.84004 18.9252L7.18264 18.9116ZM7.11104 17.2876L7.60494 15.3706L7.27294 15.2851L6.77894 17.202L7.11104 17.2876ZM7.59654 15.2602L7.02384 13.9258L6.70884 14.061L7.28144 15.3954L7.59654 15.2602ZM7.02494 14.0584L7.14294 13.7709L6.82574 13.6408L6.70774 13.9283L7.02494 14.0584ZM6.92544 13.8668L7.89374 14.2207L8.01144 13.8987L7.04314 13.5448L6.92544 13.8668ZM7.85304 14.1993L9.61764 15.4576L9.81674 15.1784L8.05214 13.9201L7.85304 14.1993ZM9.61924 15.1773L8.31664 16.0842L8.51264 16.3656L9.81514 15.4587L9.61924 15.1773ZM8.25244 16.1694L7.26444 19.0571L7.58884 19.1681L8.57684 16.2804L8.25244 16.1694ZM7.49454 18.9551C7.35484 18.8949 7.22054 18.8326 7.08914 18.7656L6.93354 19.0712C7.07244 19.1419 7.21344 19.2073 7.35884 19.27L7.49454 18.9551ZM11.0025 19.6956C10.1444 19.6956 9.31784 19.5703 8.53444 19.3389L8.43734 19.6677C9.25144 19.9082 10.1107 20.0385 11.0025 20.0385V19.6956ZM8.64804 19.5589L9.52544 16.9981L9.20114 16.8869L8.32374 19.4478L8.64804 19.5589ZM9.46124 17.0832L11.7763 15.471L11.5803 15.1896L9.26534 16.8018L9.46124 17.0832ZM11.7778 15.1907L8.58294 12.9125L8.38394 13.1917L11.5788 15.4699L11.7778 15.1907ZM8.54224 12.8911L6.41394 12.1145L6.29644 12.4365L8.42464 13.2131L8.54224 12.8911ZM6.19684 12.2097L5.47924 13.9374L5.79584 14.069L6.51344 12.3413L6.19684 12.2097ZM5.47994 14.0707L6.08694 15.4887L6.40214 15.3538L5.79514 13.9357L5.47994 14.0707ZM6.07864 15.3784L5.63864 17.0815L5.97064 17.1672L6.41054 15.4641L6.07864 15.3784ZM5.63334 17.1313L5.67764 18.2225L6.02014 18.2086L5.97594 17.1174L5.63334 17.1313ZM5.94874 18.0762C3.74534 16.4972 2.30684 13.9135 2.30684 11H1.96404C1.96404 14.029 3.45994 16.7144 5.74904 18.3549L5.94874 18.0762ZM2.30684 11C2.30684 10.5903 2.33584 10.1853 2.39124 9.79011L2.05174 9.74251C1.99404 10.1533 1.96404 10.5742 1.96404 11H2.30684ZM2.09144 9.87801L2.30034 10.1213L2.56044 9.89791L2.35154 9.65461L2.09144 9.87801ZM2.28504 10.1005L3.70064 12.3639L3.99134 12.1821L2.57574 9.91871L2.28504 10.1005ZM3.88124 12.4408L4.26704 12.3597L4.19654 12.0242L3.81064 12.1053L3.88124 12.4408ZM4.26544 12.36C4.28244 12.3566 4.58694 12.2931 4.93034 12.1659L4.81124 11.8444C4.65174 11.9035 4.50054 11.948 4.38744 11.978C4.33104 11.993 4.28444 12.0043 4.25134 12.012C4.23484 12.0158 4.22184 12.0188 4.21264 12.0208C4.20804 12.0217 4.20454 12.0225 4.20194 12.023C4.19934 12.0236 4.19804 12.0239 4.19814 12.0238L4.26544 12.36ZM4.92994 12.166C5.46554 11.969 5.84864 11.7207 6.06234 11.3844L5.77304 11.2005C5.61814 11.4442 5.31804 11.6579 4.81154 11.8443L4.92994 12.166ZM6.06274 11.3838C6.20854 11.1523 6.26844 10.8896 6.22714 10.6247L5.88844 10.6774C5.91604 10.8548 5.87754 11.0345 5.77264 11.2011L6.06274 11.3838ZM6.21874 10.7099C6.24434 10.6402 6.41094 10.2616 7.29724 9.25541L7.03994 9.02871C6.14704 10.0426 5.94504 10.4603 5.89684 10.5921L6.21874 10.7099ZM7.29734 9.25531C7.84914 8.62781 8.39414 8.08281 8.39824 8.07871L8.15584 7.83631C8.15004 7.84201 7.59894 8.39311 7.03994 9.02881L7.29734 9.25531ZM8.39824 8.07871L9.01264 7.46431L8.77024 7.22191L8.15584 7.83631L8.39824 8.07871ZM8.95294 7.18311L8.14194 6.87101L8.01884 7.19101L8.82984 7.50311L8.95294 7.18311ZM8.14214 6.87101C7.34134 6.56211 6.01704 6.03741 5.71664 5.88721L5.56334 6.19391C5.88234 6.35341 7.22694 6.88551 8.01874 7.19091L8.14214 6.87101ZM5.77144 5.93051C5.75994 5.91681 5.73864 5.88291 5.70924 5.82401C5.68144 5.76831 5.65134 5.70031 5.62084 5.62651C5.55964 5.47911 5.50004 5.31701 5.45684 5.19981L5.13504 5.31831C5.17794 5.43451 5.23984 5.60301 5.30404 5.75781C5.33614 5.83521 5.36964 5.91131 5.40244 5.97701C5.43354 6.03941 5.46964 6.10411 5.50854 6.15061L5.77144 5.93051ZM5.45654 5.19901C5.35304 4.92241 5.24924 4.63561 5.12234 4.41631L4.82564 4.58791C4.93464 4.77651 5.02744 5.03051 5.13534 5.31911L5.45654 5.19901ZM5.09074 4.62761C6.64304 3.18381 8.72274 2.29951 11.0074 2.29951V1.95661C8.63244 1.95661 6.47034 2.87621 4.85724 4.37661L5.09074 4.62761ZM11.0074 2.29951C13.268 2.29951 15.3283 3.16451 16.8758 4.58421L17.1075 4.33151C15.4994 2.85621 13.3572 1.95661 11.0074 1.95661V2.29951ZM16.9361 4.29571L13.6282 5.42861L13.7393 5.75301L17.0472 4.62001L16.9361 4.29571ZM13.5589 5.47331L12.1335 6.98721L12.3831 7.22221L13.8085 5.70831L13.5589 5.47331ZM12.0869 7.10081L12.082 7.31961L12.4248 7.32731L12.4297 7.10851L12.0869 7.10081ZM12.082 7.32001C12.0746 7.68481 12.0502 8.14421 12.0219 8.36321L12.362 8.40701C12.3927 8.16891 12.4174 7.69441 12.4248 7.32691L12.082 7.32001ZM12.0835 8.25231C11.929 8.37851 11.6953 8.59501 11.3162 8.97411L11.5587 9.21661C11.9365 8.83871 12.16 8.63251 12.3004 8.51791L12.0835 8.25231ZM11.3162 8.97411L11.127 9.16341L11.3694 9.40581L11.5587 9.21661L11.3162 8.97411ZM11.0776 9.30101L11.2078 10.6551L11.5491 10.6223L11.4189 9.26821L11.0776 9.30101ZM11.2326 10.5486L10.3626 11.9568L10.6543 12.137L11.5243 10.7288L11.2326 10.5486ZM10.398 12.178L12.2265 13.7189L12.4474 13.4568L10.619 11.9159L10.398 12.178ZM12.3673 13.7566L13.0775 13.6288L13.0168 13.2913L12.3066 13.4191L12.3673 13.7566ZM12.8817 13.5049L13.0857 14.257L13.4166 14.1672L13.2126 13.4152L12.8817 13.5049ZM13.0811 14.234C13.1011 14.3884 13.1777 14.9421 13.2865 15.5357L13.6238 15.4739C13.5163 14.8879 13.4406 14.3405 13.4212 14.1902L13.0811 14.234ZM13.2865 15.5356C13.5418 16.935 13.7371 17.2703 13.9385 17.4717L14.1809 17.2292C14.0628 17.1111 13.8796 16.8763 13.6238 15.474L13.2865 15.5356ZM13.9385 17.4717C14.0594 17.5926 14.2465 17.6915 14.4677 17.6915V17.3486C14.3497 17.3486 14.2468 17.2951 14.1809 17.2292L13.9385 17.4717ZM14.4677 17.6915C14.5933 17.6915 14.7255 17.6592 14.8578 17.5916L14.7018 17.2863C14.6129 17.3317 14.5338 17.3486 14.4677 17.3486V17.6915ZM14.8619 17.5894C14.9233 17.5559 14.9887 17.5149 15.068 17.4567L14.8652 17.1803C14.797 17.2303 14.7444 17.2629 14.6977 17.2884L14.8619 17.5894ZM15.0694 17.4556C15.1717 17.3789 15.3025 17.2732 15.471 17.1294L15.2485 16.8686C15.0829 17.0099 14.9581 17.1106 14.8637 17.1814L15.0694 17.4556ZM15.4712 17.1293C15.7613 16.8814 16.1077 16.5647 16.3846 16.3122L16.1536 16.0589C15.8751 16.3127 15.5334 16.6251 15.2484 16.8687L15.4712 17.1293ZM16.385 16.3118C16.5671 16.1448 16.7651 15.966 16.8179 15.9243L16.6051 15.6555C16.5399 15.7071 16.3299 15.897 16.1532 16.0593L16.385 16.3118ZM16.8103 15.9299C16.9766 15.8125 17.1459 15.5955 17.131 15.2251L16.7884 15.2389C16.798 15.478 16.697 15.5903 16.6126 15.6498L16.8103 15.9299ZM17.131 15.2249C17.1282 15.1581 17.12 15.0808 17.1075 14.9879L16.7677 15.0338C16.7797 15.1227 16.7863 15.1879 16.7884 15.2391L17.131 15.2249ZM17.1075 14.9884C17.0898 14.8539 17.0597 14.6736 17.0202 14.4567L16.6829 14.518C16.7221 14.7336 16.751 14.9073 16.7676 15.0333L17.1075 14.9884ZM17.0204 14.4577C16.9955 14.3155 16.9681 14.1761 16.9432 14.0567L16.6076 14.1266C16.6318 14.2432 16.6585 14.379 16.6827 14.517L17.0204 14.4577ZM16.8875 14.2213L17.9984 13.2604L17.7741 13.0011L16.6632 13.962L16.8875 14.2213ZM18.0406 13.0561L17.3967 11.7241L17.088 11.8733L17.7319 13.2054L18.0406 13.0561ZM17.3927 11.881L17.7613 11.2077L17.4606 11.043L17.092 11.7164L17.3927 11.881ZM17.616 11.2967L19.8819 11.2303L19.8719 10.8876L17.6059 10.954L17.616 11.2967ZM19.7055 11.0576C19.6669 15.8273 15.7767 19.6956 11.0025 19.6956V20.0385C15.9653 20.0385 20.0082 16.0179 20.0483 11.0604L19.7055 11.0576Z" fill="#00DFD8"/>
</g>
</svg>
