<svg width="146" height="42" viewBox="0 0 146 42" fill="none" xmlns="http://www.w3.org/2000/svg">
<path d="M58.0916 31.4063C56.6829 31.4063 55.4188 31.1896 54.2991 30.7562C53.1794 30.3228 52.2313 29.6907 51.4548 28.86C50.6782 28.0112 50.0823 26.9818 49.6669 25.7718C49.2515 24.5619 49.0439 23.1713 49.0439 21.6002C49.0439 20.029 49.2786 18.6384 49.7482 17.4285C50.2358 16.2185 50.8949 15.1981 51.7257 14.3674C52.5564 13.5186 53.5316 12.8775 54.6513 12.4441C55.7709 12.0107 56.9719 11.794 58.2541 11.794C59.0306 11.794 59.7349 11.8572 60.367 11.9836C60.9991 12.092 61.5499 12.2184 62.0194 12.3628C62.489 12.5073 62.8773 12.6608 63.1843 12.8234C63.4913 12.9859 63.708 13.1033 63.8344 13.1755L62.8321 15.9657C62.3987 15.6948 61.7756 15.4419 60.963 15.2072C60.1684 14.9543 59.3015 14.8279 58.3624 14.8279C57.5498 14.8279 56.7913 14.9724 56.087 15.2614C55.3827 15.5322 54.7687 15.9476 54.2449 16.5074C53.7393 17.0673 53.342 17.7716 53.053 18.6204C52.7641 19.4692 52.6196 20.4534 52.6196 21.5731C52.6196 22.5663 52.728 23.4783 52.9447 24.309C53.1794 25.1398 53.5316 25.8621 54.0011 26.4762C54.4707 27.0721 55.0666 27.5417 55.789 27.8848C56.5114 28.2098 57.3782 28.3724 58.3895 28.3724C59.5995 28.3724 60.5837 28.255 61.3422 28.0202C62.1007 27.7674 62.6876 27.5326 63.103 27.3159L64.024 30.1061C63.8073 30.2505 63.5093 30.395 63.1301 30.5395C62.7689 30.684 62.3355 30.8284 61.8298 30.9729C61.3242 31.0993 60.7553 31.1987 60.1232 31.2709C59.4911 31.3612 58.8139 31.4063 58.0916 31.4063ZM66.8601 31V10.5208L70.1379 9.979V16.995C70.499 16.8686 70.9144 16.7603 71.3839 16.67C71.8715 16.5797 72.3501 16.5345 72.8197 16.5345C73.9574 16.5345 74.8965 16.6971 75.6369 17.0221C76.3954 17.3291 77.0004 17.7716 77.4519 18.3495C77.9033 18.9093 78.2194 19.5865 78.4 20.3812C78.5986 21.1758 78.6979 22.0607 78.6979 23.0359V31H75.4202V23.5506C75.4202 22.7921 75.366 22.151 75.2577 21.6272C75.1674 21.0855 75.0048 20.652 74.7701 20.327C74.5533 19.9839 74.2554 19.7401 73.8761 19.5956C73.4969 19.433 73.0273 19.3518 72.4675 19.3518C72.0341 19.3518 71.5916 19.3969 71.1401 19.4872C70.6887 19.5775 70.3546 19.6588 70.1379 19.731V31H66.8601ZM90.6992 19.7852C90.4283 19.6949 90.049 19.6046 89.5614 19.5143C89.0919 19.406 88.5411 19.3518 87.909 19.3518C87.5478 19.3518 87.1596 19.3879 86.7442 19.4601C86.3469 19.5324 86.067 19.5956 85.9044 19.6498V31H82.6267V17.5097C83.2588 17.275 84.0443 17.0583 84.9834 16.8596C85.9406 16.6429 86.997 16.5345 88.1528 16.5345C88.3695 16.5345 88.6224 16.5526 88.9113 16.5887C89.2003 16.6068 89.4892 16.6429 89.7781 16.6971C90.0671 16.7332 90.347 16.7874 90.6179 16.8596C90.8888 16.9138 91.1055 16.968 91.268 17.0221L90.6992 19.7852ZM106.365 23.9027C106.365 25.0224 106.203 26.0427 105.878 26.9638C105.553 27.8848 105.092 28.6704 104.496 29.3205C103.9 29.9706 103.178 30.4763 102.329 30.8375C101.498 31.1987 100.577 31.3792 99.5659 31.3792C98.5546 31.3792 97.6336 31.1987 96.8028 30.8375C95.9721 30.4763 95.2588 29.9706 94.6628 29.3205C94.0669 28.6704 93.5973 27.8848 93.2542 26.9638C92.9291 26.0427 92.7666 25.0224 92.7666 23.9027C92.7666 22.783 92.9291 21.7717 93.2542 20.8688C93.5973 19.9477 94.0669 19.1622 94.6628 18.512C95.2768 17.8619 95.9992 17.3653 96.8299 17.0221C97.6607 16.6609 98.5727 16.4804 99.5659 16.4804C100.559 16.4804 101.471 16.6609 102.302 17.0221C103.151 17.3653 103.873 17.8619 104.469 18.512C105.065 19.1622 105.526 19.9477 105.851 20.8688C106.194 21.7717 106.365 22.783 106.365 23.9027ZM103.006 23.9027C103.006 22.4941 102.699 21.3834 102.085 20.5708C101.489 19.7401 100.65 19.3247 99.5659 19.3247C98.4824 19.3247 97.6336 19.7401 97.0196 20.5708C96.4236 21.3834 96.1256 22.4941 96.1256 23.9027C96.1256 25.3294 96.4236 26.4581 97.0196 27.2888C97.6336 28.1195 98.4824 28.5349 99.5659 28.5349C100.65 28.5349 101.489 28.1195 102.085 27.2888C102.699 26.4581 103.006 25.3294 103.006 23.9027ZM117.815 23.5506C117.815 22.0697 117.625 21.0042 117.246 20.3541C116.885 19.6859 116.198 19.3518 115.187 19.3518C114.826 19.3518 114.429 19.3789 113.995 19.433C113.562 19.4872 113.237 19.5324 113.02 19.5685V31H109.742V17.293C110.374 17.1124 111.196 16.9409 112.207 16.7783C113.237 16.6158 114.32 16.5345 115.458 16.5345C116.433 16.5345 117.228 16.6609 117.842 16.9138C118.474 17.1666 118.998 17.5007 119.413 17.9161C119.612 17.7716 119.864 17.6181 120.171 17.4556C120.478 17.293 120.822 17.1485 121.201 17.0221C121.58 16.8777 121.977 16.7603 122.393 16.67C122.826 16.5797 123.26 16.5345 123.693 16.5345C124.795 16.5345 125.698 16.6971 126.402 17.0221C127.124 17.3291 127.684 17.7716 128.081 18.3495C128.497 18.9093 128.777 19.5956 128.921 20.4082C129.084 21.2029 129.165 22.0787 129.165 23.0359V31H125.887V23.5506C125.887 22.0697 125.707 21.0042 125.345 20.3541C124.984 19.6859 124.289 19.3518 123.26 19.3518C122.736 19.3518 122.239 19.4421 121.77 19.6227C121.3 19.7852 120.948 19.9477 120.713 20.1103C120.858 20.5617 120.957 21.0403 121.011 21.546C121.065 22.0516 121.092 22.5934 121.092 23.1713V31H117.815V23.5506ZM132.395 23.984C132.395 22.7379 132.575 21.6453 132.937 20.7062C133.316 19.7671 133.813 18.9906 134.427 18.3766C135.041 17.7445 135.745 17.275 136.539 16.968C137.334 16.6429 138.147 16.4804 138.977 16.4804C140.928 16.4804 142.445 17.0853 143.528 18.2953C144.63 19.5053 145.181 21.3112 145.181 23.7131C145.181 23.8937 145.172 24.1014 145.154 24.3361C145.154 24.5528 145.145 24.7515 145.127 24.9321H135.781C135.871 26.0698 136.269 26.9547 136.973 27.5868C137.695 28.2008 138.734 28.5078 140.088 28.5078C140.883 28.5078 141.605 28.4356 142.255 28.2911C142.923 28.1466 143.447 27.9931 143.826 27.8306L144.26 30.5124C144.079 30.6027 143.826 30.702 143.501 30.8104C143.194 30.9007 142.833 30.9819 142.418 31.0542C142.02 31.1445 141.587 31.2167 141.118 31.2709C140.648 31.3251 140.169 31.3522 139.682 31.3522C138.436 31.3522 137.352 31.1716 136.431 30.8104C135.51 30.4311 134.752 29.9164 134.156 29.2663C133.56 28.5981 133.117 27.8216 132.828 26.9367C132.539 26.0337 132.395 25.0495 132.395 23.984ZM141.903 22.5212C141.903 22.0697 141.84 21.6453 141.713 21.248C141.587 20.8326 141.397 20.4805 141.145 20.1915C140.91 19.8845 140.612 19.6498 140.251 19.4872C139.908 19.3066 139.492 19.2163 139.005 19.2163C138.499 19.2163 138.056 19.3157 137.677 19.5143C137.298 19.6949 136.973 19.9387 136.702 20.2457C136.449 20.5527 136.251 20.9049 136.106 21.3022C135.962 21.6995 135.862 22.1058 135.808 22.5212H141.903Z" fill="white"/>
<path d="M20.8819 0.00363178C20.8819 0.00363178 32.9265 -0.536872 39.3123 11.5698H19.8571C19.8571 11.5698 16.1855 11.4514 13.0491 15.9056C12.1482 17.7751 11.1797 19.701 12.2665 23.4963C10.701 20.844 3.95508 9.09783 3.95508 9.09783C3.95508 9.09783 8.71326 0.482249 20.8818 0.00363178H20.8819Z" fill="#EA4335"/>
<path d="M38.6869 30.7375C38.6869 30.7375 33.129 41.442 19.457 40.9127C21.1463 37.9902 29.1874 24.0647 29.1874 24.0647C29.1874 24.0647 31.1301 20.9452 28.8383 16.0012C27.6725 14.2837 26.4844 12.4874 22.6554 11.53C25.7357 11.502 39.2783 11.53 39.2783 11.53C39.2783 11.53 44.3517 19.9598 38.6869 30.7375Z" fill="#FBBC05"/>
<path d="M3.16105 30.8234C3.16105 30.8234 -3.33154 20.6593 3.96621 9.08203C5.64992 12.0046 13.6909 25.93 13.6909 25.93C13.6909 25.93 15.4253 29.1735 20.848 29.6576C22.9147 29.5057 25.0656 29.3762 27.8137 26.5438C26.2987 29.2242 19.502 40.9367 19.502 40.9367C19.502 40.9367 9.65908 41.1169 3.16089 30.8234H3.16105Z" fill="#34A853"/>
<path d="M19.4512 41.0148L22.1877 29.5951C22.1877 29.5951 25.1947 29.3584 27.7175 26.5938C26.152 29.3473 19.4512 41.0148 19.4512 41.0148Z" fill="#259C45"/>
<path d="M11.7139 20.6342C11.7139 15.6001 15.7964 11.5176 20.8305 11.5176C25.8645 11.5176 29.947 15.6001 29.947 20.6342C29.947 25.6684 25.8645 29.7508 20.8305 29.7508C15.7964 29.7452 11.7139 25.6684 11.7139 20.6342Z" fill="white"/>
<path d="M13.2402 20.6374C13.2402 16.448 16.6358 13.0469 20.8309 13.0469C25.0203 13.0469 28.4215 16.4424 28.4215 20.6374C28.4215 24.827 25.0261 28.2281 20.8309 28.2281C16.6414 28.2281 13.2402 24.827 13.2402 20.6374Z" fill="url(#paint0_linear_155_5675)"/>
<path d="M39.2721 11.5368L28.0044 14.8422C28.0044 14.8422 26.3039 12.3476 22.6494 11.5368C25.8197 11.5199 39.2721 11.5368 39.2721 11.5368Z" fill="#E0A201"/>
<path d="M12.0469 23.0794C10.4645 20.3371 3.95508 9.09766 3.95508 9.09766L12.3003 17.3526C12.3003 17.3526 11.4442 19.1152 11.7653 21.6378L12.0468 23.0794H12.0469Z" fill="#D33224"/>
<defs>
<linearGradient id="paint0_linear_155_5675" x1="20.8306" y1="13.1541" x2="20.8306" y2="27.7712" gradientUnits="userSpaceOnUse">
<stop stop-color="#86BBE5"/>
<stop offset="1" stop-color="#1072BA"/>
</linearGradient>
</defs>
</svg>
