<svg width="76" height="75" viewBox="0 0 76 75" fill="none" xmlns="http://www.w3.org/2000/svg">
<g id="MEX" clip-path="url(#clip0_746_3772)">
<path id="Vector" d="M38 75C58.7107 75 75.5 58.2107 75.5 37.5C75.5 16.7893 58.7107 0 38 0C17.2893 0 0.5 16.7893 0.5 37.5C0.5 58.2107 17.2893 75 38 75Z" fill="#F0F0F0"/>
<path id="Vector_2" d="M75.5004 37.5002C75.5004 22.6329 66.8483 9.78535 54.3047 3.72119V71.279C66.8483 65.215 75.5004 52.3675 75.5004 37.5002Z" fill="#D80027"/>
<path id="Vector_3" d="M0.5 37.5002C0.5 52.3675 9.1521 65.215 21.6957 71.2792V3.72119C9.1521 9.78535 0.5 22.6329 0.5 37.5002ZM28.2173 37.5002C28.2173 42.903 32.5972 47.2828 38 47.2828C43.4028 47.2828 47.7827 42.903 47.7827 37.5002V34.2394H28.2173V37.5002Z" fill="#6DA544"/>
<path id="Vector_4" d="M51.0438 30.978H41.2612C41.2612 29.1771 39.8012 27.7173 38.0004 27.7173C36.1997 27.7173 34.7397 29.1773 34.7397 30.978H24.957C24.957 32.7791 26.5259 34.2388 28.3265 34.2388H28.2181C28.2181 36.0398 29.6779 37.4995 31.4788 37.4995C31.4788 39.3005 32.9387 40.7603 34.7396 40.7603H41.2613C43.0624 40.7603 44.5221 39.3004 44.5221 37.4995C46.3231 37.4995 47.7828 36.0396 47.7828 34.2388H47.6741C49.4751 34.2388 51.0437 32.7789 51.0437 30.978H51.0438Z" fill="#FF9811"/>
</g>
<defs>
<clipPath id="clip0_746_3772">
<rect width="75" height="75" fill="white" transform="translate(0.5)"/>
</clipPath>
</defs>
</svg>
