<svg width="75" height="75" viewBox="0 0 75 75" fill="none" xmlns="http://www.w3.org/2000/svg">
<g clip-path="url(#clip0_4_727)">
<path d="M75 37.5C75 16.7893 58.2107 0 37.5 0C16.7893 0 0 16.7893 0 37.5C0 58.2107 16.7893 75 37.5 75C58.2107 75 75 58.2107 75 37.5Z" fill="white"/>
<path d="M-14.8887 -1.29272H89.9498V24.9333H-14.8887V-1.29272Z" fill="#FFDA44"/>
<path d="M-14.8887 51.1428H89.9498V77.3525H-14.8887V51.1428Z" fill="#DE2110"/>
<path d="M-14.8887 24.9331H89.9498V51.1426H-14.8887V24.9331Z" fill="#1EB53A"/>
<path d="M20.502 64.0986L28.1563 33.8452L46.9093 47.4699L20.502 64.0986Z" fill="white"/>
<path d="M9.97559 31.7026L41.1138 29.6338L33.9507 51.679L9.97559 31.7026Z" fill="white"/>
<path d="M37.5322 11.6843L49.1222 40.659H25.9424L37.5322 11.6843Z" fill="white"/>
<path d="M65.0874 31.7024L41.1122 51.679L33.9492 29.6338L65.0874 31.7024Z" fill="white"/>
<path d="M54.5674 64.0986L28.1601 47.4699L46.9131 33.8452L54.5674 64.0986Z" fill="white"/>
</g>
<defs>
<clipPath id="clip0_4_727">
<rect width="75" height="75" rx="37.5" fill="white"/>
</clipPath>
</defs>
</svg>
