<svg width="88" height="88" viewBox="0 0 88 88" fill="none" xmlns="http://www.w3.org/2000/svg">
<g clip-path="url(#clip0_155_5378)">
<path d="M56.801 39.6643C56.801 43.9861 55.4221 47.3612 52.6644 49.7896C49.9068 52.1768 46.5728 53.3704 42.6627 53.3704C38.7114 53.3704 35.3569 52.1768 32.5992 49.7896C29.8827 47.3612 28.5244 43.9861 28.5244 39.6643V22.3774C28.5244 18.0557 29.9033 14.7012 32.661 12.3139C35.4186 9.88551 38.7526 8.6713 42.6627 8.6713C46.614 8.6713 49.9479 9.88551 52.6644 12.3139C55.4221 14.7012 56.801 18.0557 56.801 22.3774V39.6643ZM46.6757 39.7261V22.3774C46.6757 20.8957 46.2847 19.7638 45.5027 18.9817C44.7207 18.1997 43.774 17.8087 42.6627 17.8087C41.5514 17.8087 40.6047 18.1997 39.8227 18.9817C39.0407 19.7226 38.6497 20.8545 38.6497 22.3774V39.7261C38.6497 42.7307 39.9873 44.233 42.6627 44.233C45.3381 44.233 46.6757 42.7307 46.6757 39.7261ZM81.1672 53H71.042V19.8461L61.6576 27.9957V17.1913L71.042 9.04174H81.1672V53Z" fill="url(#paint0_linear_155_5378)"/>
<path d="M43.0784 56.164C41.9907 53.5986 40.4408 51.2931 38.4578 49.3149C36.4796 47.3367 34.1741 45.782 31.6087 44.6942C28.9518 43.568 26.1313 43 23.2193 43C20.3074 43 17.4869 43.568 14.83 44.6942C12.2646 45.782 9.95909 47.3318 7.98088 49.3149C6.00267 51.2931 4.44802 53.5986 3.36025 56.164C2.23397 58.8209 1.66602 61.6462 1.66602 64.5533C1.66602 67.4605 2.23397 70.2858 3.36025 72.9427C4.44802 75.5081 5.99786 77.8136 7.98088 79.7918C9.95909 81.77 12.2646 83.3246 14.83 84.4124C17.4869 85.5387 20.3122 86.1066 23.2193 86.1066C26.1265 86.1066 28.9518 85.5387 31.6087 84.4124C34.1741 83.3246 36.4796 81.7748 38.4578 79.7918C40.436 77.8136 41.9907 75.5081 43.0784 72.9427C44.2047 70.2858 44.7727 67.4605 44.7727 64.5533C44.7727 61.6462 44.2047 58.8209 43.0784 56.164ZM23.2193 82.2128C13.4823 82.2128 5.55986 74.2903 5.55986 64.5533C5.55986 54.8163 13.4823 46.8938 23.2193 46.8938C32.9564 46.8938 40.8788 54.8163 40.8788 64.5533C40.8788 74.2903 32.9612 82.2128 23.2193 82.2128Z" fill="url(#paint1_linear_155_5378)"/>
<path d="M30.3538 65.156L30.3532 65.1555C29.61 64.4968 28.4637 64.568 27.8039 65.3122C27.8039 65.3123 27.8038 65.3123 27.8038 65.3123L25.436 67.9929L24.9987 68.4881V67.8274V57.638C24.9987 57.5862 24.9946 57.5278 24.9898 57.4646L24.9883 57.4461L24.9897 57.4276C24.9945 57.3601 24.9987 57.296 24.9987 57.2337V55.7753C24.9987 54.7967 24.1961 53.9941 23.2175 53.9941C22.2389 53.9941 21.4363 54.7967 21.4363 55.7753V57.2337C21.4363 57.2996 21.4404 57.3614 21.4489 57.4289L21.4521 57.4547L21.4499 57.4807C21.445 57.5396 21.4412 57.5873 21.4412 57.638V67.8226V68.4824L21.0039 67.9883L18.636 65.3123C17.9763 64.568 16.8298 64.4967 16.0866 65.1555C15.3422 65.8153 15.271 66.9617 15.9298 67.7049L15.9299 67.7051L21.8646 74.4147L21.8657 74.416C22.0324 74.6071 22.2305 74.7511 22.4499 74.8521L22.4777 74.8632L22.5292 74.8838H22.5449L22.5921 74.9074L22.5934 74.9078L22.6043 74.9105L22.6136 74.9129L22.6227 74.9159L22.6251 74.9167C22.6325 74.9191 22.6499 74.9248 22.6689 74.9326L22.6749 74.9343C22.6819 74.9363 22.6959 74.9403 22.7093 74.9448H22.7094C22.7096 74.9448 22.7106 74.9452 22.7129 74.9459L22.723 74.9488C22.7283 74.9503 22.7376 74.9529 22.7475 74.956H22.7525L22.7824 74.9635L22.7857 74.9643C22.7996 74.9678 22.8215 74.9732 22.8424 74.9796C22.847 74.9805 22.8566 74.9823 22.8673 74.9851C22.8719 74.9863 22.8778 74.9879 22.8845 74.99C22.9016 74.9908 22.9164 74.9928 22.9264 74.9945H22.9402L22.9649 75.0007C22.966 75.0008 22.9675 75.001 22.9693 75.0013L22.971 75.0015C22.9766 75.0021 22.9876 75.0035 23.0011 75.0059C23.0042 75.0062 23.007 75.0066 23.0096 75.0069C23.0165 75.0078 23.0227 75.0088 23.0273 75.0096C23.0334 75.0099 23.0388 75.0104 23.0435 75.0108C23.0523 75.0116 23.0604 75.0126 23.0648 75.0132L23.0656 75.0133L23.0691 75.0137C23.0802 75.0137 23.1039 75.0139 23.1329 75.0186H23.2973L23.3117 75.0138H23.3463L23.3501 75.0133C23.3543 75.0128 23.3629 75.0117 23.3723 75.0108C23.3782 75.0102 23.3853 75.0097 23.3934 75.0093L23.4025 75.0078C23.4052 75.0074 23.4085 75.0069 23.4123 75.0064C23.4148 75.0061 23.4175 75.0058 23.4204 75.0055C23.4246 75.0051 23.4298 75.0047 23.4357 75.0044L23.4457 75.002L23.4755 74.9945H23.4894C23.4949 74.9936 23.5019 74.9925 23.51 74.9916C23.5239 74.9891 23.5353 74.9877 23.541 74.987L23.5427 74.9868L30.3538 65.156ZM30.3538 65.156C31.0967 65.8103 31.1686 66.9593 30.4929 67.7026L30.4907 67.705L24.5513 74.4146L24.5501 74.416C24.3839 74.6065 24.1809 74.7514 23.9628 74.8533L23.9381 74.8632L23.8883 74.8831C23.8754 74.8864 23.8647 74.89 23.8565 74.8931C23.8509 74.8952 23.8454 74.8975 23.8405 74.8996C23.8382 74.9004 23.8361 74.9011 23.8341 74.9018C23.8255 74.9047 23.8174 74.9078 23.8132 74.9094L23.807 74.9116M30.3538 65.156L23.807 74.9116L30.3538 65.156ZM23.5614 74.9827L23.5804 74.9779L23.6049 74.9717L23.6125 74.9696C23.6144 74.969 23.6151 74.9688 23.6149 74.9688H23.615C23.6303 74.9637 23.6438 74.9605 23.6538 74.9584C23.6604 74.957 23.6666 74.9559 23.6707 74.9552C23.6797 74.9525 23.6879 74.9502 23.6927 74.9488L23.7029 74.9459C23.7051 74.9452 23.7062 74.9448 23.7064 74.9448L23.5614 74.9827ZM23.5614 74.9827H23.5613C23.5568 74.9837 23.5513 74.9849 23.5451 74.9865C23.5538 74.9854 23.5487 74.9858 23.5419 74.9875L23.5614 74.9827ZM23.807 74.9116L23.7848 74.9172L23.767 74.9261L23.7638 74.9272L23.7545 74.9303C23.7543 74.9304 23.7533 74.9307 23.751 74.9314L23.7408 74.9343C23.7338 74.9363 23.7198 74.9403 23.7064 74.9448L23.807 74.9116ZM23.4765 74.997C23.4741 74.9974 23.4744 74.9973 23.4766 74.9969L23.4765 74.997ZM23.4485 75.0041C23.4478 75.0041 23.447 75.0041 23.4462 75.0042L23.4485 75.0041ZM23.0373 75.0114L23.0371 75.0113L23.0373 75.0114ZM22.9392 74.997L22.9391 74.9969L22.9392 74.997ZM22.871 74.9897C22.8718 74.9897 22.8725 74.9897 22.8733 74.9897H22.871ZM22.8538 74.9833H22.8537H22.8538Z" fill="url(#paint2_linear_155_5378)"/>
</g>
<defs>
<linearGradient id="paint0_linear_155_5378" x1="25.4992" y1="13.9565" x2="90.4992" y2="13.9565" gradientUnits="userSpaceOnUse">
<stop stop-color="#1AFFF8"/>
<stop offset="1" stop-color="#00908C"/>
</linearGradient>
<linearGradient id="paint1_linear_155_5378" x1="24.3952" y1="43.1102" x2="24.3952" y2="85.9968" gradientUnits="userSpaceOnUse">
<stop stop-color="#00DFD8"/>
<stop offset="1" stop-color="#00908C"/>
</linearGradient>
<linearGradient id="paint2_linear_155_5378" x1="23.6543" y1="53.7992" x2="23.6543" y2="75.2137" gradientUnits="userSpaceOnUse">
<stop stop-color="#1AFFF8"/>
<stop offset="1" stop-color="#1AFFF8"/>
</linearGradient>
<clipPath id="clip0_155_5378">
<rect width="88" height="88" fill="white"/>
</clipPath>
</defs>
</svg>
