<svg width="89" height="88" viewBox="0 0 89 88" fill="none" xmlns="http://www.w3.org/2000/svg">
<path d="M56.468 39.6643C56.468 43.9861 55.0891 47.3612 52.3314 49.7896C49.5738 52.1768 46.2398 53.3704 42.3297 53.3704C38.3784 53.3704 35.0239 52.1768 32.2662 49.7896C29.5497 47.3612 28.1914 43.9861 28.1914 39.6643V22.3774C28.1914 18.0557 29.5703 14.7012 32.328 12.3139C35.0856 9.88551 38.4195 8.6713 42.3297 8.6713C46.281 8.6713 49.6149 9.88551 52.3314 12.3139C55.0891 14.7012 56.468 18.0557 56.468 22.3774V39.6643ZM46.3427 39.7261V22.3774C46.3427 20.8957 45.9517 19.7638 45.1697 18.9817C44.3877 18.1997 43.441 17.8087 42.3297 17.8087C41.2184 17.8087 40.2717 18.1997 39.4897 18.9817C38.7077 19.7226 38.3167 20.8545 38.3167 22.3774V39.7261C38.3167 42.7307 39.6543 44.233 42.3297 44.233C45.0051 44.233 46.3427 42.7307 46.3427 39.7261ZM87.3168 53H59.0403V43.8626L74.969 26.5757C76.4507 24.9704 77.1916 23.4064 77.1916 21.8835C77.1916 19.167 75.8745 17.8087 73.2403 17.8087C70.5237 17.8087 69.1655 19.2287 69.1655 22.0687H59.0403C59.0403 17.9939 60.3985 14.7423 63.115 12.3139C65.8727 9.88551 69.2478 8.6713 73.2403 8.6713C77.3562 8.6713 80.7313 9.86493 83.3655 12.2522C85.9997 14.6394 87.3168 17.8704 87.3168 21.9452C87.3168 24.1267 86.9052 25.9583 86.082 27.44C85.2588 28.8806 83.8594 30.6504 81.8837 32.7496L71.3881 43.8626H87.3168V53Z" fill="url(#paint0_linear_155_5513)"/>
<path fill-rule="evenodd" clip-rule="evenodd" d="M23.7797 87H21.8882C18.0383 87 14.346 85.4706 11.6237 82.7483C8.90144 80.026 7.37207 76.3338 7.37207 72.4839V53.4369C7.37207 50.4037 8.57703 47.4946 10.7219 45.3498C12.8667 43.205 15.7758 42 18.809 42H26.8589C28.3608 42 29.848 42.2958 31.2356 42.8706C32.6232 43.4453 33.884 44.2878 34.946 45.3498C36.008 46.4118 36.8505 47.6726 37.4252 49.0602C38 50.4478 38.2958 51.935 38.2958 53.4369V72.4839C38.2958 76.3338 36.7665 80.026 34.0441 82.7483C31.3218 85.4706 27.6296 87 23.7797 87ZM18.809 45.5191C14.4542 45.5191 10.8911 49.0821 10.8911 53.4369V56.6915H18.0186V52.3812C18.0186 51.2146 18.482 50.0957 19.3069 49.2708C19.8126 48.7652 20.4286 48.3954 21.0984 48.1848V45.5191H18.809ZM18.2351 60.2106C18.4478 60.8633 18.8124 61.4635 19.3069 61.958C20.1319 62.7829 21.2507 63.2464 22.4174 63.2464H23.2532C24.4198 63.2464 25.5387 62.7829 26.3636 61.958C26.8581 61.4635 27.2227 60.8633 27.4355 60.2106H34.7768V72.4839C34.7768 78.5543 29.8501 83.4809 23.7797 83.4809H21.8882C15.8178 83.4809 10.8911 78.5543 10.8911 72.4839V60.2106H18.2351ZM34.7768 56.6915V53.4369C34.7768 49.0821 31.2137 45.5191 26.8589 45.5191H24.6175V48.1993C25.2697 48.4122 25.8694 48.7766 26.3636 49.2708C27.1885 50.0957 27.652 51.2146 27.652 52.3812V56.6915H34.7768ZM22.4174 51.5015C22.3018 51.5015 22.1874 51.5242 22.0807 51.5685C21.974 51.6127 21.877 51.6775 21.7953 51.7592C21.7136 51.8409 21.6488 51.9378 21.6046 52.0446C21.5604 52.1513 21.5376 52.2657 21.5376 52.3812V58.8475C21.5376 58.9631 21.5604 59.0775 21.6046 59.1842C21.6488 59.2909 21.7136 59.3879 21.7953 59.4696C21.877 59.5513 21.974 59.6161 22.0807 59.6603C22.1874 59.7045 22.3018 59.7273 22.4174 59.7273H23.2532C23.3687 59.7273 23.4831 59.7045 23.5898 59.6603C23.6966 59.6161 23.7936 59.5513 23.8752 59.4696C23.9569 59.3879 24.0217 59.2909 24.066 59.1842C24.1102 59.0775 24.1329 58.9631 24.1329 58.8475V52.3812C24.1329 52.2657 24.1102 52.1513 24.066 52.0446C24.0217 51.9378 23.9569 51.8409 23.8752 51.7592C23.7936 51.6775 23.6966 51.6127 23.5898 51.5685C23.4831 51.5242 23.3687 51.5015 23.2532 51.5015H22.4174Z" fill="url(#paint1_linear_155_5513)"/>
<defs>
<linearGradient id="paint0_linear_155_5513" x1="25.1662" y1="13.9565" x2="90.1662" y2="13.9565" gradientUnits="userSpaceOnUse">
<stop stop-color="#00DFD8"/>
<stop offset="1" stop-color="#00908C"/>
</linearGradient>
<linearGradient id="paint1_linear_155_5513" x1="23.6775" y1="42.1151" x2="23.6775" y2="86.8853" gradientUnits="userSpaceOnUse">
<stop stop-color="#1AFFF8"/>
<stop offset="1" stop-color="#00908C"/>
</linearGradient>
</defs>
</svg>
