<svg width="89" height="88" viewBox="0 0 89 88" fill="none" xmlns="http://www.w3.org/2000/svg">
<path d="M57.1349 39.6643C57.1349 43.9861 55.7561 47.3612 52.9984 49.7896C50.2407 52.1768 46.9068 53.3704 42.9967 53.3704C39.0454 53.3704 35.6909 52.1768 32.9332 49.7896C30.2167 47.3612 28.8584 43.9861 28.8584 39.6643V22.3774C28.8584 18.0557 30.2373 14.7012 32.9949 12.3139C35.7526 9.88551 39.0865 8.6713 42.9967 8.6713C46.948 8.6713 50.2819 9.88551 52.9984 12.3139C55.7561 14.7012 57.1349 18.0557 57.1349 22.3774V39.6643ZM47.0097 39.7261V22.3774C47.0097 20.8957 46.6187 19.7638 45.8367 18.9817C45.0547 18.1997 44.108 17.8087 42.9967 17.8087C41.8854 17.8087 40.9387 18.1997 40.1567 18.9817C39.3747 19.7226 38.9836 20.8545 38.9836 22.3774V39.7261C38.9836 42.7307 40.3213 44.233 42.9967 44.233C45.672 44.233 47.0097 42.7307 47.0097 39.7261ZM88.2925 39.8496C88.2925 44.1713 86.893 47.5052 84.0942 49.8513C81.3365 52.1974 77.8586 53.3704 73.6603 53.3704C69.5855 53.3704 66.1281 52.2386 63.2881 49.9748C60.4481 47.6699 59.0281 44.2125 59.0281 39.6026H69.1533C69.1533 41.0843 69.5649 42.2368 70.3881 43.06C71.2936 43.842 72.3843 44.233 73.6603 44.233C76.6649 44.233 78.1672 42.669 78.1672 39.5409C78.1672 38.2649 77.7145 37.1742 76.809 36.2687C75.9035 35.3632 74.7922 34.9104 73.4751 34.9104H72.0551V26.1435H73.4751C74.8333 26.1435 75.8623 25.7319 76.562 24.9087C77.3029 24.0443 77.6733 23.0771 77.6733 22.007C77.6733 20.731 77.2823 19.7226 76.5003 18.9817C75.7594 18.1997 74.8128 17.8087 73.6603 17.8087C72.5901 17.8087 71.6435 18.1997 70.8203 18.9817C70.0383 19.7226 69.6472 20.7104 69.6472 21.9452H59.522C59.522 17.9528 60.8597 14.7423 63.5351 12.3139C66.2104 9.88551 69.5855 8.6713 73.6603 8.6713C77.6939 8.6713 81.0484 9.90609 83.7238 12.3757C86.4403 14.8041 87.7986 17.9116 87.7986 21.6983C87.7986 25.4849 86.2757 28.3455 83.2299 30.28C86.6049 32.6672 88.2925 35.8571 88.2925 39.8496Z" fill="url(#paint0_linear_155_5519)"/>
<path d="M24 41.207C11.904 41.207 2.20801 50.903 2.20801 62.999C2.20801 75.095 11.904 84.887 24 84.887C36.096 84.887 45.888 75.095 45.888 62.999C45.888 50.903 36.096 41.207 24 41.207ZM30.432 45.911C28.8 46.871 26.88 48.503 26.016 51.095C25.728 51.575 25.728 51.671 23.904 51.383C22.848 51.095 21.504 50.903 20.448 51.671C19.776 52.151 19.392 53.015 19.2 54.167C19.008 55.607 19.392 57.143 20.16 58.583C20.352 59.063 20.544 59.255 20.64 59.543C20.928 60.215 20.64 60.887 20.448 61.079C20.352 60.983 20.16 60.887 20.064 60.599C17.76 57.527 14.688 57.239 13.632 57.143C13.248 57.143 12.192 56.951 11.808 56.471C11.52 55.991 11.616 55.223 12.096 54.263C12.768 52.439 12.768 50.999 12 50.039C11.808 49.847 11.712 49.655 11.52 49.559C14.88 46.487 19.296 44.663 24 44.663C26.304 44.663 28.416 45.047 30.432 45.911ZM5.66401 62.999C5.66401 58.679 7.20001 54.551 9.88801 51.383C9.98401 51.383 10.08 51.479 10.176 51.479C10.272 51.575 10.368 51.959 9.88801 53.111C9.12001 54.935 9.12001 56.471 9.79201 57.623C10.752 59.255 12.864 59.543 13.536 59.639C14.88 59.831 16.704 60.119 18.144 62.039C18.912 63.095 19.872 63.479 20.64 63.479C21.12 63.479 21.408 63.383 21.792 63.191C23.232 62.423 23.904 60.311 23.232 58.391C23.136 58.007 22.848 57.527 22.656 56.951C22.176 55.991 21.984 55.031 22.08 54.071C22.08 53.591 22.272 53.495 22.176 53.495C22.368 53.399 23.136 53.591 23.616 53.687C25.056 53.975 27.648 54.551 28.704 51.671C29.664 48.983 32.448 47.543 33.696 47.063C38.88 50.423 42.432 56.279 42.432 62.903C42.432 65.207 41.952 67.415 41.184 69.431C40.992 68.951 40.704 68.471 40.512 67.991C39.744 67.031 38.688 66.455 37.344 66.455C36.672 66.455 36.192 65.783 35.52 64.151C35.232 63.575 34.944 62.807 34.464 62.231C33.696 60.983 31.488 59.831 29.088 59.831C27.648 59.927 24.864 60.503 22.848 64.247C20.736 68.279 23.616 71.447 25.824 73.655C26.304 74.135 26.88 74.807 27.264 75.191C29.472 77.975 29.376 79.607 29.088 80.567C27.456 80.951 25.728 81.143 24 81.143C13.824 81.335 5.66401 73.175 5.66401 62.999ZM31.776 79.607C31.68 78.167 31.2 76.151 29.28 73.751C28.8 73.175 28.32 72.599 27.744 72.023C25.44 69.623 24.096 67.703 25.248 65.687C26.304 63.767 27.648 62.807 29.184 62.711C30.72 62.615 31.968 63.479 32.16 63.863C32.544 64.343 32.736 65.015 33.024 65.495C33.888 67.223 34.752 69.143 37.248 69.239C37.728 69.239 38.112 69.431 38.4 69.719C38.688 70.103 39.168 71.159 38.88 73.943C36.96 76.247 34.56 78.263 31.776 79.607Z" fill="url(#paint1_linear_155_5519)"/>
<defs>
<linearGradient id="paint0_linear_155_5519" x1="25.8332" y1="13.9565" x2="90.8332" y2="13.9565" gradientUnits="userSpaceOnUse">
<stop stop-color="#00DFD8"/>
<stop offset="1" stop-color="#00908C"/>
</linearGradient>
<linearGradient id="paint1_linear_155_5519" x1="24.048" y1="41.207" x2="24.048" y2="84.887" gradientUnits="userSpaceOnUse">
<stop stop-color="#00DFD8"/>
<stop offset="1" stop-color="#00908C"/>
</linearGradient>
</defs>
</svg>
