<svg width="42" height="46" viewBox="0 0 42 46" fill="none" xmlns="http://www.w3.org/2000/svg">
<g clip-path="url(#clip0_4_78)">
<path d="M16.063 21.0833C11.3956 21.0833 7.59827 16.7842 7.59827 11.5C7.59827 6.21574 11.3956 1.91666 16.063 1.91666C20.7305 1.91666 24.5278 6.21574 24.5278 11.5C24.5278 16.7842 20.7305 21.0833 16.063 21.0833ZM16.063 3.83332C12.3284 3.83332 9.29122 7.27182 9.29122 11.5C9.29122 15.7282 12.3284 19.1667 16.063 19.1667C19.7977 19.1667 22.8349 15.7282 22.8349 11.5C22.8349 7.27182 19.7977 3.83332 16.063 3.83332Z" fill="#00DFD8"/>
<path d="M38.918 46H28.7603C27.3602 46 26.2208 44.7101 26.2208 43.125V35.4583C26.2208 33.8733 27.3602 32.5833 28.7603 32.5833H38.918C40.3181 32.5833 41.4574 33.8733 41.4574 35.4583V43.125C41.4574 44.7101 40.3181 46 38.918 46ZM28.7603 34.5C28.293 34.5 27.9138 34.9293 27.9138 35.4583V43.125C27.9138 43.654 28.293 44.0833 28.7603 44.0833H38.918C39.3852 44.0833 39.7645 43.654 39.7645 43.125V35.4583C39.7645 34.9293 39.3852 34.5 38.918 34.5H28.7603Z" fill="#00DFD8"/>
<path d="M37.225 34.5H30.4532C29.9859 34.5 29.6067 34.0707 29.6067 33.5417V29.7083C29.6067 27.0672 31.5062 24.9167 33.8391 24.9167C36.172 24.9167 38.0715 27.0672 38.0715 29.7083V33.5417C38.0715 34.0707 37.6922 34.5 37.225 34.5ZM31.2996 32.5833H36.3785V29.7083C36.3785 28.1232 35.2392 26.8333 33.8391 26.8333C32.439 26.8333 31.2996 28.1232 31.2996 29.7083V32.5833Z" fill="#00DFD8"/>
<path d="M21.9884 42.1667H1.67295C1.2057 42.1667 0.826477 41.7373 0.826477 41.2083V33.5417C0.826477 28.7864 4.24455 24.9167 8.44477 24.9167H23.6814C25.0222 24.9167 26.341 25.3172 27.4956 26.0782C27.9002 26.3446 28.0356 26.9311 27.802 27.3892C27.5667 27.8472 27.0487 28.0006 26.644 27.7361C25.7485 27.1457 24.7242 26.8333 23.6814 26.8333H8.44477C5.17737 26.8333 2.51943 29.8425 2.51943 33.5417V40.25H21.9884C22.4557 40.25 22.8349 40.6793 22.8349 41.2083C22.8349 41.7373 22.4557 42.1667 21.9884 42.1667Z" fill="#00DFD8"/>
</g>
<defs>
<clipPath id="clip0_4_78">
<rect width="40.6309" height="46" fill="white" transform="translate(0.826477)"/>
</clipPath>
</defs>
</svg>
