<svg width="45" height="45" viewBox="0 0 45 45" fill="none" xmlns="http://www.w3.org/2000/svg">
<path d="M44.2999 34.6919L45 33.3919L34.7678 27.883L33.9883 29.2469L32.8918 28.516C33.2987 28.1775 33.6109 27.7395 33.7983 27.2446C33.9858 26.7496 34.0419 26.2147 33.9614 25.6916C33.8808 25.1686 33.6663 24.6753 33.3386 24.2597C33.011 23.8441 32.5814 23.5203 32.0916 23.3198L41.6135 16.3624C42.1888 15.9421 42.578 15.3145 42.6988 14.6124C42.8196 13.9103 42.6626 13.1888 42.2609 12.6004C41.8592 12.012 41.2444 11.6028 40.5465 11.4595C39.8486 11.3162 39.1222 11.4499 38.5211 11.8324L34.2495 14.5504C33.1097 15.2757 31.871 15.8325 30.5718 16.2036L24.5244 17.9312C23.8304 18.1298 23.1538 18.3844 22.5012 18.6927C21.8479 18.3842 21.1705 18.1295 20.4757 17.9312L14.4282 16.2036C13.129 15.8325 11.8903 15.2757 10.7505 14.5504L6.47888 11.8324C5.87777 11.4499 5.15144 11.3162 4.4535 11.4595C3.75556 11.6028 3.14074 12.012 2.73908 12.6004C2.33741 13.1888 2.18039 13.9104 2.30123 14.6125C2.42207 15.3145 2.81129 15.9421 3.38657 16.3624L12.9084 23.3198C12.4184 23.5201 11.9886 23.8437 11.6608 24.2594C11.333 24.675 11.1183 25.1684 11.0378 25.6915C10.9572 26.2146 11.0134 26.7497 11.201 27.2447C11.3886 27.7397 11.7011 28.1776 12.1082 28.516L11.0117 29.2469L10.2322 27.883L0 33.3919L0.700123 34.6919L5.28637 32.2228L10.3984 41.8065L7.33699 43.7544L8.12976 45L16.8454 39.4545L15.8196 37.6597L17.7017 36.4051C18.5687 35.826 19.5881 35.5174 20.6307 35.5184C21.2627 35.5184 21.8916 35.4296 22.4989 35.2546C23.1069 35.4297 23.7366 35.5185 24.3694 35.5184C25.412 35.5174 26.4314 35.826 27.2983 36.4051L29.1804 37.6597L28.1547 39.4545L36.8702 45L37.663 43.7544L34.6016 41.8065L39.7136 32.2227L44.2999 34.6919ZM32.5041 26.3919C32.473 26.6084 32.3972 26.816 32.2815 27.0015C32.1658 27.187 32.0126 27.3464 31.8319 27.4695L31.5808 27.6421L30.6746 27.038C30.5501 26.9553 30.4538 26.8367 30.3985 26.6979C30.1823 26.1585 29.931 25.6339 29.6462 25.1274L29.9956 24.8733C30.2489 24.6891 30.551 24.5838 30.8639 24.5706C31.1768 24.5574 31.4867 24.6368 31.7546 24.799C32.0226 24.9612 32.2366 25.1989 32.3699 25.4823C32.5033 25.7657 32.5499 26.0821 32.5041 26.3919V26.3919ZM24.93 19.3509L30.9776 17.6233C32.4134 17.2131 33.7825 16.5977 35.0423 15.796L39.3139 13.078C39.5915 12.9013 39.927 12.8396 40.2494 12.9058C40.5717 12.972 40.8557 13.161 41.0412 13.4327C41.2267 13.7045 41.2993 14.0378 41.2435 14.3621C41.1877 14.6863 41.0079 14.9762 40.7422 15.1704L28.8413 23.8661C28.0562 22.7763 27.1102 21.8119 26.0357 21.0059L24.796 20.0762C24.579 19.9135 24.3577 19.7581 24.1321 19.61C24.3951 19.5141 24.6611 19.4278 24.93 19.3509ZM11.6478 41.0115L6.58651 31.5228L9.66455 29.8656L14.8647 38.9646L11.6478 41.0115ZM16.8826 35.1767L15.0852 36.3747L11.746 30.5319L13.4064 29.4251L20.148 34.0593C18.9809 34.1416 17.8554 34.5268 16.8826 35.1767L16.8826 35.1767ZM28.1175 35.1767C27.0081 34.4356 25.7036 34.0406 24.3694 34.0419C23.301 34.0433 22.2575 33.7193 21.3779 33.1129L13.1681 27.4695C12.9946 27.3502 12.8465 27.1976 12.7324 27.0206C12.6183 26.8436 12.5405 26.6457 12.5035 26.4384C12.4665 26.2311 12.4711 26.0185 12.517 25.813C12.5629 25.6074 12.6491 25.4131 12.7707 25.2411C12.8923 25.0692 13.0469 24.9231 13.2254 24.8114C13.4039 24.6997 13.6028 24.6246 13.8106 24.5903C14.0184 24.5561 14.231 24.5635 14.4359 24.6121C14.6408 24.6607 14.8341 24.7494 15.0044 24.8733L21.3274 29.4713L21.7617 28.8743L22.1973 28.2783L22.1959 28.2773L22.1949 28.2765L4.25785 15.1704C3.99215 14.9762 3.81238 14.6864 3.75658 14.3621C3.70077 14.0378 3.77329 13.7045 3.9588 13.4328C4.14432 13.161 4.42828 12.972 4.75063 12.9058C5.07299 12.8396 5.40846 12.9013 5.68611 13.078L9.95774 15.796C11.2175 16.5977 12.5866 17.2132 14.0225 17.6233L20.0701 19.3509C21.4561 19.7458 22.7577 20.3921 23.9101 21.2575L25.1498 22.1871C26.882 23.4859 28.2235 25.2361 29.0275 27.2462C29.1933 27.6625 29.4821 28.0184 29.8554 28.2665L33.254 30.5319L29.9148 36.3747L28.1175 35.1767ZM33.3522 41.0115L30.1353 38.9646L35.3354 29.8656L38.4135 31.5228L33.3522 41.0115Z" fill="#00DFD8"/>
<path d="M14.3206 13.7244C14.5117 14.0671 14.7914 14.3523 15.1305 14.5499C15.4696 14.7476 15.8556 14.8505 16.2481 14.8479H28.7519C29.1439 14.8479 29.5289 14.7439 29.8675 14.5465C30.2061 14.3491 30.4863 14.0654 30.6794 13.7244C30.8726 13.3833 30.9717 12.9971 30.9668 12.6052C30.9618 12.2133 30.853 11.8298 30.6513 11.4937L24.3994 1.07518V1.07527C24.2026 0.747326 23.9242 0.475922 23.5914 0.287488C23.2585 0.0990532 22.8825 9.29234e-06 22.5 6.53826e-10C22.1175 -9.29103e-06 21.7416 0.0990164 21.4087 0.287435C21.0758 0.475853 20.7975 0.747243 20.6006 1.07518L14.3487 11.4937C14.1446 11.8289 14.0342 12.2128 14.0293 12.6052C14.0243 12.9976 14.125 13.3842 14.3206 13.7244ZM15.615 12.2534L21.867 1.83477C21.9326 1.72549 22.0254 1.63505 22.1363 1.57226C22.2472 1.50947 22.3725 1.47647 22.5 1.47647C22.6275 1.47647 22.7528 1.50947 22.8637 1.57226C22.9747 1.63505 23.0675 1.72549 23.1331 1.83477L29.385 12.2534C29.4522 12.3654 29.4885 12.4933 29.4901 12.6239C29.4918 12.7545 29.4587 12.8832 29.3944 12.9969C29.33 13.1106 29.2366 13.2051 29.1238 13.2709C29.0109 13.3367 28.8826 13.3714 28.7519 13.3714H16.2481C16.1174 13.3714 15.9891 13.3367 15.8763 13.2709C15.7634 13.2051 15.67 13.1106 15.6057 12.9969C15.5413 12.8832 15.5082 12.7545 15.5099 12.6239C15.5115 12.4933 15.5478 12.3654 15.615 12.2534H15.615Z" fill="#00DFD8"/>
<path d="M23.2383 3.77435H21.7617V8.94199H23.2383V3.77435Z" fill="#00DFD8"/>
<path d="M23.2383 10.4185H21.7617V11.8949H23.2383V10.4185Z" fill="#00DFD8"/>
<path d="M41.2081 29.1299C42.0227 26.9208 42.4381 24.5846 42.4349 22.2302C42.4352 20.9439 42.3118 19.6606 42.0667 18.3979L40.6172 18.6802C40.8443 19.8499 40.9585 21.0387 40.9583 22.2302C40.9614 24.4102 40.5768 26.5733 39.8227 28.6187L41.2081 29.1299Z" fill="#00DFD8"/>
<path d="M2.93331 18.3979C2.68816 19.6606 2.56484 20.9439 2.56505 22.2302C2.56189 24.5846 2.9773 26.9208 3.79188 29.1299L5.17733 28.6187C4.42315 26.5733 4.03862 24.4102 4.04171 22.2302C4.04147 21.0387 4.15567 19.8499 4.38276 18.6802L2.93331 18.3979Z" fill="#00DFD8"/>
<path d="M17.5301 4.45087L17.1333 3.02866C13.0361 4.18518 9.41259 6.61381 6.78595 9.96383L7.94933 10.8731C10.3813 7.77102 13.7363 5.52202 17.5301 4.45087Z" fill="#00DFD8"/>
<path d="M37.0507 10.8731L38.2141 9.96383C35.6148 6.64978 32.0395 4.23633 27.9937 3.06461L27.5876 4.48412C31.3337 5.56935 34.6441 7.80431 37.0507 10.8731Z" fill="#00DFD8"/>
</svg>
