<svg width="17" height="21" viewBox="0 0 17 21" fill="none" xmlns="http://www.w3.org/2000/svg">
<path d="M7.05458 18.883C3.29188 17.2234 0.857178 13.4788 0.857178 9.34121V5.18271L8.25008 1.89701L15.643 5.18271V9.34121C15.643 13.4783 13.2083 17.223 9.44558 18.883C8.80148 19.1671 8.43348 19.2477 8.25008 19.2477C8.06668 19.2477 7.69868 19.1671 7.05458 18.883ZM8.07838 1.82071L8.07878 1.82091C8.07858 1.82081 8.07848 1.82071 8.07828 1.82071H8.07838Z" stroke="#00DFD8" stroke-width="1.71429"/>
<path d="M7.28454 14.0303L7.37544 14.1199L7.46574 14.0297L13.4482 8.04711L13.5391 7.95621L13.4482 7.86531L12.7782 7.19521L12.6869 7.10391L12.596 7.19561L7.37444 12.4643L4.68984 9.77971L4.59894 9.68881L4.50794 9.77971L3.83794 10.4497L3.74634 10.5413L3.83854 10.6322L7.28454 14.0303Z" fill="#00DFD8" stroke="#00DFD8" stroke-width="0.257143"/>
</svg>
