<svg width="76" height="75" viewBox="0 0 76 75" fill="none" xmlns="http://www.w3.org/2000/svg">
<g clip-path="url(#clip0_4_712)">
<path d="M0.5 37.5C0.5 47.4456 4.45088 56.9839 11.4835 64.0165C18.5161 71.0491 28.0544 75 38 75C47.9456 75 57.4839 71.0491 64.5165 64.0165C71.5491 56.9839 75.5 47.4456 75.5 37.5C75.5 27.5544 71.5491 18.0161 64.5165 10.9835C57.4839 3.95088 47.9456 0 38 0C28.0544 0 18.5161 3.95088 11.4835 10.9835C4.45088 18.0161 0.5 27.5544 0.5 37.5Z" fill="#F0F0F0"/>
<path d="M10.6094 23.4437L16.7266 14.375L18.0219 15.25L11.9047 24.3172L10.6094 23.4422V23.4437ZM13.2 25.1906L19.3172 16.1234L20.6125 16.9969L14.4953 26.0641L13.2 25.1906ZM15.7906 26.9375L21.9078 17.8703L23.2031 18.7453L17.0859 27.8125L15.7906 26.9375ZM17.0859 47.1875L23.2031 56.2562L21.9062 57.1297L15.7906 48.0625L17.0875 47.1875H17.0859ZM14.4953 48.9375L17.1172 52.8234L15.8203 53.6984L13.2 49.8109L14.4969 48.9359L14.4953 48.9375ZM17.9906 54.1187L20.6125 58.0047L19.3156 58.8797L16.6953 54.9922L17.9922 54.1172L17.9906 54.1187ZM11.9062 50.6828L18.0234 59.75L16.7266 60.625L10.6109 51.5562L11.9078 50.6828H11.9062ZM59.2734 14.375L61.8953 18.2609L60.6 19.1359L57.9781 15.25L59.275 14.375H59.2734ZM62.7687 19.5578L65.3906 23.4437L64.0937 24.3172L61.4734 20.4313L62.7703 19.5562L62.7687 19.5578ZM56.6828 16.1234L62.8 25.1906L61.5031 26.0656L55.3875 16.9969L56.6844 16.1219L56.6828 16.1234ZM54.0937 17.8703L56.7156 21.7562L55.4187 22.6312L52.7984 18.7437L54.0953 17.8703H54.0937ZM57.589 23.0516L60.2109 26.9375L58.914 27.8125L56.2937 23.9266L57.589 23.0516ZM52.7969 56.2562L55.4187 52.3703L56.714 53.2437L54.0922 57.1297L52.7969 56.2547V56.2562ZM56.2922 51.0734L58.914 47.1875L60.2093 48.0625L57.5875 51.9484L56.2922 51.0734ZM55.3875 58.0031L58.0093 54.1172L59.3047 54.9922L56.6828 58.8766L55.3875 58.0031ZM58.8828 52.8219L61.5047 48.9359L62.8 49.8094L60.1781 53.6953L58.8828 52.8203V52.8219ZM57.9781 59.75L60.6 55.8641L61.8953 56.7391L59.2734 60.625L57.9781 59.75ZM61.4734 54.5687L64.0953 50.6828L65.3906 51.5578L62.7687 55.4422L61.4734 54.5687Z" fill="black"/>
<path d="M25.5 37.5C25.5 39.1415 25.8233 40.767 26.4515 42.2835C27.0797 43.8001 28.0004 45.1781 29.1612 46.3388C30.3219 47.4996 31.6999 48.4203 33.2165 49.0485C34.733 49.6767 36.3585 50 38 50C39.6415 50 41.267 49.6767 42.7835 49.0485C44.3001 48.4203 45.6781 47.4996 46.8388 46.3388C47.9996 45.1781 48.9203 43.8001 49.5485 42.2835C50.1767 40.767 50.5 39.1415 50.5 37.5C50.5 34.1848 49.183 31.0054 46.8388 28.6612C44.4946 26.317 41.3152 25 38 25C34.6848 25 31.5054 26.317 29.1612 28.6612C26.817 31.0054 25.5 34.1848 25.5 37.5Z" fill="#D80027"/>
<path d="M50.5 37.5C50.5 40.8152 49.183 43.9946 46.8388 46.3388C44.4946 48.683 41.3152 50 38 50C34.6848 50 31.5054 48.683 29.1612 46.3388C26.817 43.9946 25.5 40.8152 25.5 37.5C25.5 39.1576 26.1585 40.7473 27.3306 41.9194C28.5027 43.0915 30.0924 43.75 31.75 43.75C33.4076 43.75 34.9973 43.0915 36.1694 41.9194C37.3415 40.7473 38 39.1576 38 37.5C38 35.8424 38.6585 34.2527 39.8306 33.0806C41.0027 31.9085 42.5924 31.25 44.25 31.25C45.9076 31.25 47.4973 31.9085 48.6694 33.0806C49.8415 34.2527 50.5 35.8424 50.5 37.5Z" fill="#0052B4"/>
</g>
<defs>
<clipPath id="clip0_4_712">
<rect width="76" height="75" fill="white"/>
</clipPath>
</defs>
</svg>
