<svg width="76" height="75" viewBox="0 0 76 75" fill="none" xmlns="http://www.w3.org/2000/svg">
<g clip-path="url(#clip0_4_756)">
<path d="M38 75C58.7107 75 75.5 58.2107 75.5 37.5C75.5 16.7893 58.7107 0 38 0C17.2893 0 0.5 16.7893 0.5 37.5C0.5 58.2107 17.2893 75 38 75Z" fill="#F0F0F0"/>
<path d="M36.3687 37.5002H75.4991C75.5008 34.1967 75.0664 30.9074 74.2072 27.7175H36.3687V37.5002ZM36.3687 17.935H69.9951C67.7019 14.1955 64.7737 10.885 61.3422 8.15234H36.3687V17.935ZM37.9991 75.0002C46.8247 75.0002 54.9365 71.9498 61.3422 66.848H14.6559C21.0616 71.9498 29.1734 75.0002 37.9991 75.0002ZM6.00303 57.0654H69.9951C71.8378 54.058 73.2672 50.7709 74.2072 47.2827H1.79102C2.73101 50.7711 4.16026 54.0582 6.00318 57.0654H6.00303Z" fill="#D80027"/>
<path d="M17.8707 5.85615H21.2882L18.1095 8.16548L19.3238 11.9023L16.1451 9.59297L12.9664 11.9023L14.0152 8.67422C11.2165 11.0055 8.76348 13.7367 6.74199 16.7802H7.83696L5.81357 18.2502C5.49804 18.7768 5.19551 19.311 4.90625 19.8524L5.87246 22.8261L4.06982 21.5165C3.62158 22.4657 3.21187 23.4366 2.84346 24.4276L3.90796 27.7042H7.83696L4.65825 30.0135L5.87261 33.7503L2.6939 31.441L0.790039 32.8242C0.596935 34.3753 0.50007 35.9369 0.5 37.5H38V0C30.592 0 23.6863 2.14893 17.8707 5.85615ZM19.3235 33.75L16.1448 31.4407L12.9661 33.75L14.1805 30.0132L11.0018 27.7039H14.9308L16.1448 23.967L17.3589 27.7039H21.2879L18.1092 30.0132L19.3235 33.75ZM18.1092 19.0894L19.3235 22.8262L16.1448 20.5169L12.9661 22.8262L14.1805 19.0894L11.0018 16.7801H14.9308L16.1448 13.0433L17.3589 16.7801H21.2879L18.1092 19.0894ZM32.7746 33.75L29.5959 31.4407L26.4172 33.75L27.6315 30.0132L24.4528 27.7039H28.3818L29.5959 23.967L30.81 27.7039H34.739L31.5603 30.0132L32.7746 33.75ZM31.5603 19.0894L32.7746 22.8262L29.5959 20.5169L26.4172 22.8262L27.6315 19.0894L24.4528 16.7801H28.3818L29.5959 13.0433L30.81 16.7801H34.739L31.5603 19.0894ZM31.5603 8.16548L32.7746 11.9023L29.5959 9.59297L26.4172 11.9023L27.6315 8.16548L24.4528 5.85615H28.3818L29.5959 2.11934L30.81 5.85615H34.739L31.5603 8.16548Z" fill="#0052B4"/>
</g>
<defs>
<clipPath id="clip0_4_756">
<rect width="76" height="75" fill="white"/>
</clipPath>
</defs>
</svg>
