<svg width="133" height="42" viewBox="0 0 133 42" fill="none" xmlns="http://www.w3.org/2000/svg">
<path d="M129 0H4C1.79086 0 0 1.79086 0 4V37.0386C0 39.2477 1.79086 41.0386 4 41.0386H129C131.209 41.0386 133 39.2477 133 37.0386V4C133 1.79086 131.209 0 129 0Z" fill="#273348"/>
<path d="M24.0116 20.6341V29.6093L14.9707 28.3133V20.6341H24.0116ZM24.0116 10.3905V19.476H14.9707V11.6865L24.0116 10.3905ZM37.0295 20.6341V31.4705L25.0059 29.7471V20.6341H37.0295ZM37.0295 8.5293V19.476H25.0059V10.2526L37.0295 8.5293Z" fill="#32A5F3"/>
<path d="M48.94 10.0301C49.7 10.0301 50.3567 10.1734 50.91 10.4601C51.47 10.7401 51.8967 11.1434 52.19 11.6701C52.49 12.1968 52.64 12.8168 52.64 13.5301C52.64 14.2434 52.49 14.8634 52.19 15.3901C51.8967 15.9101 51.47 16.3101 50.91 16.5901C50.3567 16.8634 49.7 17.0001 48.94 17.0001H46.77V10.0301H48.94ZM48.94 16.2501C49.84 16.2501 50.5267 16.0134 51 15.5401C51.4733 15.0601 51.71 14.3901 51.71 13.5301C51.71 12.6634 51.47 11.9868 50.99 11.5001C50.5167 11.0134 49.8333 10.7701 48.94 10.7701H47.68V16.2501H48.94ZM56.2303 17.0901C55.717 17.0901 55.2503 16.9734 54.8303 16.7401C54.417 16.5068 54.0903 16.1768 53.8503 15.7501C53.617 15.3168 53.5003 14.8168 53.5003 14.2501C53.5003 13.6901 53.6203 13.1968 53.8603 12.7701C54.107 12.3368 54.4403 12.0068 54.8603 11.7801C55.2803 11.5468 55.7503 11.4301 56.2703 11.4301C56.7903 11.4301 57.2603 11.5468 57.6803 11.7801C58.1003 12.0068 58.4303 12.3334 58.6703 12.7601C58.917 13.1868 59.0403 13.6834 59.0403 14.2501C59.0403 14.8168 58.9136 15.3168 58.6603 15.7501C58.4136 16.1768 58.077 16.5068 57.6503 16.7401C57.2236 16.9734 56.7503 17.0901 56.2303 17.0901ZM56.2303 16.2901C56.557 16.2901 56.8636 16.2134 57.1503 16.0601C57.437 15.9068 57.667 15.6768 57.8403 15.3701C58.0203 15.0634 58.1103 14.6901 58.1103 14.2501C58.1103 13.8101 58.0236 13.4368 57.8503 13.1301C57.677 12.8234 57.4503 12.5968 57.1703 12.4501C56.8903 12.2968 56.587 12.2201 56.2603 12.2201C55.927 12.2201 55.6203 12.2968 55.3403 12.4501C55.067 12.5968 54.847 12.8234 54.6803 13.1301C54.5136 13.4368 54.4303 13.8101 54.4303 14.2501C54.4303 14.6968 54.5103 15.0734 54.6703 15.3801C54.837 15.6868 55.057 15.9168 55.3303 16.0701C55.6036 16.2168 55.9036 16.2901 56.2303 16.2901ZM67.5368 11.5201L65.8268 17.0001H64.8868L63.5668 12.6501L62.2468 17.0001H61.3068L59.5868 11.5201H60.5168L61.7768 16.1201L63.1368 11.5201H64.0668L65.3968 16.1301L66.6368 11.5201H67.5368ZM71.1099 11.4201C71.7766 11.4201 72.3166 11.6234 72.7299 12.0301C73.1433 12.4301 73.3499 13.0101 73.3499 13.7701V17.0001H72.4499V13.9001C72.4499 13.3534 72.3133 12.9368 72.0399 12.6501C71.7666 12.3568 71.3933 12.2101 70.9199 12.2101C70.4399 12.2101 70.0566 12.3601 69.7699 12.6601C69.4899 12.9601 69.3499 13.3968 69.3499 13.9701V17.0001H68.4399V11.5201H69.3499V12.3001C69.5299 12.0201 69.7733 11.8034 70.0799 11.6501C70.3933 11.4968 70.7366 11.4201 71.1099 11.4201ZM75.7464 9.60011V17.0001H74.8364V9.60011H75.7464ZM79.6873 17.0901C79.174 17.0901 78.7073 16.9734 78.2873 16.7401C77.874 16.5068 77.5473 16.1768 77.3073 15.7501C77.074 15.3168 76.9573 14.8168 76.9573 14.2501C76.9573 13.6901 77.0773 13.1968 77.3173 12.7701C77.564 12.3368 77.8973 12.0068 78.3173 11.7801C78.7373 11.5468 79.2073 11.4301 79.7273 11.4301C80.2473 11.4301 80.7173 11.5468 81.1373 11.7801C81.5573 12.0068 81.8873 12.3334 82.1273 12.7601C82.374 13.1868 82.4973 13.6834 82.4973 14.2501C82.4973 14.8168 82.3707 15.3168 82.1173 15.7501C81.8707 16.1768 81.534 16.5068 81.1073 16.7401C80.6807 16.9734 80.2073 17.0901 79.6873 17.0901ZM79.6873 16.2901C80.014 16.2901 80.3207 16.2134 80.6073 16.0601C80.894 15.9068 81.124 15.6768 81.2973 15.3701C81.4773 15.0634 81.5673 14.6901 81.5673 14.2501C81.5673 13.8101 81.4807 13.4368 81.3073 13.1301C81.134 12.8234 80.9073 12.5968 80.6273 12.4501C80.3473 12.2968 80.044 12.2201 79.7173 12.2201C79.384 12.2201 79.0773 12.2968 78.7973 12.4501C78.524 12.5968 78.304 12.8234 78.1373 13.1301C77.9707 13.4368 77.8873 13.8101 77.8873 14.2501C77.8873 14.6968 77.9673 15.0734 78.1273 15.3801C78.294 15.6868 78.514 15.9168 78.7873 16.0701C79.0607 16.2168 79.3607 16.2901 79.6873 16.2901ZM83.3538 14.2401C83.3538 13.6801 83.4672 13.1901 83.6938 12.7701C83.9205 12.3434 84.2305 12.0134 84.6238 11.7801C85.0238 11.5468 85.4672 11.4301 85.9538 11.4301C86.4338 11.4301 86.8505 11.5334 87.2038 11.7401C87.5572 11.9468 87.8205 12.2068 87.9938 12.5201V11.5201H88.9138V17.0001H87.9938V15.9801C87.8138 16.3001 87.5438 16.5668 87.1838 16.7801C86.8305 16.9868 86.4172 17.0901 85.9438 17.0901C85.4572 17.0901 85.0172 16.9701 84.6238 16.7301C84.2305 16.4901 83.9205 16.1534 83.6938 15.7201C83.4672 15.2868 83.3538 14.7934 83.3538 14.2401ZM87.9938 14.2501C87.9938 13.8368 87.9105 13.4768 87.7438 13.1701C87.5772 12.8634 87.3505 12.6301 87.0638 12.4701C86.7838 12.3034 86.4738 12.2201 86.1338 12.2201C85.7938 12.2201 85.4838 12.3001 85.2038 12.4601C84.9238 12.6201 84.7005 12.8534 84.5338 13.1601C84.3672 13.4668 84.2838 13.8268 84.2838 14.2401C84.2838 14.6601 84.3672 15.0268 84.5338 15.3401C84.7005 15.6468 84.9238 15.8834 85.2038 16.0501C85.4838 16.2101 85.7938 16.2901 86.1338 16.2901C86.4738 16.2901 86.7838 16.2101 87.0638 16.0501C87.3505 15.8834 87.5772 15.6468 87.7438 15.3401C87.9105 15.0268 87.9938 14.6634 87.9938 14.2501ZM90.1116 14.2401C90.1116 13.6801 90.225 13.1901 90.4516 12.7701C90.6783 12.3434 90.9883 12.0134 91.3816 11.7801C91.7816 11.5468 92.2283 11.4301 92.7216 11.4301C93.1483 11.4301 93.545 11.5301 93.9116 11.7301C94.2783 11.9234 94.5583 12.1801 94.7516 12.5001V9.60011H95.6716V17.0001H94.7516V15.9701C94.5716 16.2968 94.305 16.5668 93.9516 16.7801C93.5983 16.9868 93.185 17.0901 92.7116 17.0901C92.225 17.0901 91.7816 16.9701 91.3816 16.7301C90.9883 16.4901 90.6783 16.1534 90.4516 15.7201C90.225 15.2868 90.1116 14.7934 90.1116 14.2401ZM94.7516 14.2501C94.7516 13.8368 94.6683 13.4768 94.5016 13.1701C94.335 12.8634 94.1083 12.6301 93.8216 12.4701C93.5416 12.3034 93.2316 12.2201 92.8916 12.2201C92.5516 12.2201 92.2416 12.3001 91.9616 12.4601C91.6816 12.6201 91.4583 12.8534 91.2916 13.1601C91.125 13.4668 91.0416 13.8268 91.0416 14.2401C91.0416 14.6601 91.125 15.0268 91.2916 15.3401C91.4583 15.6468 91.6816 15.8834 91.9616 16.0501C92.2416 16.2101 92.5516 16.2901 92.8916 16.2901C93.2316 16.2901 93.5416 16.2101 93.8216 16.0501C94.1083 15.8834 94.335 15.6468 94.5016 15.3401C94.6683 15.0268 94.7516 14.6634 94.7516 14.2501ZM102.105 12.2701H100.955V17.0001H100.045V12.2701H99.3355V11.5201H100.045V11.1301C100.045 10.5168 100.202 10.0701 100.515 9.79011C100.835 9.50344 101.345 9.36011 102.045 9.36011V10.1201C101.645 10.1201 101.362 10.2001 101.195 10.3601C101.035 10.5134 100.955 10.7701 100.955 11.1301V11.5201H102.105V12.2701ZM105.556 17.0901C105.043 17.0901 104.576 16.9734 104.156 16.7401C103.743 16.5068 103.416 16.1768 103.176 15.7501C102.943 15.3168 102.826 14.8168 102.826 14.2501C102.826 13.6901 102.946 13.1968 103.186 12.7701C103.433 12.3368 103.766 12.0068 104.186 11.7801C104.606 11.5468 105.076 11.4301 105.596 11.4301C106.116 11.4301 106.586 11.5468 107.006 11.7801C107.426 12.0068 107.756 12.3334 107.996 12.7601C108.243 13.1868 108.366 13.6834 108.366 14.2501C108.366 14.8168 108.24 15.3168 107.986 15.7501C107.74 16.1768 107.403 16.5068 106.976 16.7401C106.55 16.9734 106.076 17.0901 105.556 17.0901ZM105.556 16.2901C105.883 16.2901 106.19 16.2134 106.476 16.0601C106.763 15.9068 106.993 15.6768 107.166 15.3701C107.346 15.0634 107.436 14.6901 107.436 14.2501C107.436 13.8101 107.35 13.4368 107.176 13.1301C107.003 12.8234 106.776 12.5968 106.496 12.4501C106.216 12.2968 105.913 12.2201 105.586 12.2201C105.253 12.2201 104.946 12.2968 104.666 12.4501C104.393 12.5968 104.173 12.8234 104.006 13.1301C103.84 13.4368 103.756 13.8101 103.756 14.2501C103.756 14.6968 103.836 15.0734 103.996 15.3801C104.163 15.6868 104.383 15.9168 104.656 16.0701C104.93 16.2168 105.23 16.2901 105.556 16.2901ZM110.473 12.4101C110.633 12.0968 110.86 11.8534 111.153 11.6801C111.453 11.5068 111.816 11.4201 112.243 11.4201V12.3601H112.003C110.983 12.3601 110.473 12.9134 110.473 14.0201V17.0001H109.563V11.5201H110.473V12.4101Z" fill="white"/>
<path d="M60.028 22.2279L57.298 31.9999H54.988L53.154 25.0419L51.236 31.9999L48.94 32.0139L46.308 22.2279H48.408L50.13 29.8159L52.118 22.2279H54.302L56.178 29.7739L57.914 22.2279H60.028ZM62.3018 23.3199C61.9565 23.3199 61.6671 23.2126 61.4338 22.9979C61.2098 22.7739 61.0978 22.4986 61.0978 22.1719C61.0978 21.8452 61.2098 21.5746 61.4338 21.3599C61.6671 21.1359 61.9565 21.0239 62.3018 21.0239C62.6471 21.0239 62.9318 21.1359 63.1558 21.3599C63.3891 21.5746 63.5058 21.8452 63.5058 22.1719C63.5058 22.4986 63.3891 22.7739 63.1558 22.9979C62.9318 23.2126 62.6471 23.3199 62.3018 23.3199ZM63.2678 24.2439V31.9999H61.3078V24.2439H63.2678ZM69.5023 24.1319C70.4263 24.1319 71.1729 24.4259 71.7423 25.0139C72.3116 25.5926 72.5963 26.4046 72.5963 27.4499V31.9999H70.6363V27.7159C70.6363 27.0999 70.4823 26.6286 70.1743 26.3019C69.8663 25.9659 69.4463 25.7979 68.9143 25.7979C68.3729 25.7979 67.9436 25.9659 67.6263 26.3019C67.3183 26.6286 67.1643 27.0999 67.1643 27.7159V31.9999H65.2043V24.2439H67.1643V25.2099C67.4256 24.8739 67.7569 24.6126 68.1583 24.4259C68.5689 24.2299 69.0169 24.1319 69.5023 24.1319ZM73.9561 28.0939C73.9561 27.3099 74.1101 26.6146 74.4181 26.0079C74.7355 25.4012 75.1648 24.9346 75.7061 24.6079C76.2475 24.2812 76.8495 24.1179 77.5121 24.1179C78.0161 24.1179 78.4968 24.2299 78.9541 24.4539C79.4115 24.6686 79.7755 24.9579 80.0461 25.3219V21.6399H82.0341V31.9999H80.0461V30.8519C79.8035 31.2346 79.4628 31.5426 79.0241 31.7759C78.5855 32.0092 78.0768 32.1259 77.4981 32.1259C76.8448 32.1259 76.2475 31.9579 75.7061 31.6219C75.1648 31.2859 74.7355 30.8146 74.4181 30.2079C74.1101 29.5919 73.9561 28.8872 73.9561 28.0939ZM80.0601 28.1219C80.0601 27.6459 79.9668 27.2399 79.7801 26.9039C79.5935 26.5586 79.3415 26.2972 79.0241 26.1199C78.7068 25.9332 78.3661 25.8399 78.0021 25.8399C77.6381 25.8399 77.3021 25.9286 76.9941 26.1059C76.6861 26.2832 76.4341 26.5446 76.2381 26.8899C76.0515 27.2259 75.9581 27.6272 75.9581 28.0939C75.9581 28.5606 76.0515 28.9712 76.2381 29.3259C76.4341 29.6712 76.6861 29.9372 76.9941 30.1239C77.3115 30.3106 77.6475 30.4039 78.0021 30.4039C78.3661 30.4039 78.7068 30.3152 79.0241 30.1379C79.3415 29.9512 79.5935 29.6899 79.7801 29.3539C79.9668 29.0086 80.0601 28.5979 80.0601 28.1219ZM87.3924 32.1259C86.6458 32.1259 85.9738 31.9626 85.3764 31.6359C84.7791 31.2999 84.3078 30.8286 83.9624 30.2219C83.6264 29.6152 83.4584 28.9152 83.4584 28.1219C83.4584 27.3286 83.6311 26.6286 83.9764 26.0219C84.3311 25.4152 84.8118 24.9486 85.4184 24.6219C86.0251 24.2859 86.7018 24.1179 87.4484 24.1179C88.1951 24.1179 88.8718 24.2859 89.4784 24.6219C90.0851 24.9486 90.5611 25.4152 90.9064 26.0219C91.2611 26.6286 91.4384 27.3286 91.4384 28.1219C91.4384 28.9152 91.2564 29.6152 90.8924 30.2219C90.5378 30.8286 90.0524 31.2999 89.4364 31.6359C88.8298 31.9626 88.1484 32.1259 87.3924 32.1259ZM87.3924 30.4179C87.7471 30.4179 88.0784 30.3339 88.3864 30.1659C88.7038 29.9886 88.9558 29.7272 89.1424 29.3819C89.3291 29.0366 89.4224 28.6166 89.4224 28.1219C89.4224 27.3846 89.2264 26.8199 88.8344 26.4279C88.4518 26.0266 87.9804 25.8259 87.4204 25.8259C86.8604 25.8259 86.3891 26.0266 86.0064 26.4279C85.6331 26.8199 85.4464 27.3846 85.4464 28.1219C85.4464 28.8592 85.6284 29.4286 85.9924 29.8299C86.3658 30.2219 86.8324 30.4179 87.3924 30.4179ZM103.628 24.2439L101.36 31.9999H99.2462L97.8322 26.5819L96.4182 31.9999H94.2902L92.0082 24.2439H93.9962L95.3682 30.1519L96.8522 24.2439H98.9242L100.38 30.1379L101.752 24.2439H103.628ZM107.657 32.1259C107.022 32.1259 106.453 32.0139 105.949 31.7899C105.445 31.5566 105.043 31.2439 104.745 30.8519C104.455 30.4599 104.297 30.0259 104.269 29.5499H106.243C106.28 29.8486 106.425 30.0959 106.677 30.2919C106.938 30.4879 107.26 30.5859 107.643 30.5859C108.016 30.5859 108.305 30.5112 108.511 30.3619C108.725 30.2126 108.833 30.0212 108.833 29.7879C108.833 29.5359 108.702 29.3492 108.441 29.2279C108.189 29.0972 107.783 28.9572 107.223 28.8079C106.644 28.6679 106.168 28.5232 105.795 28.3739C105.431 28.2246 105.113 27.9959 104.843 27.6879C104.581 27.3799 104.451 26.9646 104.451 26.4419C104.451 26.0126 104.572 25.6206 104.815 25.2659C105.067 24.9112 105.421 24.6312 105.879 24.4259C106.345 24.2206 106.891 24.1179 107.517 24.1179C108.441 24.1179 109.178 24.3512 109.729 24.8179C110.279 25.2752 110.583 25.8959 110.639 26.6799H108.763C108.735 26.3719 108.604 26.1292 108.371 25.9519C108.147 25.7652 107.843 25.6719 107.461 25.6719C107.106 25.6719 106.831 25.7372 106.635 25.8679C106.448 25.9986 106.355 26.1806 106.355 26.4139C106.355 26.6752 106.485 26.8759 106.747 27.0159C107.008 27.1466 107.414 27.2819 107.965 27.4219C108.525 27.5619 108.987 27.7066 109.351 27.8559C109.715 28.0052 110.027 28.2386 110.289 28.5559C110.559 28.8639 110.699 29.2746 110.709 29.7879C110.709 30.2359 110.583 30.6372 110.331 30.9919C110.088 31.3466 109.733 31.6266 109.267 31.8319C108.809 32.0279 108.273 32.1259 107.657 32.1259Z" fill="white"/>
</svg>
