<svg width="31" height="21" viewBox="0 0 31 21" fill="none" xmlns="http://www.w3.org/2000/svg">
<g clip-path="url(#clip0_4_846)">
<path d="M27.319 0.807617H3.68101C2.09859 0.807617 0.815796 2.04744 0.815796 3.57685V17.423C0.815796 18.9524 2.09859 20.1922 3.68101 20.1922H27.319C28.9014 20.1922 30.1842 18.9524 30.1842 17.423V3.57685C30.1842 2.04744 28.9014 0.807617 27.319 0.807617Z" fill="#00DFD8" stroke="#00DFD8"/>
<path d="M18.2251 5.45581H11.9238V15.405H18.2251V5.45581Z" fill="#F26122"/>
<path d="M12.6024 10.431C12.5972 9.4753 12.8167 8.53087 13.2443 7.66905C13.6719 6.80724 14.2965 6.05057 15.0708 5.45611C14.1049 4.72204 12.9449 4.26545 11.7232 4.13854C10.5015 4.01163 9.26755 4.2195 8.16232 4.73842C7.05713 5.25733 6.12531 6.06633 5.47337 7.07294C4.82144 8.07953 4.47571 9.24309 4.47571 10.4306C4.47571 11.6182 4.82144 12.7818 5.47337 13.7885C6.12531 14.795 7.05713 15.604 8.16232 16.1229C9.26755 16.6419 10.5015 16.8498 11.7232 16.7228C12.9449 16.5959 14.1049 16.1393 15.0708 15.4052C14.2966 14.8108 13.6721 14.0543 13.2444 13.1926C12.8169 12.331 12.5974 11.3867 12.6024 10.431Z" fill="#EA1D25"/>
<path d="M25.2182 14.3505H25.1752V14.1055H25.2368L25.3163 14.2786L25.3908 14.1055H25.4524V14.3498H25.4109V14.165L25.3392 14.3263H25.292L25.2182 14.165V14.3505ZM25.0327 14.3505H24.9961V14.147H24.9095V14.1055H25.1244V14.147H25.0327V14.3498V14.3505Z" fill="#F69E1E"/>
<path d="M25.662 10.4307C25.6613 11.6175 25.3152 12.7802 24.6635 13.7859C24.0117 14.7917 23.0805 15.6001 21.9762 16.1188C20.8718 16.6375 19.6388 16.8457 18.4178 16.7194C17.1969 16.5932 16.0373 16.1377 15.0714 15.405C16.4349 14.3675 17.3165 12.8493 17.5226 11.1839C17.7286 9.51862 17.2422 7.84231 16.1702 6.52336C15.8502 6.12572 15.4812 5.76723 15.0714 5.45583C16.0373 4.72304 17.197 4.26755 18.418 4.14135C19.6389 4.01516 20.8721 4.22334 21.9765 4.74214C23.0809 5.26093 24.0121 6.06944 24.6638 7.07532C25.3154 8.08125 25.6613 9.24392 25.662 10.4307Z" fill="#F69E1E"/>
</g>
<defs>
<clipPath id="clip0_4_846">
<rect width="31" height="21" fill="white"/>
</clipPath>
</defs>
</svg>
