<svg width="21" height="21" viewBox="0 0 21 21" fill="none" xmlns="http://www.w3.org/2000/svg">
<g clip-path="url(#clip0_4_866)">
<path d="M0 10.5C0 13.2848 1.10625 15.9555 3.07538 17.9246C5.04451 19.8938 7.71523 21 10.5 21C13.2848 21 15.9555 19.8938 17.9246 17.9246C19.8938 15.9555 21 13.2848 21 10.5C21 7.71523 19.8938 5.04451 17.9246 3.07538C15.9555 1.10625 13.2848 0 10.5 0C7.71523 0 5.04451 1.10625 3.07538 3.07538C1.10625 5.04451 0 7.71523 0 10.5Z" fill="#D80917"/>
<path d="M9.66194 16.9798C9.64223 16.9798 9.6218 16.9787 9.60209 16.9756C9.52253 16.9647 9.44758 16.9321 9.38531 16.8814C9.32311 16.8307 9.27594 16.7638 9.24921 16.6882L4.98303 4.60368C4.92882 4.44975 4.96472 4.27848 5.07618 4.15928C5.18763 4.04008 5.3568 3.99221 5.5133 4.03656L14.1078 6.43337C14.1635 6.44887 14.2164 6.47561 14.2617 6.51198L15.8777 7.79544C16.0598 7.93974 16.0973 8.20133 15.9631 8.39049L10.019 16.7947C9.97872 16.8519 9.92517 16.8986 9.86306 16.9308C9.80086 16.963 9.73189 16.9798 9.66194 16.9798ZM6.0884 5.10533L9.79262 15.5995L15.0093 8.22338L13.7873 7.25273L6.0884 5.10533Z" fill="white"/>
<path d="M9.66283 16.9798C9.64668 16.9798 9.63117 16.9788 9.61494 16.9772C9.37497 16.9511 9.20132 16.7353 9.22708 16.4952L9.87049 10.538C9.89609 10.297 10.1192 10.1279 10.3524 10.1502C10.5925 10.1762 10.7661 10.3921 10.7403 10.6321L10.0969 16.5893C10.073 16.8134 9.88341 16.9798 9.66283 16.9798Z" fill="white"/>
<path d="M10.3049 11.0229C10.1939 11.0229 10.0827 10.9811 9.99731 10.8969C9.82559 10.7268 9.82389 10.4499 9.99375 10.2779L13.6785 6.54739C13.8486 6.37563 14.1255 6.37399 14.2973 6.54363C14.469 6.71375 14.4706 6.99062 14.3008 7.16261L10.6158 10.8929C10.5752 10.9341 10.5268 10.9668 10.4734 10.9891C10.4201 11.0114 10.3628 11.0229 10.3049 11.0229Z" fill="white"/>
<path d="M10.3049 11.022C10.1399 11.022 9.98171 10.928 9.90757 10.7679C9.80669 10.5488 9.9024 10.2885 10.1211 10.1872L15.4216 7.74039C15.6421 7.63903 15.9009 7.73476 16.0025 7.95438C16.1035 8.1735 16.0077 8.43374 15.789 8.5351L10.4885 10.9819C10.4309 11.0083 10.3683 11.022 10.3049 11.022Z" fill="white"/>
<path d="M10.3684 11.0985C10.2403 11.0985 10.1138 11.0424 10.0275 10.9344L5.05439 4.73136C4.90305 4.54295 4.93355 4.26772 5.12244 4.11661C5.31038 3.96621 5.58678 3.99648 5.73718 4.18465L10.7094 10.3878C10.8607 10.5761 10.8307 10.8514 10.6418 11.0025C10.5643 11.0647 10.4679 11.0986 10.3684 11.0985Z" fill="white"/>
</g>
<defs>
<clipPath id="clip0_4_866">
<rect width="21" height="21" fill="white"/>
</clipPath>
</defs>
</svg>
