<svg width="31" height="21" viewBox="0 0 31 21" fill="none" xmlns="http://www.w3.org/2000/svg">
<g clip-path="url(#clip0_4_858)">
<path d="M27.319 0.807617H3.68101C2.09859 0.807617 0.815796 2.04744 0.815796 3.57685V17.423C0.815796 18.9524 2.09859 20.1922 3.68101 20.1922H27.319C28.9014 20.1922 30.1842 18.9524 30.1842 17.423V3.57685C30.1842 2.04744 28.9014 0.807617 27.319 0.807617Z" fill="#00DFD8" stroke="#EEEEEE"/>
<path d="M10.0859 4.63886C9.53882 4.7055 8.99175 5.14338 8.81268 5.64703C8.69358 5.9603 6.55629 14.8599 6.54733 15.0209C6.52674 15.4873 6.8052 15.8292 7.26185 15.9149C7.43197 15.9529 12.8588 15.9529 13.0379 15.9149C13.5545 15.8196 14.0425 15.4302 14.2207 14.9543C14.2905 14.7742 16.4977 5.70329 16.4977 5.55184C16.5272 5.12434 16.2586 4.77213 15.8315 4.64838C15.7321 4.62934 10.3142 4.6103 10.0859 4.63973V4.63886Z" fill="#E60012"/>
<path d="M15.146 4.63886C14.5998 4.7055 14.0527 5.14338 13.8737 5.64703C13.7644 5.9603 11.6173 14.8599 11.6173 15.0209C11.5967 15.4873 11.8752 15.8292 12.3327 15.9149C12.502 15.9529 17.9289 15.9529 18.1079 15.9149C18.6255 15.8196 19.1126 15.4302 19.2916 14.9543C19.3606 14.7742 21.5677 5.70329 21.5677 5.55184C21.5981 5.12434 21.3295 4.77213 20.9015 4.64838C20.7923 4.62934 15.3743 4.6103 15.146 4.63973V4.63886Z" fill="#00508E"/>
<path d="M20.4247 4.63863C19.8784 4.70527 19.3323 5.14316 19.1532 5.64681C19.0431 5.96007 16.896 14.8597 16.896 15.0207C16.8763 15.4871 17.1548 15.8289 17.6123 15.9146C17.7806 15.9527 21.817 15.9527 21.9961 15.9146C22.5127 15.8194 22.9997 15.43 23.178 14.954C23.2487 14.774 25.4549 5.70306 25.4549 5.55162C25.4854 5.12411 25.2167 4.7719 24.7888 4.64816C24.6902 4.6196 20.157 4.60056 19.9277 4.62912H20.4247V4.63863Z" fill="#00908C"/>
<path d="M9.91726 7.52846C9.9118 7.57057 9.90184 7.61204 9.88773 7.65221C9.65849 8.3938 9.43015 9.39163 9.45969 9.51537C9.53939 9.88666 10.1062 9.85807 10.3049 9.46779C10.3649 9.36392 10.792 7.62365 10.792 7.4999C10.792 7.49125 11.468 7.4999 11.468 7.50942C11.468 7.50942 11.468 7.53797 11.4582 7.56653C11.3738 7.8665 11.2941 8.16765 11.2191 8.46997C10.9505 9.47732 10.9209 9.582 10.7822 9.78191C10.3256 10.4284 8.79441 10.4093 8.67449 9.75339C8.64487 9.61059 8.97258 7.96634 9.12211 7.51894C9.12211 7.49038 9.91726 7.51029 9.91726 7.52846ZM20.0771 7.52846C20.5337 7.62365 20.6734 7.975 20.4648 8.49767C20.2562 9.02122 19.8085 9.24972 19.0233 9.24972C18.7842 9.24972 18.8048 9.21159 18.6562 9.92471C18.6257 10.0571 18.5961 10.1808 18.5961 10.1999C18.5854 10.2475 17.8799 10.2475 17.8897 10.1999C18.486 7.75692 18.5362 7.5475 18.5362 7.52846L18.546 7.4999H19.2623C19.8282 7.50942 19.9875 7.50942 20.0771 7.52846ZM13.9438 8.46997C14.0422 8.48903 14.1121 8.5652 14.1121 8.63183C14.1121 8.86897 13.6053 9.03075 13.4163 8.84991C13.2373 8.66907 13.6152 8.3938 13.9438 8.46916V8.46997ZM12.1834 8.65001C12.1834 8.66907 12.1745 8.70711 12.1745 8.73651L12.1637 8.77374L12.2828 8.71664C12.6016 8.5652 12.9096 8.59371 13.0081 8.78327C13.0681 8.89748 13.0582 8.965 12.8997 9.6677C12.8693 9.79144 12.8299 9.96194 12.8192 10.0484C12.7798 10.2388 12.8102 10.2285 12.4521 10.2285C12.144 10.2285 12.144 10.2285 12.1539 10.1999C12.1539 10.1808 12.1933 10.0294 12.2336 9.84854C12.392 9.17355 12.4028 9.07832 12.2631 9.07832C12.1834 9.07832 12.0751 9.12598 12.0643 9.15449C11.989 9.47644 11.9195 9.79951 11.8557 10.1237L11.836 10.2103L11.5271 10.2285C11.1502 10.238 11.1797 10.2665 11.2585 9.94288C11.3686 9.5249 11.4287 9.23065 11.468 8.965C11.5173 8.6794 11.4877 8.70711 11.7662 8.66907C11.8951 8.65 12.0249 8.63183 12.0643 8.6223C12.1638 8.59371 12.1834 8.60324 12.1834 8.65001ZM16.9056 8.64136C16.9056 8.65954 16.8959 8.69758 16.8959 8.72617L16.886 8.77374L17.0051 8.71664C17.6211 8.41287 17.8601 8.65954 17.681 9.4392C17.6416 9.61059 17.5916 9.85807 17.5619 9.97228C17.552 10.0534 17.5318 10.133 17.502 10.2094C17.4626 10.2475 16.8752 10.238 16.886 10.2094C16.886 10.1904 16.9254 10.0389 16.9657 9.8676C17.134 9.17355 17.134 9.08786 16.9853 9.08786C16.8662 9.08786 16.8063 9.12598 16.7866 9.21159C16.757 9.31546 16.6075 10.0009 16.5878 10.1237L16.5681 10.2285L16.2592 10.238C15.8822 10.2475 15.9118 10.2856 16.0013 9.93424C16.0998 9.55349 16.1705 9.20214 16.2198 8.94505C16.2592 8.69758 16.2297 8.72617 16.4786 8.68805C16.5878 8.66907 16.7266 8.65001 16.7767 8.64136C16.8752 8.59371 16.9056 8.60324 16.9056 8.64136ZM22.9405 8.63183C22.9799 9.21159 22.9898 9.3821 22.9898 9.39163C22.9898 9.40116 23.0793 9.24972 23.1778 9.05934C23.3775 8.67852 23.3381 8.71664 23.5565 8.68805C23.6157 8.6794 23.7356 8.65954 23.8252 8.64136C24.0436 8.60324 24.0436 8.58426 23.7947 9.00224C23.4572 9.56294 22.9898 10.3522 22.8205 10.6378C22.3138 11.5214 22.3138 11.5214 21.8867 11.5309L21.627 11.5404L21.6476 11.4738C21.6575 11.4365 21.6879 11.3604 21.6978 11.3033L21.7273 11.1985H21.807C21.8965 11.1985 21.9162 11.1795 21.995 11.0463C22.0255 10.9986 22.0756 10.9225 22.0953 10.8749C22.1248 10.8273 22.2242 10.6759 22.3039 10.5235L22.4633 10.257L22.423 9.90564C22.3849 9.55914 22.3386 9.21345 22.2842 8.86897C22.2636 8.7357 22.2636 8.7357 22.4426 8.71664C22.5232 8.708 22.6513 8.67852 22.7212 8.66907C22.9101 8.61277 22.9298 8.61277 22.9396 8.63183H22.9405ZM15.4444 8.64047C16.2099 8.77374 15.9414 10.0476 15.1068 10.2285C14.5401 10.3522 14.1524 10.1428 14.1524 9.7248C14.1613 8.99271 14.729 8.51762 15.4444 8.64136V8.64047ZM21.1703 8.67852C21.2171 8.70178 21.2604 8.73086 21.2993 8.7651C21.3494 8.81179 21.3494 8.81179 21.3494 8.78327C21.3593 8.74515 21.3494 8.74515 21.7469 8.68805C22.0649 8.64136 22.055 8.64136 22.0353 8.72617C21.9352 9.1343 21.8391 9.54339 21.7469 9.9533C21.6771 10.2951 21.7273 10.257 21.3396 10.2475H21.0109V10.2094C21.0109 10.1714 20.9913 10.1523 20.9716 10.1808C20.8624 10.3522 20.3251 10.2856 20.1765 10.077C19.8094 9.54396 20.5937 8.4224 21.1703 8.67852ZM14.0324 8.95547C14.0324 8.95547 14.0324 9.00224 14.0235 9.04028C13.9429 9.34486 13.8041 9.96275 13.7746 10.0761L13.744 10.2189L13.4163 10.2285C13.0287 10.238 13.0492 10.257 13.128 10.0294C13.1979 9.8105 13.2668 9.54477 13.3071 9.25925C13.3465 9.01169 13.3071 9.04981 13.5954 9.01169C13.7244 8.99271 13.8641 8.97365 13.8936 8.96412C13.9733 8.94506 14.0226 8.94506 14.0324 8.95547ZM15.7721 10.9225C15.7603 10.9562 15.7437 10.9883 15.7229 11.0177C15.7032 11.0652 15.6727 11.1034 15.6727 11.1034C16.2592 11.112 16.2798 11.112 16.2691 11.1414L16.1598 11.4832H15.3056L15.2555 11.5214C15.1462 11.6165 14.5696 11.7403 14.5696 11.6642L14.6789 11.3223H14.7586C14.8973 11.3223 14.9278 11.2937 15.0469 11.0938L15.1453 10.913C15.6629 10.9044 15.7721 10.913 15.7721 10.9225ZM17.0749 10.9225C17.0687 10.9615 17.0585 10.9997 17.0445 11.0367C17.0301 11.07 17.0202 11.1049 17.0149 11.1406C17.0149 11.1406 17.065 11.1224 17.1241 11.0748C17.3435 10.932 17.5324 10.9035 18.0885 10.9035C18.3078 10.9035 18.4959 10.9035 18.5066 10.913C18.5155 10.932 18.1878 11.9592 18.1386 12.0544C18.0879 12.1598 17.9995 12.2441 17.8897 12.2916L17.7912 12.3296L17.2236 12.3391L16.6576 12.3487L16.5574 12.6723C16.3586 13.2902 16.3586 13.2426 16.6469 13.214C16.8761 13.195 16.8662 13.176 16.7964 13.4044L16.7364 13.5948H16.4481C15.8214 13.6034 15.7426 13.5654 15.8025 13.3179C15.8321 13.195 16.5475 10.932 16.5574 10.913C16.5681 10.9044 17.0749 10.9044 17.0749 10.9225ZM19.6894 10.9225C19.6894 10.932 19.6796 10.9606 19.6697 10.9986C19.6393 11.0938 19.6393 11.0938 19.7682 11.0272C19.9383 10.9415 20.3359 10.913 21.1507 10.913H21.4095V11.0272C21.4095 11.1605 21.4183 11.17 21.5383 11.1891L21.6279 11.1977L21.5777 11.3699L21.5285 11.5404H21.3494C20.8928 11.5499 20.823 11.5023 20.8122 11.2462V11.1224L20.7827 11.208L20.7531 11.3033H20.6537C20.6036 11.3033 20.5543 11.3033 20.5543 11.3119L19.9974 13.0808C19.9875 13.0998 19.9974 13.1094 20.0574 13.1094C20.1469 13.1094 20.1469 13.1094 20.1165 13.1854C20.087 13.2711 20.087 13.2711 20.1863 13.2711C20.2422 13.2745 20.2979 13.2612 20.3457 13.2331C20.4147 13.195 20.4147 13.2045 20.7334 12.777L20.8624 12.5953H20.5937C20.266 12.5953 20.2956 12.6152 20.3555 12.4248L20.4048 12.2725H21.0611C21.1211 12.0735 21.1408 12.0163 21.1408 12.0069C21.1408 11.9973 21.0011 11.9973 20.823 11.9973H20.5042L20.6036 11.6546H21.4989C21.9861 11.6546 22.3935 11.6546 22.3935 11.6642C22.3935 11.6737 22.3737 11.7507 22.3433 11.8355L22.2941 11.9973L21.9959 12.006L21.6978 12.0163C21.6476 12.1583 21.6279 12.2249 21.6172 12.2439L21.6082 12.282H21.8965C22.2341 12.282 22.2144 12.263 22.1446 12.4533L22.0953 12.6057H21.439L21.3396 12.7199H21.5983L21.6377 12.9475C21.6771 13.2045 21.6771 13.2045 21.807 13.2045C21.9055 13.2045 21.9055 13.1854 21.8365 13.4139L21.7766 13.6043H21.5885C21.2599 13.6043 21.1999 13.5558 21.1408 13.2331L21.1113 13.0237L20.9913 13.176C20.6636 13.6034 20.6439 13.613 20.2257 13.613C19.9571 13.613 19.9571 13.613 19.9974 13.5368C20.0073 13.4996 20.0073 13.4996 19.9276 13.4996C19.8479 13.4996 19.8479 13.4996 19.8291 13.5558L19.8183 13.613H19.2614L19.2713 13.5844C19.3017 13.4892 19.3519 13.4996 18.7448 13.4996C18.2183 13.4996 18.1878 13.4996 18.1986 13.471L18.2479 13.2997C18.3078 13.1283 18.2971 13.1283 18.3571 13.1283C18.4072 13.1283 18.4072 13.1283 18.4269 13.0617L19.0627 11.0281L19.1029 10.9035H19.3805C19.5596 10.9035 19.6894 10.913 19.6894 10.9225ZM16.1598 11.7403L16.0506 12.0735H15.4543C15.4291 12.1634 15.3991 12.2521 15.3647 12.3391C15.3549 12.3677 15.3746 12.3677 15.6629 12.3677C15.8321 12.3677 15.9709 12.3772 15.9709 12.3772C15.9709 12.3867 15.9619 12.4058 15.9512 12.4343C15.9423 12.4533 15.9216 12.5295 15.902 12.6057L15.8617 12.7294H15.2457L15.1758 12.957C15.0773 13.2807 15.0863 13.2902 15.4641 13.2426C15.6235 13.2236 15.6137 13.2045 15.5438 13.433L15.4838 13.6234H15.0665C14.4102 13.6234 14.4004 13.6034 14.5795 13.0617C14.6296 12.8904 14.6789 12.7485 14.6789 12.7485C14.6789 12.7485 14.609 12.7389 14.5097 12.7389C14.4201 12.7389 14.3413 12.7389 14.3413 12.7294C14.4102 12.4915 14.4398 12.4153 14.4398 12.3962C14.4505 12.3772 14.4703 12.3677 14.6189 12.3677H14.789L14.8678 12.0735H14.7084C14.5893 12.0735 14.5499 12.0735 14.5499 12.0544C14.5499 12.0354 14.6395 11.7602 14.6484 11.7308C14.669 11.7117 16.1705 11.7221 16.1598 11.7403ZM18.0885 12.4248C18.0885 12.4438 18.0688 12.5009 18.0589 12.5486C17.999 12.8151 17.9202 12.8713 17.6022 12.8904L17.3927 12.9095C17.3731 12.938 17.3731 13.1665 17.3927 13.2045L17.4223 13.2426L17.6211 13.2331C17.7312 13.2236 17.8207 13.2236 17.8207 13.2236C17.8207 13.2426 17.7106 13.5749 17.7008 13.5844C17.681 13.6034 17.074 13.594 16.9952 13.5654C16.8761 13.5273 16.8761 13.5368 16.886 12.938L16.8959 12.4153H17.4026V12.6143H17.502C17.6112 12.6143 17.6211 12.6057 17.6712 12.4724L17.7008 12.3962H17.8995C18.0786 12.4058 18.0983 12.4058 18.0885 12.4248ZM19.0233 8.35576L18.914 8.81179H19.0627C19.8282 8.83085 20.146 7.98451 19.4011 7.92827L19.162 7.90923C19.1325 7.90923 19.1325 7.93778 19.0233 8.35576ZM15.0665 9.00224C14.8786 9.07832 14.6994 9.76284 14.8481 9.8676C14.9573 9.9533 15.1167 9.8105 15.1955 9.57336C15.3253 9.13551 15.285 8.92607 15.0665 9.00224ZM20.9913 9.04981C20.7925 9.14496 20.6439 9.82003 20.7925 9.89611C20.9913 9.99998 21.25 9.6391 21.25 9.24972C21.25 9.06799 21.1408 8.98318 20.9913 9.04981ZM16.9755 11.3128L16.9254 11.4832C16.8959 11.5698 16.8761 11.6451 16.8662 11.6546C16.8662 11.6642 16.9155 11.646 16.9853 11.607C17.1842 11.5118 17.2441 11.4928 17.5315 11.4832L17.7804 11.4746C17.8207 11.3604 17.8306 11.3128 17.8306 11.3033C17.8396 11.2937 16.9853 11.2937 16.9755 11.3119V11.3128ZM16.8063 11.8641L16.7669 12.0163L17.6211 12.0069L17.6712 11.8545C16.9952 11.8545 16.8063 11.8545 16.8063 11.8632V11.8641ZM19.5103 11.5214C19.4709 11.6451 19.4405 11.7403 19.4503 11.7403L19.5703 11.7022C19.6294 11.6831 19.7386 11.6546 19.7987 11.6451C19.8586 11.6364 19.9079 11.626 19.9177 11.626C19.9177 11.626 20.0171 11.3318 20.0171 11.3223C20.0171 11.3223 19.9186 11.3128 19.7987 11.3128H19.5801L19.5103 11.5214ZM19.351 12.006C19.351 12.0163 19.3116 12.1115 19.282 12.2249C19.2417 12.3391 19.2121 12.4438 19.2121 12.4438C19.2121 12.4533 19.2614 12.4352 19.3312 12.4058C19.4011 12.3772 19.5005 12.3487 19.5605 12.3391C19.6894 12.3201 19.6992 12.3105 19.7091 12.263C19.719 12.2439 19.7386 12.1677 19.7593 12.1115L19.7987 11.9973H19.5801C19.4611 11.9973 19.351 11.9973 19.351 12.006ZM19.0035 13.0998L19.4405 13.1094C19.53 12.8238 19.5605 12.7285 19.5605 12.7199L19.1226 12.7008L19.0035 13.0998Z" fill="white"/>
</g>
<defs>
<clipPath id="clip0_4_858">
<rect width="31" height="21" fill="white"/>
</clipPath>
</defs>
</svg>
