<svg width="31" height="21" viewBox="0 0 31 21" fill="none" xmlns="http://www.w3.org/2000/svg">
<g clip-path="url(#clip0_4_854)">
<path d="M27.319 0.807617H3.68101C2.09859 0.807617 0.815796 2.04744 0.815796 3.57685V17.423C0.815796 18.9524 2.09859 20.1922 3.68101 20.1922H27.319C28.9014 20.1922 30.1842 18.9524 30.1842 17.423V3.57685C30.1842 2.04744 28.9014 0.807617 27.319 0.807617Z" fill="#00DFD8" stroke="#EEEEEE"/>
<path d="M17.1601 13.9543C16.5215 13.9543 15.8894 13.8305 15.3012 13.5902L15.6085 12.1066C16.1235 12.3969 16.7086 12.5508 17.3047 12.5524H17.3499C17.8577 12.5448 18.3706 12.333 18.3706 11.8774C18.3778 11.5867 18.1378 11.3554 17.4853 11.0239C17.0815 10.879 16.7278 10.6279 16.4642 10.2987C16.2006 9.9695 16.0377 9.57559 15.9939 9.16149C15.9939 7.82605 17.1679 6.89282 18.8491 6.89282C19.3972 6.89489 19.94 6.99828 20.4479 7.19744L20.1485 8.68107C19.7241 8.47172 19.2546 8.36187 18.7782 8.3605C18.6731 8.3605 18.5682 8.36575 18.4637 8.37641C17.9709 8.44571 17.7475 8.71225 17.7475 8.94825C17.7475 9.23563 18.1013 9.42802 18.549 9.67178C19.2595 10.0588 20.1434 10.5399 20.1385 11.6711L20.1743 11.6116C20.1671 13.0357 18.9981 13.9558 17.198 13.9558L17.1601 13.9543ZM21.8877 13.8955H20.0912L22.6541 7.53874C22.7062 7.39419 22.8027 7.26844 22.9307 7.17826C23.0587 7.08809 23.2121 7.03778 23.3704 7.03406H24.798L26.1819 13.8962H24.5953L24.3883 12.8723H22.2394L21.8898 13.8962L21.8877 13.8955ZM23.5867 8.88735L22.6892 11.462H24.1096L23.5867 8.88735ZM14.0793 13.8719H12.368L13.7956 7.0119H15.5083L14.0806 13.874L14.0793 13.8719ZM10.3323 13.8492H8.46989L7.10891 8.36607C7.09878 8.2408 7.05611 8.12013 6.98487 8.01506C6.91362 7.91002 6.8161 7.82405 6.70133 7.76513C6.16847 7.50163 5.60166 7.30793 5.01587 7.18913L5.05884 6.98905H7.96417C8.16095 6.99377 8.34932 7.06694 8.49477 7.19515C8.64014 7.32335 8.73282 7.49796 8.75566 7.6869L9.472 11.6559L11.2477 6.98905H13.1029L10.3337 13.8512L10.3323 13.8492Z" fill="#2A2A6C"/>
</g>
<defs>
<clipPath id="clip0_4_854">
<rect width="31" height="21" fill="white"/>
</clipPath>
</defs>
</svg>
